<svg viewBox="0 0 524 365" xmlns="http://www.w3.org/2000/svg" height="365" xmlns:xlink="http://www.w3.org/1999/xlink" width="524">
    <style type="text/css"><![CDATA[
.st1 {fill:#000000;font-family:宋体;font-size:10pt}
]]></style>
    <defs>
        <linearGradient id="lg1" y1="0%" x1="0%" x2="0%" y2="100%">
            <stop offset="0" stop-color="#fcfcfc"/>
            <stop offset="0.5" stop-color="#f5f5f5"/>
            <stop offset="1" stop-color="#eeeeee"/>
        </linearGradient>
    </defs>
    <g transform="translate(-18.84,-18.73)">
        <g id="shape1" transform="translate(218.27,139.84)">
            <path fill-opacity="0.5" d="M2,63.4C2,29.5,29.5,2,63.4,2C97.3,2,124.8,29.5,124.8,63.4C124.8,97.3,97.3,124.8,63.4,124.8C29.5,124.8,2,97.3,2,63.4z" fill="#bebebe"/>
            <path d="M0,61.4C-0,27.5,27.5,-0,61.4,-0C95.3,-0,122.8,27.5,122.8,61.4C122.8,95.3,95.3,122.8,61.4,122.8C27.5,122.8,0,95.3,0,61.4z" stroke="#545454" fill="url(#lg1)"/>
            <text class="st1">
                <tspan x="22.4" y="65.9">中央空调系统</tspan>
            </text>
        </g>
        <g id="shape2" transform="translate(19.84,262.68)">
            <path fill-opacity="0.5" d="M94.6,49.2L94.6,2L2,2L2,49.2L94.6,49.2z" fill="#bebebe"/>
            <path d="M92.6,47.2L92.6,0L0,0L0,47.2L92.6,47.2z" stroke="#545454" fill="url(#lg1)"/>
            <text class="st1">
                <tspan x="33.3" y="28.1">后台</tspan>
            </text>
        </g>
        <g id="shape3" transform="translate(19.84,116.22)">
            <path fill-opacity="0.5" d="M94.6,49.2L94.6,2L2,2L2,49.2L94.6,49.2z" fill="#bebebe"/>
            <path d="M92.6,47.2L92.6,0L0,0L0,47.2L92.6,47.2z" stroke="#545454" fill="url(#lg1)"/>
            <text class="st1">
                <tspan x="33.3" y="28.1">前台</tspan>
            </text>
        </g>
        <g id="shape4" transform="translate(445.98,177.64)">
            <path fill-opacity="0.5" d="M94.6,49.2L94.6,2L2,2L2,49.2L94.6,49.2z" fill="#bebebe"/>
            <path d="M92.6,47.2L92.6,0L0,0L0,47.2L92.6,47.2z" stroke="#545454" fill="url(#lg1)"/>
            <text class="st1">
                <tspan x="33.3" y="28.1">房客</tspan>
            </text>
        </g>
        <g id="shape5" transform="translate(233.39,333.54)">
            <path stroke-width="3" stroke="#545454" d="M92.6,0L0,0M0,47.2L92.6,47.2" fill="none"/>
            <text class="st1">
                <tspan x="33.3" y="28.1">日志</tspan>
            </text>
        </g>
        <g id="shape6" transform="translate(233.39,21.73)">
            <path stroke-width="3" stroke="#545454" d="M92.6,0L0,0M0,47.2L92.6,47.2" fill="none"/>
            <text class="st1">
                <tspan x="20.3" y="28.1">房客信息</tspan>
            </text>
        </g>
        <g id="shape7" transform="matrix(0.97,0.26,-0.26,0.97,112.4,139.8)">
            <path stroke="#545454" d="M0,-0L109,-0" fill="none"/>
            <path stroke-width="1" stroke-linecap="round" stroke="#545454" d="M119.4,-0L109,-2.6L109,2.6L119.4,-0" fill="#545454"/>
            <text class="st1" transform="matrix(0.97,-0.26,0.26,0.97,2.1,15.6)">
                <tspan x="33.7" y="4.5">房客信息</tspan>
            </text>
        </g>
        <g id="shape8" transform="matrix(-0.9,0.43,-0.43,-0.9,227.7,227.5)">
            <path stroke="#545454" d="M0,-0L117.2,-0" fill="none"/>
            <path stroke-width="1" stroke-linecap="round" stroke="#545454" d="M127.6,-0L117.2,-2.6L117.2,2.6L127.6,-0" fill="#545454"/>
            <text class="st1" transform="matrix(-0.9,-0.43,0.43,-0.9,121.5,27.4)">
                <tspan x="50.8" y="4.5">日志</tspan>
            </text>
        </g>
        <g id="shape9" transform="matrix(0.89,-0.45,0.45,0.89,112.4,271)">
            <path stroke="#545454" d="M0,-0L116.4,-0" fill="none"/>
            <path stroke-width="1" stroke-linecap="round" stroke="#545454" d="M126.8,-0L116.4,-2.6L116.4,2.6L126.8,-0" fill="#545454"/>
            <text class="st1" transform="matrix(0.89,0.45,-0.45,0.89,6.7,-28.3)">
                <tspan x="37.4" y="4.5">查询请求</tspan>
            </text>
        </g>
        <g id="shape10" transform="matrix(0.9,-0.44,0.44,0.9,113.4,296.6)">
            <path stroke="#545454" d="M0,-0L125.2,-0" fill="none"/>
            <path stroke-width="1" stroke-linecap="round" stroke="#545454" d="M135.6,-0L125.2,-2.6L125.2,2.6L135.6,-0" fill="#545454"/>
            <text class="st1" transform="matrix(0.9,0.44,-0.44,0.9,6.9,-29.8)">
                <tspan x="41.8" y="4.5">配置信息</tspan>
            </text>
        </g>
        <g id="shape11" transform="matrix(-1,0,0,-1,446,201.3)">
            <path stroke="#545454" d="M0,-0L94.5,-0" fill="none"/>
            <path stroke-width="1" stroke-linecap="round" stroke="#545454" d="M104.9,-0L94.5,-2.6L94.5,2.6L104.9,-0" fill="#545454"/>
            <text class="st1" transform="matrix(-1,-0,0,-1,104.9,0)">
                <tspan x="26.4" y="4.5">登录信息</tspan>
            </text>
        </g>
        <g id="shape12" transform="matrix(-1,0,0,-1,446,212.6)">
            <path stroke="#545454" d="M0,-0L94.5,-0" fill="none"/>
            <path stroke-width="1" stroke-linecap="round" stroke="#545454" d="M104.9,-0L94.5,-2.6L94.5,2.6L104.9,-0" fill="#545454"/>
            <text class="st1" transform="matrix(-1,-0,0,-1,104.9,0)">
                <tspan x="26.4" y="4.5">目标状态</tspan>
            </text>
        </g>
        <g id="shape13" transform="translate(341.1,189.92)">
            <path stroke="#545454" d="M0,-0L95.4,-0" fill="none"/>
            <path stroke-width="1" stroke-linecap="round" stroke="#545454" d="M105.8,-0L95.4,-2.6L95.4,2.6L105.8,-0" fill="#545454"/>
            <text class="st1">
                <tspan x="26.9" y="4.5">状态信息</tspan>
            </text>
        </g>
        <g id="shape14" transform="matrix(0,1,-1,0,279.7,262.7)">
            <path stroke="#545454" d="M0,-0L60.5,-0" fill="none"/>
            <path stroke-width="1" stroke-linecap="round" stroke="#545454" d="M70.9,-0L60.5,-2.6L60.5,2.6L70.9,-0" fill="#545454"/>
        </g>
        <g id="shape15" transform="matrix(0,1,-1,0,279.7,69)">
            <path stroke="#545454" d="M0,-0L60.5,-0" fill="none"/>
            <path stroke-width="1" stroke-linecap="round" stroke="#545454" d="M70.9,-0L60.5,-2.6L60.5,2.6L70.9,-0" fill="#545454"/>
        </g>
        <g id="shape16" transform="matrix(0,-1,1,0,279.7,139.8)">
            <path stroke="#545454" d="M0,-0L60.5,-0" fill="none"/>
            <path stroke-width="1" stroke-linecap="round" stroke="#545454" d="M70.9,-0L60.5,-2.6L60.5,2.6L70.9,-0" fill="#545454"/>
        </g>
        <g id="shape17" transform="matrix(0,-1,1,0,279.7,333.5)">
            <path stroke="#545454" d="M0,-0L60.5,-0" fill="none"/>
            <path stroke-width="1" stroke-linecap="round" stroke="#545454" d="M70.9,-0L60.5,-2.6L60.5,2.6L70.9,-0" fill="#545454"/>
        </g>
        <g id="shape18" transform="translate(370.39,298.11)">
            <path stroke-width="3" stroke="#545454" d="M92.6,0L0,0M0,47.2L92.6,47.2" fill="none"/>
            <text class="st1">
                <tspan x="7.3" y="20.6">主控机配置信</tspan>
                <tspan x="40.3" y="35.6">息</tspan>
            </text>
        </g>
        <g id="shape19" transform="matrix(0.85,0.53,-0.53,0.85,322.2,239.1)">
            <path stroke="#545454" d="M0,-0L101,-0" fill="none"/>
            <path stroke-width="1" stroke-linecap="round" stroke="#545454" d="M111.4,-0L101,-2.6L101,2.6L111.4,-0" fill="#545454"/>
        </g>
        <g id="shape20" transform="matrix(-0.85,-0.53,0.53,-0.85,416.7,298.1)">
            <path stroke="#545454" d="M0,-0L101,-0" fill="none"/>
            <path stroke-width="1" stroke-linecap="round" stroke="#545454" d="M111.4,-0L101,-2.6L101,2.6L111.4,-0" fill="#545454"/>
        </g>
        <g id="shape21" transform="translate(380.79,68.98)">
            <path stroke-width="3" stroke="#545454" d="M92.6,0L0,0M0,47.2L92.6,47.2" fill="none"/>
            <text class="st1">
                <tspan x="7.3" y="20.6">从控机配置信</tspan>
                <tspan x="40.3" y="35.6">息</tspan>
            </text>
        </g>
        <g id="shape22" transform="matrix(0.89,-0.46,0.46,0.89,329.8,166.3)">
            <path stroke="#545454" d="M0,-0L99.1,-0" fill="none"/>
            <path stroke-width="1" stroke-linecap="round" stroke="#545454" d="M109.5,-0L99.1,-2.6L99.1,2.6L109.5,-0" fill="#545454"/>
        </g>
        <g id="shape23" transform="matrix(-0.89,0.46,-0.46,-0.89,427.1,116.2)">
            <path stroke="#545454" d="M0,-0L99.1,-0" fill="none"/>
            <path stroke-width="1" stroke-linecap="round" stroke="#545454" d="M109.5,-0L99.1,-2.6L99.1,2.6L109.5,-0" fill="#545454"/>
        </g>
        <g id="shape24" transform="matrix(-0.9,0.44,-0.44,-0.9,241,246)">
            <path stroke="#545454" d="M0,-0L135.1,-0" fill="none"/>
            <path stroke-width="1" stroke-linecap="round" stroke="#545454" d="M145.5,-0L135.1,-2.6L135.1,2.6L145.5,-0" fill="#545454"/>
            <text class="st1" transform="matrix(-0.9,-0.44,0.44,-0.9,138,32.1)">
                <tspan x="20.8" y="4.5">从控机及房间信息</tspan>
            </text>
        </g>
    </g>
</svg>
