<?xml version="1.0" encoding="utf-8" standalone="no" ?>
<!--Generated by Edraw, SVGExporter, v1.0-->
<svg version="1.1" xmlns="http://www.w3.org/2000/svg" xmlns:xlink="http://www.w3.org/1999/xlink" xmlns:ed="http://www.edrawsoft.com/schema/svg" ed:version="version 5" viewBox="0 0 800 560">
    <style type="text/css">
        <![CDATA[
            .st1 {fill:url(#grad1);stroke:#545454; stroke-width:1; stroke-linejoin:bevel; }
            .st2 {fill:url(#grad2);stroke:#545454; stroke-width:1; stroke-linejoin:bevel; }
            .st3 {fill:#FFFFFF;}
            .st4 {fill:none;stroke:#545454; stroke-width:3; stroke-linejoin:bevel; }
            .st5 {fill:#FFFFFF;stroke:#545454; stroke-width:3; stroke-linejoin:bevel; }
            .st6 {fill:none;stroke:#545454; stroke-width:1; stroke-linejoin:bevel; marker-end:url(#mk1); }
            .st7 {fill:#FFFFFF;stroke:#545454; stroke-width:1; stroke-linejoin:bevel; marker-end:url(#mk1); }
        ]]>

    </style>
    <defs id="Gradients">
        <linearGradient id="grad1" gradientUnits="userSpaceOnUse" x1="0.00" y1="0.00" x2="0.00" y2="131.00">
            <stop offset="0.00" stop-color="#FCFCFC" stop-opacity="1.00" />
            <stop offset="0.50" stop-color="#F5F5F5" stop-opacity="1.00" />
            <stop offset="1.00" stop-color="#EEEEEE" stop-opacity="1.00" />
        </linearGradient>
        <linearGradient id="grad2" gradientUnits="userSpaceOnUse" x1="0.00" y1="0.00" x2="0.00" y2="51.00">
            <stop offset="0.00" stop-color="#FCFCFC" stop-opacity="1.00" />
            <stop offset="0.50" stop-color="#F5F5F5" stop-opacity="1.00" />
            <stop offset="1.00" stop-color="#EEEEEE" stop-opacity="1.00" />
        </linearGradient>
    </defs>
    <defs id="Markers">
        <marker id="mk1" orient="auto" overflow="visible">
            <path d="M-0.00,-0.00 L-13.33,3.33 L-13.33,-3.33 z " style="fill:#545454; stroke:none;" />
        </marker>
    </defs>
    <defs id="Filters" />
    <g>
        <title>图层-1</title>
        <g ed:type="shadow" transform="translate(403,342) translate(-401,-340) translate(336.00,210.00)">
            <path d="M0.00,65.00 A65.00 65.00 0.00 1 1 130.00,65.00 A65.00 65.00 0.00 1 1 0.00,65.00 z" style="fill:#BEBEBE; fill-opacity:0.501961; stroke:none;" />
        </g>
        <g id="103" transform="translate(336.00,210.00)">
            <path d="M0.00,65.00 A65.00 65.00 0.00 1 1 130.00,65.00 A65.00 65.00 0.00 1 1 0.00,65.00 z" class="st1" />
            <text>
                <tspan x="25.00" y="69.50" style="font-family:宋体;fill:#000000;font-size:10pt;">中央空调系统</tspan>
            </text>
        </g>
        <g ed:type="shadow" transform="translate(177,392) translate(-175,-390) translate(126.00,340.00)">
            <path d="M98.00,50.00 L98.00,0.00 L0.00,0.00 L0.00,50.00 L98.00,50.00 z" style="fill:#BEBEBE; fill-opacity:0.501961; stroke:none;" />
        </g>
        <g id="105" transform="translate(126.00,340.00)">
            <path d="M98.00,50.00 L98.00,0.00 L0.00,0.00 L0.00,50.00 L98.00,50.00 z" class="st2" />
            <text>
                <tspan x="35.00" y="29.50" style="font-family:宋体;fill:#000000;font-size:10pt;">后台</tspan>
            </text>
        </g>
        <g ed:type="shadow" transform="translate(177,237) translate(-175,-235) translate(126.00,185.00)">
            <path d="M98.00,50.00 L98.00,0.00 L0.00,0.00 L0.00,50.00 L98.00,50.00 z" style="fill:#BEBEBE; fill-opacity:0.501961; stroke:none;" />
        </g>
        <g id="106" transform="translate(126.00,185.00)">
            <path d="M98.00,50.00 L98.00,0.00 L0.00,0.00 L0.00,50.00 L98.00,50.00 z" class="st2" />
            <text>
                <tspan x="35.00" y="29.50" style="font-family:宋体;fill:#000000;font-size:10pt;">前台</tspan>
            </text>
        </g>
        <g ed:type="shadow" transform="translate(628,302) translate(-626,-300) translate(577.00,250.00)">
            <path d="M98.00,50.00 L98.00,0.00 L0.00,0.00 L0.00,50.00 L98.00,50.00 z" style="fill:#BEBEBE; fill-opacity:0.501961; stroke:none;" />
        </g>
        <g id="107" transform="translate(577.00,250.00)">
            <path d="M98.00,50.00 L98.00,0.00 L0.00,0.00 L0.00,50.00 L98.00,50.00 z" class="st2" />
            <text>
                <tspan x="35.00" y="29.50" style="font-family:宋体;fill:#000000;font-size:10pt;">房客</tspan>
            </text>
        </g>
        <g id="108" transform="translate(352.00,415.00)">
            <path d="M98.00,0.00 L0.00,0.00 " class="st4" />
            <path d="M0.00,50.00 L98.00,50.00 " class="st4" />
            <text>
                <tspan x="35.00" y="29.50" style="font-family:宋体;fill:#000000;font-size:10pt;">日志</tspan>
            </text>
        </g>
        <g id="109" transform="translate(352.00,85.00)">
            <path d="M98.00,0.00 L0.00,0.00 " class="st4" />
            <path d="M0.00,50.00 L98.00,50.00 " class="st4" />
            <text>
                <tspan x="22.00" y="29.50" style="font-family:宋体;fill:#000000;font-size:10pt;">房客信息</tspan>
            </text>
        </g>
        <g id="110" transform="translate(221.81,226.50) rotate(15.14,63.19,0.00)">
            <path d="M-0.00,-0.00 L126.38,-0.00 " class="st6" />
            <text transform="translate(34.69,-8.50) rotate(-15.14,28.50,8.50)">
                <tspan x="1.50" y="12.50" style="font-family:宋体;fill:#000000;font-size:10pt;">房客信息</tspan>
            </text>
        </g>
        <g id="111" transform="translate(217.46,336.00) rotate(154.57,67.54,0.00)">
            <path d="M-0.00,-0.00 L135.09,-0.00 " class="st6" />
            <text transform="translate(52.04,-8.50) rotate(-154.57,15.50,8.50)">
                <tspan x="1.50" y="13.00" style="font-family:宋体;fill:#000000;font-size:10pt;">日志</tspan>
            </text>
        </g>
        <g id="112" transform="translate(217.92,323.00) rotate(-26.57,67.08,0.00)">
            <path d="M-0.00,-0.00 L134.16,-0.00 " class="st6" />
            <text transform="translate(38.58,-8.50) rotate(26.57,28.50,8.50)">
                <tspan x="0.50" y="13.00" style="font-family:宋体;fill:#000000;font-size:10pt;">查询请求</tspan>
            </text>
        </g>
        <g id="113" transform="translate(217.72,346.50) rotate(-26.03,71.78,0.00)">
            <path d="M-0.00,-0.00 L143.56,-0.00 " class="st6" />
            <text transform="translate(43.28,-8.50) rotate(26.03,28.50,8.50)">
                <tspan x="1.00" y="13.50" style="font-family:宋体;fill:#000000;font-size:10pt;">配置信息</tspan>
            </text>
        </g>
        <g id="114" transform="translate(466.00,275.00) rotate(180.00,55.50,0.00)">
            <path d="M-0.00,-0.00 L111.00,-0.00 " class="st6" />
            <text transform="translate(27.00,-8.50) rotate(-180.00,28.50,8.50)">
                <tspan x="1.00" y="13.00" style="font-family:宋体;fill:#000000;font-size:10pt;">登录信息</tspan>
            </text>
        </g>
        <g id="115" transform="translate(466.00,287.00) rotate(180.00,55.50,0.00)">
            <path d="M-0.00,-0.00 L111.00,-0.00 " class="st6" />
            <text transform="translate(27.00,-8.50) rotate(-180.00,28.50,8.50)">
                <tspan x="1.00" y="13.00" style="font-family:宋体;fill:#000000;font-size:10pt;">目标状态</tspan>
            </text>
        </g>
        <g id="116" transform="translate(466.00,263.00)">
            <path d="M-0.00,-0.00 L112.00,-0.00 " class="st6" />
            <text transform="translate(27.50,-8.50)">
                <tspan x="1.50" y="13.00" style="font-family:宋体;fill:#000000;font-size:10pt;">状态信息</tspan>
            </text>
        </g>
        <g id="117" transform="translate(363.50,377.50) rotate(90.00,37.50,0.00)">
            <path d="M-0.00,-0.00 L75.00,-0.00 " class="st6" />
        </g>
        <g id="118" transform="translate(363.50,172.50) rotate(90.00,37.50,0.00)">
            <path d="M-0.00,-0.00 L75.00,-0.00 " class="st6" />
        </g>
        <g id="119" transform="translate(363.50,172.50) rotate(-90.00,37.50,0.00)">
            <path d="M-0.00,-0.00 L75.00,-0.00 " class="st6" />
        </g>
        <g id="120" transform="translate(363.50,377.50) rotate(-90.00,37.50,0.00)">
            <path d="M-0.00,-0.00 L75.00,-0.00 " class="st6" />
        </g>
        <g id="121" transform="translate(497.00,377.50)">
            <path d="M98.00,0.00 L0.00,0.00 " class="st4" />
            <path d="M0.00,50.00 L98.00,50.00 " class="st4" />
            <text>
                <tspan x="9.00" y="21.00" style="font-family:宋体;fill:#000000;font-size:10pt;">主控机配置信</tspan>
                <tspan x="42.00" y="38.00" style="font-family:宋体;fill:#000000;font-size:10pt;">息</tspan>
            </text>
        </g>
        <g id="122" transform="translate(437.04,346.25) rotate(32.01,58.96,0.00)">
            <path d="M-0.00,-0.00 L117.92,-0.00 " class="st6" />
        </g>
        <g id="123" transform="translate(437.04,346.25) rotate(-147.99,58.96,0.00)">
            <path d="M-0.00,-0.00 L117.92,-0.00 " class="st6" />
        </g>
        <g id="124" transform="translate(508.00,135.00)">
            <path d="M98.00,0.00 L0.00,0.00 " class="st4" />
            <path d="M0.00,50.00 L98.00,50.00 " class="st4" />
            <text>
                <tspan x="9.00" y="20.50" style="font-family:宋体;fill:#000000;font-size:10pt;">从控机配置信</tspan>
                <tspan x="42.00" y="37.50" style="font-family:宋体;fill:#000000;font-size:10pt;">息</tspan>
            </text>
        </g>
        <g id="125" transform="translate(447.58,211.50) rotate(-27.23,57.92,0.00)">
            <path d="M-0.00,-0.00 L115.84,-0.00 " class="st6" />
        </g>
        <g id="126" transform="translate(447.58,211.50) rotate(152.77,57.92,0.00)">
            <path d="M-0.00,-0.00 L115.84,-0.00 " class="st6" />
        </g>
    </g>
</svg>
