<?xml version="1.0" encoding="utf-8" standalone="no" ?>
<!--Generated by Edraw, SVGExporter, v1.0-->
<svg version="1.1" xmlns="http://www.w3.org/2000/svg" xmlns:xlink="http://www.w3.org/1999/xlink" xmlns:ed="http://www.edrawsoft.com/schema/svg" ed:version="version 5" viewBox="0 0 1188 840">
    <style type="text/css">
        <![CDATA[
            .st1 {fill:url(#grad1);stroke:#545454; stroke-width:1; stroke-linejoin:bevel; }
            .st2 {fill:url(#grad2);stroke:#545454; stroke-width:1; stroke-linejoin:bevel; }
            .st3 {fill:#FFFFFF;}
            .st4 {fill:none;stroke:#545454; stroke-width:3; stroke-linejoin:bevel; }
            .st5 {fill:#FFFFFF;stroke:#545454; stroke-width:3; stroke-linejoin:bevel; }
            .st6 {fill:none;stroke:#545454; stroke-width:1; stroke-linejoin:bevel; marker-end:url(#mk1); }
            .st7 {fill:#FFFFFF;stroke:#545454; stroke-width:1; stroke-linejoin:bevel; marker-end:url(#mk1); }
        ]]>

    </style>
    <defs id="Gradients">
        <linearGradient id="grad1" gradientUnits="userSpaceOnUse" x1="0.00" y1="0.00" x2="0.00" y2="103.00">
            <stop offset="0.00" stop-color="#FCFCFC" stop-opacity="1.00" />
            <stop offset="0.50" stop-color="#F5F5F5" stop-opacity="1.00" />
            <stop offset="1.00" stop-color="#EEEEEE" stop-opacity="1.00" />
        </linearGradient>
        <linearGradient id="grad2" gradientUnits="userSpaceOnUse" x1="0.00" y1="0.00" x2="0.00" y2="51.00">
            <stop offset="0.00" stop-color="#FCFCFC" stop-opacity="1.00" />
            <stop offset="0.50" stop-color="#F5F5F5" stop-opacity="1.00" />
            <stop offset="1.00" stop-color="#EEEEEE" stop-opacity="1.00" />
        </linearGradient>
    </defs>
    <defs id="Markers">
        <marker id="mk1" orient="auto" overflow="visible">
            <path d="M-0.00,-0.00 L-13.33,3.33 L-13.33,-3.33 z " style="fill:#545454; stroke:none;" />
        </marker>
    </defs>
    <defs id="Filters" />
    <g>
        <title>图层-1</title>
        <g ed:type="shadow" transform="translate(502,413) translate(-500,-411) translate(449.00,309.00)">
            <path d="M0.00,51.00 A51.00 51.00 0.00 1 1 102.00,51.00 A51.00 51.00 0.00 1 1 0.00,51.00 z" style="fill:#BEBEBE; fill-opacity:0.501961; stroke:none;" />
        </g>
        <g id="124" transform="translate(449.00,309.00)">
            <path d="M0.00,51.00 A51.00 51.00 0.00 1 1 102.00,51.00 A51.00 51.00 0.00 1 1 0.00,51.00 z" class="st1" />
            <text>
                <tspan x="11.00" y="55.50" style="font-family:宋体;fill:#000000;font-size:10pt;">主控机子系统</tspan>
            </text>
        </g>
        <g ed:type="shadow" transform="translate(291,477) translate(-289,-475) translate(240.00,425.00)">
            <path d="M98.00,50.00 L98.00,0.00 L0.00,0.00 L0.00,50.00 L98.00,50.00 z" style="fill:#BEBEBE; fill-opacity:0.501961; stroke:none;" />
        </g>
        <g id="125" transform="translate(240.00,425.00)">
            <path d="M98.00,50.00 L98.00,0.00 L0.00,0.00 L0.00,50.00 L98.00,50.00 z" class="st2" />
            <text>
                <tspan x="35.00" y="29.50" style="font-family:宋体;fill:#000000;font-size:10pt;">后台</tspan>
            </text>
        </g>
        <g ed:type="shadow" transform="translate(291,322) translate(-289,-320) translate(240.00,270.00)">
            <path d="M98.00,50.00 L98.00,0.00 L0.00,0.00 L0.00,50.00 L98.00,50.00 z" style="fill:#BEBEBE; fill-opacity:0.501961; stroke:none;" />
        </g>
        <g id="126" transform="translate(240.00,270.00)">
            <path d="M98.00,50.00 L98.00,0.00 L0.00,0.00 L0.00,50.00 L98.00,50.00 z" class="st2" />
            <text>
                <tspan x="35.00" y="29.50" style="font-family:宋体;fill:#000000;font-size:10pt;">前台</tspan>
            </text>
        </g>
        <g id="128" transform="translate(451.00,500.00)">
            <path d="M98.00,0.00 L0.00,0.00 " class="st4" />
            <path d="M0.00,50.00 L98.00,50.00 " class="st4" />
            <text>
                <tspan x="35.00" y="29.50" style="font-family:宋体;fill:#000000;font-size:10pt;">日志</tspan>
            </text>
        </g>
        <g id="129" transform="translate(451.00,162.00)">
            <path d="M98.00,0.00 L0.00,0.00 " class="st4" />
            <path d="M0.00,50.00 L98.00,50.00 " class="st4" />
            <text>
                <tspan x="22.00" y="29.50" style="font-family:宋体;fill:#000000;font-size:10pt;">房客信息</tspan>
            </text>
        </g>
        <g id="130" transform="translate(335.81,311.50) rotate(15.14,63.19,0.00)">
            <path d="M-0.00,-0.00 L126.38,-0.00 " class="st6" />
            <text transform="translate(34.69,-8.50) rotate(-15.14,28.50,8.50)">
                <tspan x="0.50" y="13.50" style="font-family:宋体;fill:#000000;font-size:10pt;">房客信息</tspan>
            </text>
        </g>
        <g id="131" transform="translate(331.46,421.00) rotate(154.57,67.54,0.00)">
            <path d="M-0.00,-0.00 L135.09,-0.00 " class="st6" />
            <text transform="translate(52.04,-8.50) rotate(-154.57,15.50,8.50)">
                <tspan x="0.50" y="13.00" style="font-family:宋体;fill:#000000;font-size:10pt;">日志</tspan>
            </text>
        </g>
        <g id="132" transform="translate(331.92,408.00) rotate(-26.57,67.08,0.00)">
            <path d="M-0.00,-0.00 L134.16,-0.00 " class="st6" />
            <text transform="translate(38.58,-8.50) rotate(26.57,28.50,8.50)">
                <tspan x="0.50" y="13.00" style="font-family:宋体;fill:#000000;font-size:10pt;">查询请求</tspan>
            </text>
        </g>
        <g id="133" transform="translate(331.72,431.50) rotate(-26.03,71.78,0.00)">
            <path d="M-0.00,-0.00 L143.56,-0.00 " class="st6" />
            <text transform="translate(43.28,-8.50) rotate(26.03,28.50,8.50)">
                <tspan x="1.00" y="12.50" style="font-family:宋体;fill:#000000;font-size:10pt;">配置信息</tspan>
            </text>
        </g>
        <g id="137" transform="translate(455.50,455.50) rotate(90.00,44.50,0.00)">
            <path d="M-0.00,-0.00 L89.00,-0.00 " class="st6" />
        </g>
        <g id="138" transform="translate(451.50,260.50) rotate(90.00,48.50,0.00)">
            <path d="M-0.00,-0.00 L97.00,-0.00 " class="st6" />
        </g>
        <g id="139" transform="translate(451.50,260.50) rotate(-90.00,48.50,0.00)">
            <path d="M-0.00,-0.00 L97.00,-0.00 " class="st6" />
        </g>
        <g id="140" transform="translate(455.50,455.50) rotate(-90.00,44.50,0.00)">
            <path d="M-0.00,-0.00 L89.00,-0.00 " class="st6" />
        </g>
        <g ed:type="shadow" transform="translate(940,325) translate(-938,-323) translate(889.00,273.00)">
            <path d="M98.00,50.00 L98.00,0.00 L0.00,0.00 L0.00,50.00 L98.00,50.00 z" style="fill:#BEBEBE; fill-opacity:0.501961; stroke:none;" />
        </g>
        <g id="143" transform="translate(889.00,273.00)">
            <path d="M98.00,50.00 L98.00,0.00 L0.00,0.00 L0.00,50.00 L98.00,50.00 z" class="st2" />
            <text>
                <tspan x="16.00" y="29.50" style="font-family:宋体;fill:#000000;font-size:10pt;">温度传感器</tspan>
            </text>
        </g>
        <g id="144" transform="translate(761.37,314.50) rotate(165.27,64.88,0.00)">
            <path d="M-0.00,-0.00 L129.77,-0.00 " class="st6" />
            <text transform="translate(36.38,-8.50) rotate(-165.27,28.50,8.50)">
                <tspan x="1.25" y="12.50" style="font-family:宋体;fill:#000000;font-size:10pt;">房间温度</tspan>
            </text>
        </g>
        <g ed:type="shadow" transform="translate(731,413) translate(-729,-411) translate(678.00,309.00)">
            <path d="M0.00,51.00 A51.00 51.00 0.00 1 1 102.00,51.00 A51.00 51.00 0.00 1 1 0.00,51.00 z" style="fill:#BEBEBE; fill-opacity:0.501961; stroke:none;" />
        </g>
        <g id="145" transform="translate(678.00,309.00)">
            <path d="M0.00,51.00 A51.00 51.00 0.00 1 1 102.00,51.00 A51.00 51.00 0.00 1 1 0.00,51.00 z" class="st1" />
            <text>
                <tspan x="11.00" y="55.50" style="font-family:宋体;fill:#000000;font-size:10pt;">从控机子系统</tspan>
            </text>
        </g>
        <g ed:type="shadow" transform="translate(946,475.5) translate(-944,-473.5) translate(895.00,423.50)">
            <path d="M98.00,50.00 L98.00,0.00 L0.00,0.00 L0.00,50.00 L98.00,50.00 z" style="fill:#BEBEBE; fill-opacity:0.501961; stroke:none;" />
        </g>
        <g id="146" transform="translate(895.00,423.50)">
            <path d="M98.00,50.00 L98.00,0.00 L0.00,0.00 L0.00,50.00 L98.00,50.00 z" class="st2" />
            <text>
                <tspan x="35.00" y="30.00" style="font-family:宋体;fill:#000000;font-size:10pt;">房客</tspan>
            </text>
        </g>
        <g id="147" transform="translate(762.26,417.50) rotate(-153.71,69.99,0.00)">
            <path d="M-0.00,-0.00 L139.98,-0.00 " class="st6" />
            <text transform="translate(41.49,-8.50) rotate(153.71,28.50,8.50)">
                <tspan x="1.25" y="12.50" style="font-family:宋体;fill:#000000;font-size:10pt;">登录信息</tspan>
            </text>
        </g>
        <g id="148" transform="translate(757.46,430.50) rotate(-154.42,71.79,0.00)">
            <path d="M-0.00,-0.00 L143.58,-0.00 " class="st6" />
            <text transform="translate(43.29,-8.50) rotate(154.42,28.50,8.50)">
                <tspan x="1.25" y="12.50" style="font-family:宋体;fill:#000000;font-size:10pt;">目标状态</tspan>
            </text>
        </g>
        <g id="149" transform="translate(770.78,405.50) rotate(26.08,65.97,0.00)">
            <path d="M-0.00,-0.00 L131.93,-0.00 " class="st6" />
            <text transform="translate(37.47,-8.50) rotate(-26.08,28.50,8.50)">
                <tspan x="0.75" y="12.50" style="font-family:宋体;fill:#000000;font-size:10pt;">状态信息</tspan>
            </text>
        </g>
        <g id="150" transform="translate(551.00,360.00)">
            <path d="M-0.00,-0.00 L127.00,-0.00 " class="st6" />
            <text transform="translate(22.00,-8.50)">
                <tspan x="1.00" y="13.00" style="font-family:宋体;fill:#000000;font-size:10pt;">计费能耗信息</tspan>
            </text>
        </g>
        <g id="151" transform="translate(548.00,342.00) rotate(180.00,66.00,0.00)">
            <path d="M-0.00,-0.00 L132.00,-0.00 " class="st6" />
            <text transform="translate(24.50,-8.50) rotate(-180.00,41.50,8.50)">
                <tspan x="0.50" y="13.00" style="font-family:宋体;fill:#000000;font-size:10pt;">身份认证信息</tspan>
            </text>
        </g>
        <g id="152" transform="translate(547.00,377.00) rotate(180.00,66.00,0.00)">
            <path d="M-0.00,-0.00 L132.00,-0.00 " class="st6" />
            <text transform="translate(37.50,-8.50) rotate(-180.00,28.50,8.50)">
                <tspan x="0.50" y="13.00" style="font-family:宋体;fill:#000000;font-size:10pt;">调节请求</tspan>
            </text>
        </g>
        <g id="153" transform="translate(540.00,392.00) rotate(180.00,74.00,0.00)">
            <path d="M-0.00,-0.00 L148.00,-0.00 " class="st6" />
            <text transform="translate(45.50,-8.50) rotate(-180.00,28.50,8.50)">
                <tspan x="0.50" y="13.00" style="font-family:宋体;fill:#000000;font-size:10pt;">房间状态</tspan>
            </text>
        </g>
        <g id="154" transform="translate(539.00,327.00)">
            <path d="M-0.00,-0.00 L152.00,-0.00 " class="st6" />
            <text transform="translate(34.50,-8.50)">
                <tspan x="1.50" y="13.00" style="font-family:宋体;fill:#000000;font-size:10pt;">空调运行状态</tspan>
            </text>
        </g>
        <g id="155" transform="translate(680.00,162.00)">
            <path d="M98.00,0.00 L0.00,0.00 " class="st4" />
            <path d="M0.00,50.00 L98.00,50.00 " class="st4" />
            <text>
                <tspan x="9.00" y="20.50" style="font-family:宋体;fill:#000000;font-size:10pt;">从控机配置信</tspan>
                <tspan x="42.00" y="37.50" style="font-family:宋体;fill:#000000;font-size:10pt;">息</tspan>
            </text>
        </g>
        <g id="156" transform="translate(680.50,260.50) rotate(-90.00,48.50,0.00)">
            <path d="M-0.00,-0.00 L97.00,-0.00 " class="st6" />
        </g>
        <g id="157" transform="translate(680.50,260.50) rotate(90.00,48.50,0.00)">
            <path d="M-0.00,-0.00 L97.00,-0.00 " class="st6" />
        </g>
        <g id="158" transform="translate(602.00,481.25)">
            <path d="M98.00,0.00 L0.00,0.00 " class="st4" />
            <path d="M0.00,50.00 L98.00,50.00 " class="st4" />
            <text>
                <tspan x="9.00" y="20.25" style="font-family:宋体;fill:#000000;font-size:10pt;">主控机配置信</tspan>
                <tspan x="42.00" y="37.25" style="font-family:宋体;fill:#000000;font-size:10pt;">息</tspan>
            </text>
        </g>
        <g id="159" transform="translate(519.45,440.63) rotate(34.32,72.05,0.00)">
            <path d="M-0.00,-0.00 L144.09,-0.00 " class="st6" />
        </g>
        <g id="160" transform="translate(519.45,440.63) rotate(-145.68,72.05,0.00)">
            <path d="M-0.00,-0.00 L144.09,-0.00 " class="st6" />
        </g>
    </g>
</svg>
