<svg viewBox="0 0 716 373" xmlns="http://www.w3.org/2000/svg" height="373" xmlns:xlink="http://www.w3.org/1999/xlink" width="716">
    <style type="text/css"><![CDATA[
.st1 {fill:#000000;font-family:宋体;font-size:10pt}
]]></style>
    <defs>
        <linearGradient id="lg1" y1="0%" x1="0%" x2="0%" y2="100%">
            <stop offset="0" stop-color="#fcfcfc"/>
            <stop offset="0.5" stop-color="#f5f5f5"/>
            <stop offset="1" stop-color="#eeeeee"/>
        </linearGradient>
    </defs>
    <g transform="translate(-18.84,-18.73)">
        <g id="shape1" transform="translate(217.32,160.63)">
            <path fill-opacity="0.5" d="M2,50.2C2,23.6,23.6,2,50.2,2C76.8,2,98.4,23.6,98.4,50.2C98.4,76.8,76.8,98.4,50.2,98.4C23.6,98.4,2,76.8,2,50.2z" fill="#bebebe"/>
            <path d="M0,48.2C-0,21.6,21.6,-0,48.2,-0C74.8,-0,96.4,21.6,96.4,48.2C96.4,74.8,74.8,96.4,48.2,96.4C21.6,96.4,0,74.8,0,48.2z" stroke="#545454" fill="url(#lg1)"/>
            <text class="st1">
                <tspan x="9.2" y="52.7">主控机子系统</tspan>
            </text>
        </g>
        <g id="shape2" transform="translate(19.84,270.24)">
            <path fill-opacity="0.5" d="M94.6,49.2L94.6,2L2,2L2,49.2L94.6,49.2z" fill="#bebebe"/>
            <path d="M92.6,47.2L92.6,0L0,0L0,47.2L92.6,47.2z" stroke="#545454" fill="url(#lg1)"/>
            <text class="st1">
                <tspan x="33.3" y="28.1">后台</tspan>
            </text>
        </g>
        <g id="shape3" transform="translate(19.84,123.78)">
            <path fill-opacity="0.5" d="M94.6,49.2L94.6,2L2,2L2,49.2L94.6,49.2z" fill="#bebebe"/>
            <path d="M92.6,47.2L92.6,0L0,0L0,47.2L92.6,47.2z" stroke="#545454" fill="url(#lg1)"/>
            <text class="st1">
                <tspan x="33.3" y="28.1">前台</tspan>
            </text>
        </g>
        <g id="shape4" transform="translate(219.21,341.1)">
            <path stroke-width="3" stroke="#545454" d="M92.6,0L0,0M0,47.2L92.6,47.2" fill="none"/>
            <text class="st1">
                <tspan x="33.3" y="28.1">日志</tspan>
            </text>
        </g>
        <g id="shape5" transform="translate(219.21,21.73)">
            <path stroke-width="3" stroke="#545454" d="M92.6,0L0,0M0,47.2L92.6,47.2" fill="none"/>
            <text class="st1">
                <tspan x="20.3" y="28.1">房客信息</tspan>
            </text>
        </g>
        <g id="shape6" transform="matrix(0.97,0.26,-0.26,0.97,112.4,147.4)">
            <path stroke="#545454" d="M0,-0L109,-0" fill="none"/>
            <path stroke-width="1" stroke-linecap="round" stroke="#545454" d="M119.4,-0L109,-2.6L109,2.6L119.4,-0" fill="#545454"/>
            <text class="st1" transform="matrix(0.97,-0.26,0.26,0.97,2.1,15.6)">
                <tspan x="33.7" y="4.5">房客信息</tspan>
            </text>
        </g>
        <g id="shape7" transform="matrix(-0.9,0.43,-0.43,-0.9,227.7,236.1)">
            <path stroke="#545454" d="M0,-0L117.2,-0" fill="none"/>
            <path stroke-width="1" stroke-linecap="round" stroke="#545454" d="M127.6,-0L117.2,-2.6L117.2,2.6L127.6,-0" fill="#545454"/>
            <text class="st1" transform="matrix(-0.9,-0.43,0.43,-0.9,121.5,27.4)">
                <tspan x="50.8" y="4.5">日志</tspan>
            </text>
        </g>
        <g id="shape8" transform="matrix(0.89,-0.45,0.45,0.89,112.4,279.5)">
            <path stroke="#545454" d="M0,-0L116.4,-0" fill="none"/>
            <path stroke-width="1" stroke-linecap="round" stroke="#545454" d="M126.8,-0L116.4,-2.6L116.4,2.6L126.8,-0" fill="#545454"/>
            <text class="st1" transform="matrix(0.89,0.45,-0.45,0.89,6.7,-28.3)">
                <tspan x="37.4" y="4.5">查询请求</tspan>
            </text>
        </g>
        <g id="shape9" transform="matrix(0.9,-0.44,0.44,0.9,113.4,305.1)">
            <path stroke="#545454" d="M0,-0L125.2,-0" fill="none"/>
            <path stroke-width="1" stroke-linecap="round" stroke="#545454" d="M135.6,-0L125.2,-2.6L125.2,2.6L135.6,-0" fill="#545454"/>
            <text class="st1" transform="matrix(0.9,0.44,-0.44,0.9,6.9,-29.8)">
                <tspan x="41.8" y="4.5">配置信息</tspan>
            </text>
        </g>
        <g id="shape10" transform="matrix(0,1,-1,0,265.5,257)">
            <path stroke="#545454" d="M0,-0L73.7,-0" fill="none"/>
            <path stroke-width="1" stroke-linecap="round" stroke="#545454" d="M84.1,-0L73.7,-2.6L73.7,2.6L84.1,-0" fill="#545454"/>
        </g>
        <g id="shape11" transform="matrix(0,1,-1,0,265.5,69)">
            <path stroke="#545454" d="M0,-0L81.3,-0" fill="none"/>
            <path stroke-width="1" stroke-linecap="round" stroke="#545454" d="M91.7,-0L81.3,-2.6L81.3,2.6L91.7,-0" fill="#545454"/>
        </g>
        <g id="shape12" transform="matrix(0,-1,1,0,265.5,160.6)">
            <path stroke="#545454" d="M0,-0L81.3,-0" fill="none"/>
            <path stroke-width="1" stroke-linecap="round" stroke="#545454" d="M91.7,-0L81.3,-2.6L81.3,2.6L91.7,-0" fill="#545454"/>
        </g>
        <g id="shape13" transform="matrix(0,-1,1,0,265.5,341.1)">
            <path stroke="#545454" d="M0,-0L73.7,-0" fill="none"/>
            <path stroke-width="1" stroke-linecap="round" stroke="#545454" d="M84.1,-0L73.7,-2.6L73.7,2.6L84.1,-0" fill="#545454"/>
        </g>
        <g id="shape14" transform="translate(633.07,126.61)">
            <path fill-opacity="0.5" d="M94.6,49.2L94.6,2L2,2L2,49.2L94.6,49.2z" fill="#bebebe"/>
            <path d="M92.6,47.2L92.6,0L0,0L0,47.2L92.6,47.2z" stroke="#545454" fill="url(#lg1)"/>
            <text class="st1">
                <tspan x="14.3" y="28.1">温度传感器</tspan>
            </text>
        </g>
        <g id="shape15" transform="matrix(-0.97,0.25,-0.25,-0.97,633.1,150.2)">
            <path stroke="#545454" d="M0,-0L112.2,-0" fill="none"/>
            <path stroke-width="1" stroke-linecap="round" stroke="#545454" d="M122.6,-0L112.2,-2.6L112.2,2.6L122.6,-0" fill="#545454"/>
            <text class="st1" transform="matrix(-0.97,-0.25,0.25,-0.97,120.6,15.6)">
                <tspan x="35.3" y="4.5">房间温度</tspan>
            </text>
        </g>
        <g id="shape16" transform="translate(433.7,160.63)">
            <path fill-opacity="0.5" d="M2,50.2C2,23.6,23.6,2,50.2,2C76.8,2,98.4,23.6,98.4,50.2C98.4,76.8,76.8,98.4,50.2,98.4C23.6,98.4,2,76.8,2,50.2z" fill="#bebebe"/>
            <path d="M0,48.2C-0,21.6,21.6,-0,48.2,-0C74.8,-0,96.4,21.6,96.4,48.2C96.4,74.8,74.8,96.4,48.2,96.4C21.6,96.4,0,74.8,0,48.2z" stroke="#545454" fill="url(#lg1)"/>
            <text class="st1">
                <tspan x="9.2" y="52.7">从控机子系统</tspan>
            </text>
        </g>
        <g id="shape17" transform="translate(638.74,268.82)">
            <path fill-opacity="0.5" d="M94.6,49.2L94.6,2L2,2L2,49.2L94.6,49.2z" fill="#bebebe"/>
            <path d="M92.6,47.2L92.6,0L0,0L0,47.2L92.6,47.2z" stroke="#545454" fill="url(#lg1)"/>
            <text class="st1">
                <tspan x="33.3" y="28.1">房客</tspan>
            </text>
        </g>
        <g id="shape18" transform="matrix(-0.9,-0.44,0.44,-0.9,638.7,292.4)">
            <path stroke="#545454" d="M0,-0L121.9,-0" fill="none"/>
            <path stroke-width="1" stroke-linecap="round" stroke="#545454" d="M132.3,-0L121.9,-2.6L121.9,2.6L132.3,-0" fill="#545454"/>
            <text class="st1" transform="matrix(-0.9,0.44,-0.44,-0.9,125.4,-29.3)">
                <tspan x="40.1" y="4.5">登录信息</tspan>
            </text>
        </g>
        <g id="shape19" transform="matrix(-0.9,-0.43,0.43,-0.9,637.8,304.7)">
            <path stroke="#545454" d="M0,-0L125.3,-0" fill="none"/>
            <path stroke-width="1" stroke-linecap="round" stroke="#545454" d="M135.7,-0L125.3,-2.6L125.3,2.6L135.7,-0" fill="#545454"/>
            <text class="st1" transform="matrix(-0.9,0.43,-0.43,-0.9,129,-29.3)">
                <tspan x="41.8" y="4.5">目标状态</tspan>
            </text>
        </g>
        <g id="shape20" transform="matrix(0.9,0.44,-0.44,0.9,527.7,224.4)">
            <path stroke="#545454" d="M0,-0L114.3,-0" fill="none"/>
            <path stroke-width="1" stroke-linecap="round" stroke="#545454" d="M124.7,-0L114.3,-2.6L114.3,2.6L124.7,-0" fill="#545454"/>
            <text class="st1" transform="matrix(0.9,-0.44,0.44,0.9,6.3,27.4)">
                <tspan x="36.3" y="4.5">状态信息</tspan>
            </text>
        </g>
        <g id="shape21" transform="translate(313.7,208.82)">
            <path stroke="#545454" d="M0,-0L109.6,-0" fill="none"/>
            <path stroke-width="1" stroke-linecap="round" stroke="#545454" d="M120,-0L109.6,-2.6L109.6,2.6L120,-0" fill="#545454"/>
            <text class="st1">
                <tspan x="21" y="4.5">计费能耗信息</tspan>
            </text>
        </g>
        <g id="shape22" transform="matrix(-1,0,0,-1,435.6,191.8)">
            <path stroke="#545454" d="M0,-0L114.3,-0" fill="none"/>
            <path stroke-width="1" stroke-linecap="round" stroke="#545454" d="M124.7,-0L114.3,-2.6L114.3,2.6L124.7,-0" fill="#545454"/>
            <text class="st1" transform="matrix(-1,-0,0,-1,124.7,0)">
                <tspan x="23.4" y="4.5">身份认证信息</tspan>
            </text>
        </g>
        <g id="shape23" transform="matrix(-1,0,0,-1,434.6,224.9)">
            <path stroke="#545454" d="M0,-0L114.3,-0" fill="none"/>
            <path stroke-width="1" stroke-linecap="round" stroke="#545454" d="M124.7,-0L114.3,-2.6L114.3,2.6L124.7,-0" fill="#545454"/>
            <text class="st1" transform="matrix(-1,-0,0,-1,124.7,0)">
                <tspan x="36.4" y="4.5">调节请求</tspan>
            </text>
        </g>
        <g id="shape24" transform="matrix(-1,0,0,-1,443.1,239.1)">
            <path stroke="#545454" d="M0,-0L129.4,-0" fill="none"/>
            <path stroke-width="1" stroke-linecap="round" stroke="#545454" d="M139.8,-0L129.4,-2.6L129.4,2.6L139.8,-0" fill="#545454"/>
            <text class="st1" transform="matrix(-1,-0,0,-1,139.8,0)">
                <tspan x="43.9" y="4.5">房间信息</tspan>
            </text>
        </g>
        <g id="shape25" transform="translate(302.36,177.64)">
            <path stroke="#545454" d="M0,-0L133.2,-0" fill="none"/>
            <path stroke-width="1" stroke-linecap="round" stroke="#545454" d="M143.6,-0L133.2,-2.6L133.2,2.6L143.6,-0" fill="#545454"/>
            <text class="st1">
                <tspan x="32.8" y="4.5">空调运行状态</tspan>
            </text>
        </g>
        <g id="shape26" transform="translate(435.59,21.73)">
            <path stroke-width="3" stroke="#545454" d="M92.6,0L0,0M0,47.2L92.6,47.2" fill="none"/>
            <text class="st1">
                <tspan x="7.3" y="20.6">从控机配置信</tspan>
                <tspan x="40.3" y="35.6">息</tspan>
            </text>
        </g>
        <g id="shape27" transform="matrix(0,-1,1,0,481.9,160.6)">
            <path stroke="#545454" d="M0,-0L81.3,-0" fill="none"/>
            <path stroke-width="1" stroke-linecap="round" stroke="#545454" d="M91.7,-0L81.3,-2.6L81.3,2.6L91.7,-0" fill="#545454"/>
        </g>
        <g id="shape28" transform="matrix(0,1,-1,0,481.9,69)">
            <path stroke="#545454" d="M0,-0L81.3,-0" fill="none"/>
            <path stroke-width="1" stroke-linecap="round" stroke="#545454" d="M91.7,-0L81.3,-2.6L81.3,2.6L91.7,-0" fill="#545454"/>
        </g>
        <g id="shape29" transform="translate(361.89,323.39)">
            <path stroke-width="3" stroke="#545454" d="M92.6,0L0,0M0,47.2L92.6,47.2" fill="none"/>
            <text class="st1">
                <tspan x="7.3" y="20.6">主控机配置信</tspan>
                <tspan x="40.3" y="35.6">息</tspan>
            </text>
        </g>
        <g id="shape30" transform="matrix(0.83,0.56,-0.56,0.83,295.7,246.6)">
            <path stroke="#545454" d="M0,-0L125.8,-0" fill="none"/>
            <path stroke-width="1" stroke-linecap="round" stroke="#545454" d="M136.2,-0L125.8,-2.6L125.8,2.6L136.2,-0" fill="#545454"/>
        </g>
        <g id="shape31" transform="matrix(-0.83,-0.56,0.56,-0.83,408.2,323.4)">
            <path stroke="#545454" d="M0,-0L125.8,-0" fill="none"/>
            <path stroke-width="1" stroke-linecap="round" stroke="#545454" d="M136.2,-0L125.8,-2.6L125.8,2.6L136.2,-0" fill="#545454"/>
        </g>
        <g id="shape32" transform="matrix(-0.91,0.42,-0.42,-0.91,246,255)">
            <path stroke="#545454" d="M0,-0L139.4,-0" fill="none"/>
            <path stroke-width="1" stroke-linecap="round" stroke="#545454" d="M149.8,-0L139.4,-2.6L139.4,2.6L149.8,-0" fill="#545454"/>
            <text class="st1" transform="matrix(-0.91,-0.42,0.42,-0.91,142.9,31.4)">
                <tspan x="22.9" y="4.5">从控机及房间信息</tspan>
            </text>
        </g>
    </g>
</svg>
