<?xml version="1.0" encoding="utf-8" standalone="no" ?>
<!--Generated by Edraw, SVGExporter, v1.0-->
<svg version="1.1" xmlns="http://www.w3.org/2000/svg" xmlns:xlink="http://www.w3.org/1999/xlink" xmlns:ed="http://www.edrawsoft.com/schema/svg" ed:version="version 5" viewBox="0 0 994.5 606.5">
    <style type="text/css">
        <![CDATA[
            .st1 {fill:url(#grad1);stroke:#545454; stroke-width:1; stroke-linejoin:bevel; }
            .st2 {fill:#FFFFFF;}
            .st3 {fill:none;stroke:#545454; stroke-width:3; stroke-linejoin:bevel; }
            .st4 {fill:#FFFFFF;stroke:#545454; stroke-width:3; stroke-linejoin:bevel; }
            .st5 {fill:none;stroke:#545454; stroke-width:1; stroke-linejoin:bevel; marker-end:url(#mk1); }
            .st6 {fill:#FFFFFF;stroke:#545454; stroke-width:1; stroke-linejoin:bevel; marker-end:url(#mk1); }
            .st7 {fill:url(#grad2);stroke:#545454; stroke-width:1; stroke-linejoin:bevel; }
            .st8 {fill:url(#grad3);stroke:#545454; stroke-width:1; stroke-linejoin:bevel; }
        ]]>

    </style>
    <defs id="Gradients">
        <linearGradient id="grad1" gradientUnits="userSpaceOnUse" x1="0.00" y1="0.00" x2="0.00" y2="51.00">
            <stop offset="0.00" stop-color="#FCFCFC" stop-opacity="1.00" />
            <stop offset="0.50" stop-color="#F5F5F5" stop-opacity="1.00" />
            <stop offset="1.00" stop-color="#EEEEEE" stop-opacity="1.00" />
        </linearGradient>
        <linearGradient id="grad2" gradientUnits="userSpaceOnUse" x1="0.00" y1="0.00" x2="0.00" y2="60.00">
            <stop offset="0.00" stop-color="#FCFCFC" stop-opacity="1.00" />
            <stop offset="0.50" stop-color="#F5F5F5" stop-opacity="1.00" />
            <stop offset="1.00" stop-color="#EEEEEE" stop-opacity="1.00" />
        </linearGradient>
        <linearGradient id="grad3" gradientUnits="userSpaceOnUse" x1="0.00" y1="0.00" x2="0.00" y2="61.00">
            <stop offset="0.00" stop-color="#FCFCFC" stop-opacity="1.00" />
            <stop offset="0.50" stop-color="#F5F5F5" stop-opacity="1.00" />
            <stop offset="1.00" stop-color="#EEEEEE" stop-opacity="1.00" />
        </linearGradient>
    </defs>
    <defs id="Markers">
        <marker id="mk1" orient="auto" overflow="visible">
            <path d="M-0.00,-0.00 L-13.33,3.33 L-13.33,-3.33 z " style="fill:#545454; stroke:none;" />
        </marker>
    </defs>
    <defs id="Filters" />
    <g>
        <title>图层-1</title>
        <g ed:type="shadow" transform="translate(72,506) translate(-70,-504) translate(21.00,454.00)">
            <path d="M98.00,50.00 L98.00,0.00 L0.00,0.00 L0.00,50.00 L98.00,50.00 z" style="fill:#BEBEBE; fill-opacity:0.501961; stroke:none;" />
        </g>
        <g id="159" transform="translate(21.00,454.00)">
            <path d="M98.00,50.00 L98.00,0.00 L0.00,0.00 L0.00,50.00 L98.00,50.00 z" class="st1" />
            <text>
                <tspan x="35.00" y="29.50" style="font-family:宋体;fill:#000000;font-size:10pt;">后台</tspan>
            </text>
        </g>
        <g ed:type="shadow" transform="translate(76.5,178) translate(-74.5,-176) translate(25.50,126.00)">
            <path d="M98.00,50.00 L98.00,0.00 L0.00,0.00 L0.00,50.00 L98.00,50.00 z" style="fill:#BEBEBE; fill-opacity:0.501961; stroke:none;" />
        </g>
        <g id="160" transform="translate(25.50,126.00)">
            <path d="M98.00,50.00 L98.00,0.00 L0.00,0.00 L0.00,50.00 L98.00,50.00 z" class="st1" />
            <text>
                <tspan x="35.50" y="29.50" style="font-family:宋体;fill:#000000;font-size:10pt;">前台</tspan>
            </text>
        </g>
        <g id="161" transform="translate(24.00,203.00)">
            <path d="M98.00,0.00 L0.00,0.00 " class="st3" />
            <path d="M0.00,50.00 L98.00,50.00 " class="st3" />
            <text>
                <tspan x="35.00" y="29.50" style="font-family:宋体;fill:#000000;font-size:10pt;">日志</tspan>
            </text>
        </g>
        <g id="162" transform="translate(200.00,23.00)">
            <path d="M98.00,0.00 L0.00,0.00 " class="st3" />
            <path d="M0.00,50.00 L98.00,50.00 " class="st3" />
            <text>
                <tspan x="22.00" y="29.50" style="font-family:宋体;fill:#000000;font-size:10pt;">房客信息</tspan>
            </text>
        </g>
        <g id="163" transform="translate(123.50,151.25) rotate(0.30,48.00,0.00)">
            <path d="M-0.00,-0.00 L96.00,-0.00 " class="st5" />
            <text transform="translate(19.50,-8.50) rotate(-0.30,28.50,8.50)">
                <tspan x="1.00" y="12.75" style="font-family:宋体;fill:#000000;font-size:10pt;">房客信息</tspan>
            </text>
        </g>
        <g id="164" transform="translate(7.50,410.00) rotate(90.00,44.00,0.00)">
            <path d="M-0.00,-0.00 L88.00,-0.00 " class="st5" />
            <text transform="translate(28.50,-8.50) rotate(-90.00,15.50,8.50)">
                <tspan x="1.00" y="13.00" style="font-family:宋体;fill:#000000;font-size:10pt;">日志</tspan>
            </text>
        </g>
        <g id="165" transform="translate(48.75,412.25) rotate(-90.00,42.75,0.00)">
            <path d="M-0.00,-0.00 L85.50,-0.00 " class="st5" />
            <text transform="translate(14.25,-8.50) rotate(90.00,28.50,8.50)">
                <tspan x="1.00" y="12.75" style="font-family:宋体;fill:#000000;font-size:10pt;">查询请求</tspan>
            </text>
        </g>
        <g id="166" transform="translate(119.00,479.00)">
            <path d="M-0.00,-0.00 L121.75,-0.00 " class="st5" />
            <text transform="translate(32.38,-8.50)">
                <tspan x="0.63" y="13.00" style="font-family:宋体;fill:#000000;font-size:10pt;">配置信息</tspan>
            </text>
        </g>
        <g id="168" transform="translate(224.75,97.25) rotate(90.00,24.25,0.00)">
            <path d="M-0.00,-0.00 L48.50,-0.00 " class="st5" />
        </g>
        <g id="169" transform="translate(224.75,97.25) rotate(-90.00,24.25,0.00)">
            <path d="M-0.00,-0.00 L48.50,-0.00 " class="st5" />
        </g>
        <g ed:type="shadow" transform="translate(924.5,118) translate(-922.5,-116) translate(873.50,66.00)">
            <path d="M98.00,50.00 L98.00,0.00 L0.00,0.00 L0.00,50.00 L98.00,50.00 z" style="fill:#BEBEBE; fill-opacity:0.501961; stroke:none;" />
        </g>
        <g id="171" transform="translate(873.50,66.00)">
            <path d="M98.00,50.00 L98.00,0.00 L0.00,0.00 L0.00,50.00 L98.00,50.00 z" class="st1" />
            <text>
                <tspan x="16.50" y="29.50" style="font-family:宋体;fill:#000000;font-size:10pt;">温度传感器</tspan>
            </text>
        </g>
        <g id="172" transform="translate(748.25,91.00) rotate(180.00,62.63,0.00)">
            <path d="M-0.00,-0.00 L125.25,-0.00 " class="st5" />
            <text transform="translate(34.13,-8.50) rotate(-180.00,28.50,8.50)">
                <tspan x="0.63" y="13.00" style="font-family:宋体;fill:#000000;font-size:10pt;">房间温度</tspan>
            </text>
        </g>
        <g ed:type="shadow" transform="translate(924.5,298.5) translate(-922.5,-296.5) translate(873.50,246.50)">
            <path d="M98.00,50.00 L98.00,0.00 L0.00,0.00 L0.00,50.00 L98.00,50.00 z" style="fill:#BEBEBE; fill-opacity:0.501961; stroke:none;" />
        </g>
        <g id="174" transform="translate(873.50,246.50)">
            <path d="M98.00,50.00 L98.00,0.00 L0.00,0.00 L0.00,50.00 L98.00,50.00 z" class="st1" />
            <text>
                <tspan x="35.50" y="30.00" style="font-family:宋体;fill:#000000;font-size:10pt;">房客</tspan>
            </text>
        </g>
        <g id="175" transform="translate(739.62,212.50) rotate(-151.50,71.26,0.00)">
            <path d="M-0.00,-0.00 L142.52,-0.00 " class="st5" />
            <text transform="translate(42.76,-8.50) rotate(151.50,28.50,8.50)">
                <tspan x="0.63" y="12.50" style="font-family:宋体;fill:#000000;font-size:10pt;">登录信息</tspan>
            </text>
        </g>
        <g id="176" transform="translate(748.25,271.50) rotate(180.00,62.63,0.00)">
            <path d="M-0.00,-0.00 L125.25,-0.00 " class="st5" />
            <text transform="translate(34.13,-8.50) rotate(-180.00,28.50,8.50)">
                <tspan x="0.63" y="12.50" style="font-family:宋体;fill:#000000;font-size:10pt;">目标温度</tspan>
            </text>
        </g>
        <g id="179" transform="translate(570.75,178.50) rotate(180.00,59.25,0.00)">
            <path d="M-0.00,-0.00 L118.50,-0.00 " class="st5" />
            <text transform="translate(17.75,-8.50) rotate(-180.00,41.50,8.50)">
                <tspan x="0.50" y="13.50" style="font-family:宋体;fill:#000000;font-size:10pt;">身份认证信息</tspan>
            </text>
        </g>
        <g id="180" transform="translate(480.84,277.25) rotate(176.84,104.28,0.00)">
            <path d="M-0.00,-0.00 L208.57,-0.00 " class="st5" />
            <text transform="translate(62.78,-8.50) rotate(-176.84,41.50,8.50)">
                <tspan x="1.38" y="12.75" style="font-family:宋体;fill:#000000;font-size:10pt;">温度调节请求</tspan>
            </text>
        </g>
        <g ed:type="shadow" transform="translate(720.75,210) translate(-718.75,-208) translate(689.25,149.00)">
            <path d="M0.00,29.50 A29.50 29.50 0.00 1 1 59.00,29.50 A29.50 29.50 0.00 1 1 0.00,29.50 z" style="fill:#BEBEBE; fill-opacity:0.501961; stroke:none;" />
        </g>
        <g id="183" transform="translate(689.25,149.00)">
            <path d="M0.00,29.50 A29.50 29.50 0.00 1 1 59.00,29.50 A29.50 29.50 0.00 1 1 0.00,29.50 z" class="st7" />
            <text>
                <tspan x="8.75" y="17.50" style="font-family:宋体;fill:#000000;font-size:10pt;">界面房</tspan>
                <tspan x="8.75" y="34.50" style="font-family:宋体;fill:#000000;font-size:10pt;">客身份</tspan>
                <tspan x="15.75" y="51.50" style="font-family:宋体;fill:#000000;font-size:10pt;">认证</tspan>
            </text>
        </g>
        <g ed:type="shadow" transform="translate(720.75,384) translate(-718.75,-382) translate(689.25,323.00)">
            <path d="M0.00,29.50 A29.50 29.50 0.00 1 1 59.00,29.50 A29.50 29.50 0.00 1 1 0.00,29.50 z" style="fill:#BEBEBE; fill-opacity:0.501961; stroke:none;" />
        </g>
        <g id="185" transform="translate(689.25,323.00)">
            <path d="M0.00,29.50 A29.50 29.50 0.00 1 1 59.00,29.50 A29.50 29.50 0.00 1 1 0.00,29.50 z" class="st7" />
            <text>
                <tspan x="8.75" y="25.50" style="font-family:宋体;fill:#000000;font-size:10pt;">界面调</tspan>
                <tspan x="8.75" y="42.50" style="font-family:宋体;fill:#000000;font-size:10pt;">节风速</tspan>
            </text>
        </g>
        <g ed:type="shadow" transform="translate(720.75,303) translate(-718.75,-301) translate(689.25,242.00)">
            <path d="M0.00,29.50 A29.50 29.50 0.00 1 1 59.00,29.50 A29.50 29.50 0.00 1 1 0.00,29.50 z" style="fill:#BEBEBE; fill-opacity:0.501961; stroke:none;" />
        </g>
        <g id="186" transform="translate(689.25,242.00)">
            <path d="M0.00,29.50 A29.50 29.50 0.00 1 1 59.00,29.50 A29.50 29.50 0.00 1 1 0.00,29.50 z" class="st7" />
            <text>
                <tspan x="8.75" y="25.50" style="font-family:宋体;fill:#000000;font-size:10pt;">界面调</tspan>
                <tspan x="8.75" y="42.50" style="font-family:宋体;fill:#000000;font-size:10pt;">节温度</tspan>
            </text>
        </g>
        <g id="189" transform="translate(742.64,324.50) rotate(157.36,72.73,0.00)">
            <path d="M-0.00,-0.00 L145.46,-0.00 " class="st5" />
            <text transform="translate(44.23,-8.50) rotate(-157.36,28.50,8.50)">
                <tspan x="1.13" y="12.50" style="font-family:宋体;fill:#000000;font-size:10pt;">目标风速</tspan>
            </text>
        </g>
        <g id="190" transform="translate(570.75,352.50) rotate(180.00,59.25,0.00)">
            <path d="M-0.00,-0.00 L118.50,-0.00 " class="st5" />
            <text transform="translate(17.75,-8.50) rotate(-180.00,41.50,8.50)">
                <tspan x="0.50" y="12.50" style="font-family:宋体;fill:#000000;font-size:10pt;">风速调节请求</tspan>
            </text>
        </g>
        <g ed:type="shadow" transform="translate(75,377.5) translate(-73,-375.5) translate(43.50,316.50)">
            <path d="M0.00,29.50 A29.50 29.50 0.00 1 1 59.00,29.50 A29.50 29.50 0.00 1 1 0.00,29.50 z" style="fill:#BEBEBE; fill-opacity:0.501961; stroke:none;" />
        </g>
        <g id="191" transform="translate(43.50,316.50)">
            <path d="M0.00,29.50 A29.50 29.50 0.00 1 1 59.00,29.50 A29.50 29.50 0.00 1 1 0.00,29.50 z" class="st7" />
            <text>
                <tspan x="9.50" y="25.00" style="font-family:宋体;fill:#000000;font-size:10pt;">管理日</tspan>
                <tspan x="22.50" y="42.00" style="font-family:宋体;fill:#000000;font-size:10pt;">志</tspan>
            </text>
        </g>
        <g ed:type="shadow" transform="translate(251,183) translate(-249,-181) translate(219.50,122.00)">
            <path d="M0.00,29.50 A29.50 29.50 0.00 1 1 59.00,29.50 A29.50 29.50 0.00 1 1 0.00,29.50 z" style="fill:#BEBEBE; fill-opacity:0.501961; stroke:none;" />
        </g>
        <g id="192" transform="translate(219.50,122.00)">
            <path d="M0.00,29.50 A29.50 29.50 0.00 1 1 59.00,29.50 A29.50 29.50 0.00 1 1 0.00,29.50 z" class="st7" />
            <text>
                <tspan x="9.50" y="25.50" style="font-family:宋体;fill:#000000;font-size:10pt;">管理房</tspan>
                <tspan x="9.50" y="42.50" style="font-family:宋体;fill:#000000;font-size:10pt;">客信息</tspan>
            </text>
        </g>
        <g ed:type="shadow" transform="translate(543.25,210) translate(-541.25,-208) translate(511.75,149.00)">
            <path d="M0.00,29.50 A29.50 29.50 0.00 1 1 59.00,29.50 A29.50 29.50 0.00 1 1 0.00,29.50 z" style="fill:#BEBEBE; fill-opacity:0.501961; stroke:none;" />
        </g>
        <g id="193" transform="translate(511.75,149.00)">
            <path d="M0.00,29.50 A29.50 29.50 0.00 1 1 59.00,29.50 A29.50 29.50 0.00 1 1 0.00,29.50 z" class="st7" />
            <text>
                <tspan x="9.25" y="25.50" style="font-family:宋体;fill:#000000;font-size:10pt;">房客登</tspan>
                <tspan x="9.25" y="42.50" style="font-family:宋体;fill:#000000;font-size:10pt;">录认证</tspan>
            </text>
        </g>
        <g ed:type="shadow" transform="translate(543.25,122.5) translate(-541.25,-120.5) translate(511.75,61.50)">
            <path d="M0.00,29.50 A29.50 29.50 0.00 1 1 59.00,29.50 A29.50 29.50 0.00 1 1 0.00,29.50 z" style="fill:#BEBEBE; fill-opacity:0.501961; stroke:none;" />
        </g>
        <g id="195" transform="translate(511.75,61.50)">
            <path d="M0.00,29.50 A29.50 29.50 0.00 1 1 59.00,29.50 A29.50 29.50 0.00 1 1 0.00,29.50 z" class="st7" />
            <text>
                <tspan x="9.25" y="25.00" style="font-family:宋体;fill:#000000;font-size:10pt;">房间信</tspan>
                <tspan x="9.25" y="42.00" style="font-family:宋体;fill:#000000;font-size:10pt;">息更新</tspan>
            </text>
        </g>
        <g ed:type="shadow" transform="translate(253.5,285) translate(-251.5,-283) translate(222.00,224.00)">
            <path d="M0.00,29.50 A29.50 29.50 0.00 1 1 59.00,29.50 A29.50 29.50 0.00 1 1 0.00,29.50 z" style="fill:#BEBEBE; fill-opacity:0.501961; stroke:none;" />
        </g>
        <g id="196" transform="translate(222.00,224.00)">
            <path d="M0.00,29.50 A29.50 29.50 0.00 1 1 59.00,29.50 A29.50 29.50 0.00 1 1 0.00,29.50 z" class="st7" />
            <text>
                <tspan x="9.00" y="25.50" style="font-family:宋体;fill:#000000;font-size:10pt;">生成日</tspan>
                <tspan x="22.00" y="42.50" style="font-family:宋体;fill:#000000;font-size:10pt;">志</tspan>
            </text>
        </g>
        <g ed:type="shadow" transform="translate(543.25,384) translate(-541.25,-382) translate(511.75,323.00)">
            <path d="M0.00,29.50 A29.50 29.50 0.00 1 1 59.00,29.50 A29.50 29.50 0.00 1 1 0.00,29.50 z" style="fill:#BEBEBE; fill-opacity:0.501961; stroke:none;" />
        </g>
        <g id="197" transform="translate(511.75,323.00)">
            <path d="M0.00,29.50 A29.50 29.50 0.00 1 1 59.00,29.50 A29.50 29.50 0.00 1 1 0.00,29.50 z" class="st7" />
            <text>
                <tspan x="9.25" y="17.50" style="font-family:宋体;fill:#000000;font-size:10pt;">接收风</tspan>
                <tspan x="9.25" y="34.50" style="font-family:宋体;fill:#000000;font-size:10pt;">速调节</tspan>
                <tspan x="16.25" y="51.50" style="font-family:宋体;fill:#000000;font-size:10pt;">信息</tspan>
            </text>
        </g>
        <g ed:type="shadow" transform="translate(453.5,314.5) translate(-451.5,-312.5) translate(422.00,253.50)">
            <path d="M0.00,29.50 A29.50 29.50 0.00 1 1 59.00,29.50 A29.50 29.50 0.00 1 1 0.00,29.50 z" style="fill:#BEBEBE; fill-opacity:0.501961; stroke:none;" />
        </g>
        <g id="198" transform="translate(422.00,253.50)">
            <path d="M0.00,29.50 A29.50 29.50 0.00 1 1 59.00,29.50 A29.50 29.50 0.00 1 1 0.00,29.50 z" class="st7" />
            <text>
                <tspan x="9.00" y="17.00" style="font-family:宋体;fill:#000000;font-size:10pt;">接收温</tspan>
                <tspan x="9.00" y="34.00" style="font-family:宋体;fill:#000000;font-size:10pt;">度调节</tspan>
                <tspan x="16.00" y="51.00" style="font-family:宋体;fill:#000000;font-size:10pt;">信息</tspan>
            </text>
        </g>
        <g id="205" transform="translate(722.19,368.75) rotate(-39.67,113.18,0.00)">
            <path d="M-0.00,-0.00 L226.37,-0.00 " class="st5" />
            <text transform="translate(84.68,-8.50) rotate(39.67,28.50,8.50)">
                <tspan x="1.13" y="13.25" style="font-family:宋体;fill:#000000;font-size:10pt;">状态信息</tspan>
            </text>
        </g>
        <g id="206" transform="translate(505.84,502.00) rotate(-16.83,108.79,0.00)">
            <path d="M-0.00,-0.00 L217.57,-0.00 " class="st5" />
            <text transform="translate(80.29,-8.50) rotate(16.83,28.50,8.50)">
                <tspan x="0.88" y="13.00" style="font-family:宋体;fill:#000000;font-size:10pt;">费用能耗</tspan>
            </text>
        </g>
        <g id="208" transform="translate(450.59,426.25) rotate(7.07,119.79,0.00)">
            <path d="M-0.00,-0.00 L239.57,-0.00 " class="st5" />
            <text transform="translate(78.29,-8.50) rotate(-7.07,41.50,8.50)">
                <tspan x="1.12" y="12.75" style="font-family:宋体;fill:#000000;font-size:10pt;">空调运行状态</tspan>
            </text>
        </g>
        <g ed:type="shadow" transform="translate(720.75,472.5) translate(-718.75,-470.5) translate(689.25,411.50)">
            <path d="M0.00,29.50 A29.50 29.50 0.00 1 1 59.00,29.50 A29.50 29.50 0.00 1 1 0.00,29.50 z" style="fill:#BEBEBE; fill-opacity:0.501961; stroke:none;" />
        </g>
        <g id="209" transform="translate(689.25,411.50)">
            <path d="M0.00,29.50 A29.50 29.50 0.00 1 1 59.00,29.50 A29.50 29.50 0.00 1 1 0.00,29.50 z" class="st7" />
            <text>
                <tspan x="8.75" y="25.00" style="font-family:宋体;fill:#000000;font-size:10pt;">显示信</tspan>
                <tspan x="21.75" y="42.00" style="font-family:宋体;fill:#000000;font-size:10pt;">息</tspan>
            </text>
        </g>
        <g ed:type="shadow" transform="translate(272.5,510.75) translate(-270.5,-508.75) translate(240.75,449.25)">
            <path d="M0.00,29.75 A29.75 29.75 0.00 1 1 59.50,29.75 A29.75 29.75 0.00 1 1 0.00,29.75 z" style="fill:#BEBEBE; fill-opacity:0.501961; stroke:none;" />
        </g>
        <g id="210" transform="translate(240.75,449.25)">
            <path d="M0.00,29.75 A29.75 29.75 0.00 1 1 59.50,29.75 A29.75 29.75 0.00 1 1 0.00,29.75 z" class="st8" />
            <text>
                <tspan x="9.25" y="25.25" style="font-family:宋体;fill:#000000;font-size:10pt;">配置空</tspan>
                <tspan x="9.25" y="42.25" style="font-family:宋体;fill:#000000;font-size:10pt;">调参数</tspan>
            </text>
        </g>
        <g ed:type="shadow" transform="translate(483,565) translate(-481,-563) translate(451.50,504.00)">
            <path d="M0.00,29.50 A29.50 29.50 0.00 1 1 59.00,29.50 A29.50 29.50 0.00 1 1 0.00,29.50 z" style="fill:#BEBEBE; fill-opacity:0.501961; stroke:none;" />
        </g>
        <g id="211" transform="translate(451.50,504.00)">
            <path d="M0.00,29.50 A29.50 29.50 0.00 1 1 59.00,29.50 A29.50 29.50 0.00 1 1 0.00,29.50 z" class="st7" />
            <text>
                <tspan x="9.50" y="25.50" style="font-family:宋体;fill:#000000;font-size:10pt;">能耗费</tspan>
                <tspan x="9.50" y="42.50" style="font-family:宋体;fill:#000000;font-size:10pt;">用计算</tspan>
            </text>
        </g>
        <g id="212" transform="translate(267.57,521.13) rotate(26.63,27.60,0.00)">
            <path d="M-0.00,-0.00 L55.21,-0.00 " class="st5" />
        </g>
        <g ed:type="shadow" transform="translate(424,443) translate(-422,-441) translate(392.50,382.00)">
            <path d="M0.00,29.50 A29.50 29.50 0.00 1 1 59.00,29.50 A29.50 29.50 0.00 1 1 0.00,29.50 z" style="fill:#BEBEBE; fill-opacity:0.501961; stroke:none;" />
        </g>
        <g id="214" transform="translate(392.50,382.00)">
            <path d="M0.00,29.50 A29.50 29.50 0.00 1 1 59.00,29.50 A29.50 29.50 0.00 1 1 0.00,29.50 z" class="st7" />
            <text>
                <tspan x="9.50" y="25.50" style="font-family:宋体;fill:#000000;font-size:10pt;">负载均</tspan>
                <tspan x="22.50" y="42.50" style="font-family:宋体;fill:#000000;font-size:10pt;">衡</tspan>
            </text>
        </g>
        <g id="215" transform="translate(446.06,230.75) rotate(153.12,50.31,0.00)">
            <path d="M-0.00,-0.00 L100.62,-0.00 " class="st5" />
            <text transform="translate(21.81,-8.50) rotate(-153.12,28.50,8.50)">
                <tspan x="1.13" y="13.25" style="font-family:宋体;fill:#000000;font-size:10pt;">使用授权</tspan>
            </text>
        </g>
        <g id="217" transform="translate(483.75,265.50) rotate(90.00,57.50,0.00)">
            <path d="M-0.00,-0.00 L115.00,-0.00 " class="st5" />
            <text transform="translate(29.00,-8.50) rotate(-90.00,28.50,8.50)">
                <tspan x="1.25" y="12.50" style="font-family:宋体;fill:#000000;font-size:10pt;">使用授权</tspan>
            </text>
        </g>
        <g id="218" transform="translate(235.49,157.50) rotate(152.93,146.13,0.00)">
            <path d="M-0.00,-0.00 L292.27,-0.00 " class="st5" />
            <text transform="translate(117.63,-8.50) rotate(-152.93,28.50,8.50)">
                <tspan x="0.88" y="13.50" style="font-family:宋体;fill:#000000;font-size:10pt;">房间信息</tspan>
            </text>
        </g>
        <g id="219" transform="translate(399.00,347.25) rotate(113.00,37.75,0.00)">
            <path d="M-0.00,-0.00 L75.50,-0.00 " class="st5" />
            <text transform="translate(-16.75,-8.50) rotate(-113.00,54.50,8.50)">
                <tspan x="0.75" y="12.75" style="font-family:宋体;fill:#000000;font-size:10pt;">温度调节请求记录</tspan>
            </text>
        </g>
        <g id="220" transform="translate(444.76,373.75) rotate(144.80,36.87,0.00)">
            <path d="M-0.00,-0.00 L73.73,-0.00 " class="st5" />
            <text transform="translate(-17.63,-8.50) rotate(-144.80,54.50,8.50)">
                <tspan x="0.88" y="13.25" style="font-family:宋体;fill:#000000;font-size:10pt;">风速调节请求记录</tspan>
            </text>
        </g>
        <g id="221" transform="translate(232.70,339.00) rotate(-142.88,92.80,0.00)">
            <path d="M-0.00,-0.00 L185.60,-0.00 " class="st5" />
            <text transform="translate(51.30,-8.50) rotate(142.88,41.50,8.50)">
                <tspan x="1.00" y="13.00" style="font-family:宋体;fill:#000000;font-size:10pt;">空调运行状态</tspan>
            </text>
        </g>
        <g id="222" transform="translate(279.47,268.25) rotate(-168.18,72.03,0.00)">
            <path d="M-0.00,-0.00 L144.05,-0.00 " class="st5" />
            <text transform="translate(17.53,-8.50) rotate(168.18,54.50,8.50)">
                <tspan x="1.00" y="12.75" style="font-family:宋体;fill:#000000;font-size:10pt;">温度调节请求记录</tspan>
            </text>
        </g>
        <g id="223" transform="translate(266.78,309.00) rotate(-164.18,124.72,0.00)">
            <path d="M-0.00,-0.00 L249.45,-0.00 " class="st5" />
            <text transform="translate(70.22,-8.50) rotate(164.18,54.50,8.50)">
                <tspan x="1.00" y="13.00" style="font-family:宋体;fill:#000000;font-size:10pt;">风速调节请求记录</tspan>
            </text>
        </g>
        <g id="224" transform="translate(267.03,125.75) rotate(24.33,128.05,0.00)">
            <path d="M-0.00,-0.00 L256.09,-0.00 " class="st5" />
        </g>
        <g id="225" transform="translate(267.03,125.75) rotate(-155.67,128.05,0.00)">
            <path d="M-0.00,-0.00 L256.09,-0.00 " class="st5" />
        </g>
        <g id="226" transform="translate(41.25,284.75) rotate(90.00,31.75,0.00)">
            <path d="M-0.00,-0.00 L63.50,-0.00 " class="st5" />
        </g>
        <g id="227" transform="translate(102.40,253.25) rotate(-179.76,59.80,0.00)">
            <path d="M-0.00,-0.00 L119.60,-0.00 " class="st5" />
        </g>
        <g id="228" transform="translate(102.40,253.25) rotate(0.24,59.80,0.00)">
            <path d="M-0.00,-0.00 L119.60,-0.00 " class="st5" />
        </g>
        <g id="229" transform="translate(41.25,284.75) rotate(-90.00,31.75,0.00)">
            <path d="M-0.00,-0.00 L63.50,-0.00 " class="st5" />
        </g>
        <g ed:type="shadow" transform="translate(720.75,122.5) translate(-718.75,-120.5) translate(689.25,61.50)">
            <path d="M0.00,29.50 A29.50 29.50 0.00 1 1 59.00,29.50 A29.50 29.50 0.00 1 1 0.00,29.50 z" style="fill:#BEBEBE; fill-opacity:0.501961; stroke:none;" />
        </g>
        <g id="153" transform="translate(689.25,61.50)">
            <path d="M0.00,29.50 A29.50 29.50 0.00 1 1 59.00,29.50 A29.50 29.50 0.00 1 1 0.00,29.50 z" class="st7" />
            <text>
                <tspan x="8.75" y="25.00" style="font-family:宋体;fill:#000000;font-size:10pt;">发送房</tspan>
                <tspan x="8.75" y="42.00" style="font-family:宋体;fill:#000000;font-size:10pt;">间信息</tspan>
            </text>
        </g>
        <g id="154" transform="translate(570.75,91.00) rotate(180.00,59.25,0.00)">
            <path d="M-0.00,-0.00 L118.50,-0.00 " class="st5" />
            <text transform="translate(30.75,-8.50) rotate(-180.00,28.50,8.50)">
                <tspan x="0.50" y="13.00" style="font-family:宋体;fill:#000000;font-size:10pt;">房间信息</tspan>
            </text>
        </g>
        <g id="158" transform="translate(300.25,533.50)">
            <path d="M98.00,0.00 L0.00,0.00 " class="st3" />
            <path d="M0.00,50.00 L98.00,50.00 " class="st3" />
            <text>
                <tspan x="8.75" y="21.00" style="font-family:宋体;fill:#000000;font-size:10pt;">主控机配置信</tspan>
                <tspan x="41.75" y="38.00" style="font-family:宋体;fill:#000000;font-size:10pt;">息</tspan>
            </text>
        </g>
        <g id="173" transform="translate(326.78,487.25) rotate(-51.82,58.84,0.00)">
            <path d="M-0.00,-0.00 L117.68,-0.00 " class="st5" />
        </g>
        <g id="177" transform="translate(873.50,151.00)">
            <path d="M98.00,0.00 L0.00,0.00 " class="st3" />
            <path d="M0.00,50.00 L98.00,50.00 " class="st3" />
            <text>
                <tspan x="9.50" y="20.50" style="font-family:宋体;fill:#000000;font-size:10pt;">从控机配置信</tspan>
                <tspan x="42.50" y="37.50" style="font-family:宋体;fill:#000000;font-size:10pt;">息</tspan>
            </text>
        </g>
        <g id="178" transform="translate(717.43,135.75) rotate(-170.08,88.50,0.00)">
            <path d="M-0.00,-0.00 L177.00,-0.00 " class="st5" />
        </g>
        <g id="181" transform="translate(718.68,204.50) rotate(177.70,87.25,0.00)">
            <path d="M-0.00,-0.00 L174.49,-0.00 " class="st5" />
        </g>
        <g id="182" transform="translate(741.39,236.25) rotate(157.97,93.99,0.00)">
            <path d="M-0.00,-0.00 L187.97,-0.00 " class="st5" />
        </g>
        <g id="184" transform="translate(719.92,276.75) rotate(138.99,115.45,0.00)">
            <path d="M-0.00,-0.00 L230.90,-0.00 " class="st5" />
        </g>
        <g id="187" transform="translate(687.08,321.00) rotate(125.98,148.29,0.00)">
            <path d="M-0.00,-0.00 L296.59,-0.00 " class="st5" />
        </g>
        <g id="188" transform="translate(171.78,404.25) rotate(-130.40,169.72,0.00)">
            <path d="M-0.00,-0.00 L339.44,-0.00 " class="st5" />
            <text transform="translate(141.22,-8.50) rotate(130.40,28.50,8.50)">
                <tspan x="1.00" y="12.75" style="font-family:宋体;fill:#000000;font-size:10pt;">费用能耗</tspan>
            </text>
        </g>
        <g id="194" transform="translate(419.99,469.50) rotate(58.98,40.26,0.00)">
            <path d="M-0.00,-0.00 L80.52,-0.00 " class="st5" />
            <text transform="translate(-1.24,-8.50) rotate(-58.98,41.50,8.50)">
                <tspan x="1.25" y="12.50" style="font-family:宋体;fill:#000000;font-size:10pt;">空调运行状态</tspan>
            </text>
        </g>
    </g>
</svg>
