<svg xmlns:xlink="http://www.w3.org/1999/xlink" height="536" xmlns="http://www.w3.org/2000/svg" viewBox="0 0 903 536" width="903">
    <style type="text/css"><![CDATA[
.st2 {fill:#000000;font-family:Arial;font-size:10pt}
.st1 {fill:#000000;font-family:宋体;font-size:10pt}
]]></style>
    <defs>
        <linearGradient id="lg1" y1="0%" y2="100%" x1="0%" x2="0%">
            <stop offset="0" stop-color="#fcfcfc"/>
            <stop offset="0.5" stop-color="#f5f5f5"/>
            <stop offset="1" stop-color="#eeeeee"/>
        </linearGradient>
    </defs>
    <g transform="translate(-18.84,-18.73)">
        <g id="shape1" transform="translate(19.84,428.98)">
            <path d="M94.6,49.2L94.6,2L2,2L2,49.2L94.6,49.2z" fill="#bebebe" fill-opacity="0.5"/>
            <path d="M92.6,47.2L92.6,0L0,0L0,47.2L92.6,47.2z" stroke="#545454" fill="url(#lg1)"/>
            <text class="st1">
                <tspan x="33.3" y="28.1">后台</tspan>
            </text>
        </g>
        <g id="shape2" transform="translate(24.09,119.06)">
            <path d="M94.6,49.2L94.6,2L2,2L2,49.2L94.6,49.2z" fill="#bebebe" fill-opacity="0.5"/>
            <path d="M92.6,47.2L92.6,0L0,0L0,47.2L92.6,47.2z" stroke="#545454" fill="url(#lg1)"/>
            <text class="st1">
                <tspan x="33.3" y="28.1">前台</tspan>
            </text>
        </g>
        <g id="shape3" transform="translate(22.68,191.81)">
            <path stroke="#545454" d="M92.6,0L0,0M0,47.2L92.6,47.2" stroke-width="3" fill="none"/>
            <text class="st1">
                <tspan x="33.3" y="28.1">日志</tspan>
            </text>
        </g>
        <g id="shape4" transform="translate(188.98,21.73)">
            <path stroke="#545454" d="M92.6,0L0,0M0,47.2L92.6,47.2" stroke-width="3" fill="none"/>
            <text class="st1">
                <tspan x="20.3" y="28.1">房客信息</tspan>
            </text>
        </g>
        <g id="shape5" transform="matrix(1,0.01,-0.01,1,116.7,142.7)">
            <path stroke="#545454" d="M0,-0L80.3,-0" fill="none"/>
            <path stroke-linecap="round" stroke="#545454" d="M90.7,-0L80.3,-2.6L80.3,2.6L90.7,-0" stroke-width="1" fill="#545454"/>
            <text class="st1" transform="matrix(1,-0.01,0.01,1,0,0.2)">
                <tspan x="19.4" y="4.5">房客信息</tspan>
            </text>
        </g>
        <g id="shape6" transform="matrix(0,1,-1,0,48.7,345.8)">
            <path stroke="#545454" d="M0,-0L72.7,-0" fill="none"/>
            <path stroke-linecap="round" stroke="#545454" d="M83.1,-0L72.7,-2.6L72.7,2.6L83.1,-0" stroke-width="1" fill="#545454"/>
            <text class="st1" transform="matrix(0,-1,1,0,41.6,41.6)">
                <tspan x="28.6" y="4.5">日志</tspan>
            </text>
        </g>
        <g id="shape7" transform="matrix(0,-1,1,0,86.5,429.9)">
            <path stroke="#545454" d="M0,-0L70.4,-0" fill="none"/>
            <path stroke-linecap="round" stroke="#545454" d="M80.8,-0L70.4,-2.6L70.4,2.6L80.8,-0" stroke-width="1" fill="#545454"/>
            <text class="st1" transform="matrix(0,1,-1,0,40.4,-40.4)">
                <tspan x="14.4" y="4.5">查询请求</tspan>
            </text>
        </g>
        <g id="shape8" transform="translate(112.44,452.6)">
            <path stroke="#545454" d="M0,-0L104.6,-0" fill="none"/>
            <path stroke-linecap="round" stroke="#545454" d="M115,-0L104.6,-2.6L104.6,2.6L115,-0" stroke-width="1" fill="#545454"/>
            <text class="st1">
                <tspan x="31.5" y="4.5">配置信息</tspan>
            </text>
        </g>
        <g id="shape9" transform="matrix(0,1,-1,0,235.3,69)">
            <path stroke="#545454" d="M0,-0L35.4,-0" fill="none"/>
            <path stroke-linecap="round" stroke="#545454" d="M45.8,-0L35.4,-2.6L35.4,2.6L45.8,-0" stroke-width="1" fill="#545454"/>
        </g>
        <g id="shape10" transform="matrix(-0,-1,1,-0,235.3,114.8)">
            <path stroke="#545454" d="M0,-0L35.4,-0" fill="none"/>
            <path stroke-linecap="round" stroke="#545454" d="M45.8,-0L35.4,-2.6L35.4,2.6L45.8,-0" stroke-width="1" fill="#545454"/>
        </g>
        <g id="shape11" transform="translate(825.35,62.36)">
            <path d="M94.6,49.2L94.6,2L2,2L2,49.2L94.6,49.2z" fill="#bebebe" fill-opacity="0.5"/>
            <path d="M92.6,47.2L92.6,0L0,0L0,47.2L92.6,47.2z" stroke="#545454" fill="url(#lg1)"/>
            <text class="st1">
                <tspan x="14.3" y="28.1">温度传感器</tspan>
            </text>
        </g>
        <g id="shape12" transform="matrix(-1,0,0,-1,825.4,86)">
            <path stroke="#545454" d="M0,-0L107.9,-0" fill="none"/>
            <path stroke-linecap="round" stroke="#545454" d="M118.3,-0L107.9,-2.6L107.9,2.6L118.3,-0" stroke-width="1" fill="#545454"/>
            <text class="st1" transform="matrix(-1,-0,0,-1,118.3,0)">
                <tspan x="33.2" y="4.5">房间温度</tspan>
            </text>
        </g>
        <g id="shape13" transform="translate(825.35,232.91)">
            <path d="M94.6,49.2L94.6,2L2,2L2,49.2L94.6,49.2z" fill="#bebebe" fill-opacity="0.5"/>
            <path d="M92.6,47.2L92.6,0L0,0L0,47.2L92.6,47.2z" stroke="#545454" fill="url(#lg1)"/>
            <text class="st1">
                <tspan x="33.3" y="28.1">房客</tspan>
            </text>
        </g>
        <g id="shape14" transform="matrix(-0.88,-0.48,0.48,-0.88,825.4,232.9)">
            <path stroke="#545454" d="M0,-0L124.3,-0" fill="none"/>
            <path stroke-linecap="round" stroke="#545454" d="M134.7,-0L124.3,-2.6L124.3,2.6L134.7,-0" stroke-width="1" fill="#545454"/>
            <text class="st1" transform="matrix(-0.88,0.48,-0.48,-0.88,126.5,-32.1)">
                <tspan x="41.3" y="4.5">登录信息</tspan>
            </text>
        </g>
        <g id="shape15" transform="matrix(-0.99,0.14,-0.14,-0.99,825.4,256.5)">
            <path stroke="#545454" d="M0,-0L109.2,-0" fill="none"/>
            <path stroke-linecap="round" stroke="#545454" d="M119.6,-0L109.2,-2.6L109.2,2.6L119.6,-0" stroke-width="1" fill="#545454"/>
            <text class="st1" transform="matrix(-0.99,-0.14,0.14,-0.99,119,8.7)">
                <tspan x="14.3" y="4.5">目标温度、风速</tspan>
            </text>
        </g>
        <g id="shape16" transform="matrix(-1,0,0,-1,651.3,168.7)">
            <path stroke="#545454" d="M0,-0L101.6,-0" fill="none"/>
            <path stroke-linecap="round" stroke="#545454" d="M112,-0L101.6,-2.6L101.6,2.6L112,-0" stroke-width="1" fill="#545454"/>
            <text class="st1" transform="matrix(-1,-0,0,-1,112,0)">
                <tspan x="17" y="4.5">身份认证信息</tspan>
            </text>
        </g>
        <g id="shape17" transform="matrix(-1,0,0,-1,651.3,273.9)">
            <path stroke="#545454" d="M0,-0L154.6,-0" fill="none"/>
            <path stroke-linecap="round" stroke="#545454" d="M165,-0L154.6,-2.6L154.6,2.6L165,-0" stroke-width="1" fill="#545454"/>
            <text class="st1" transform="matrix(-1,-0,0,-1,165,0)">
                <tspan x="56.5" y="4.5">调节请求</tspan>
            </text>
        </g>
        <g id="shape18" transform="translate(651.26,140.79)">
            <path d="M2,29.9C2,14.5,14.5,2,29.9,2C45.3,2,57.7,14.5,57.7,29.9C57.7,45.3,45.3,57.7,29.9,57.7C14.5,57.7,2,45.3,2,29.9z" fill="#bebebe" fill-opacity="0.5"/>
            <path d="M0,27.9C-0,12.5,12.5,-0,27.9,-0C43.3,-0,55.7,12.5,55.7,27.9C55.7,43.3,43.3,55.7,27.9,55.7C12.5,55.7,0,43.3,0,27.9z" stroke="#545454" fill="url(#lg1)"/>
            <text class="st1">
                <tspan x="8.4" y="17.4">界面房</tspan>
                <tspan x="8.4" y="32.4">客身份</tspan>
                <tspan x="15.4" y="47.4">认证</tspan>
            </text>
        </g>
        <g id="shape19" transform="translate(651.26,246)">
            <path d="M2,29.9C2,14.5,14.5,2,29.9,2C45.3,2,57.7,14.5,57.7,29.9C57.7,45.3,45.3,57.7,29.9,57.7C14.5,57.7,2,45.3,2,29.9z" fill="#bebebe" fill-opacity="0.5"/>
            <path d="M0,27.9C-0,12.5,12.5,-0,27.9,-0C43.3,-0,55.7,12.5,55.7,27.9C55.7,43.3,43.3,55.7,27.9,55.7C12.5,55.7,0,43.3,0,27.9z" stroke="#545454" fill="url(#lg1)"/>
            <text class="st1">
                <tspan x="8.4" y="24.9">界面调</tspan>
                <tspan x="21.4" y="39.9">节</tspan>
            </text>
        </g>
        <g id="shape20" transform="translate(41.1,299.06)">
            <path d="M2,29.9C2,14.5,14.5,2,29.9,2C45.3,2,57.7,14.5,57.7,29.9C57.7,45.3,45.3,57.7,29.9,57.7C14.5,57.7,2,45.3,2,29.9z" fill="#bebebe" fill-opacity="0.5"/>
            <path d="M0,27.9C-0,12.5,12.5,-0,27.9,-0C43.3,-0,55.7,12.5,55.7,27.9C55.7,43.3,43.3,55.7,27.9,55.7C12.5,55.7,0,43.3,0,27.9z" stroke="#545454" fill="url(#lg1)"/>
            <text class="st1">
                <tspan x="8.4" y="24.9">管理日</tspan>
                <tspan x="21.4" y="39.9">志</tspan>
            </text>
        </g>
        <g id="shape21" transform="translate(207.4,115.28)">
            <path d="M2,29.9C2,14.5,14.5,2,29.9,2C45.3,2,57.7,14.5,57.7,29.9C57.7,45.3,45.3,57.7,29.9,57.7C14.5,57.7,2,45.3,2,29.9z" fill="#bebebe" fill-opacity="0.5"/>
            <path d="M0,27.9C-0,12.5,12.5,-0,27.9,-0C43.3,-0,55.7,12.5,55.7,27.9C55.7,43.3,43.3,55.7,27.9,55.7C12.5,55.7,0,43.3,0,27.9z" stroke="#545454" fill="url(#lg1)"/>
            <text class="st1">
                <tspan x="8.4" y="24.9">管理房</tspan>
                <tspan x="8.4" y="39.9">客信息</tspan>
            </text>
        </g>
        <g id="shape22" transform="translate(483.54,140.79)">
            <path d="M2,29.9C2,14.5,14.5,2,29.9,2C45.3,2,57.7,14.5,57.7,29.9C57.7,45.3,45.3,57.7,29.9,57.7C14.5,57.7,2,45.3,2,29.9z" fill="#bebebe" fill-opacity="0.5"/>
            <path d="M0,27.9C-0,12.5,12.5,-0,27.9,-0C43.3,-0,55.7,12.5,55.7,27.9C55.7,43.3,43.3,55.7,27.9,55.7C12.5,55.7,0,43.3,0,27.9z" stroke="#545454" fill="url(#lg1)"/>
            <text class="st1">
                <tspan x="8.4" y="24.9">房客登</tspan>
                <tspan x="8.4" y="39.9">录认证</tspan>
            </text>
        </g>
        <g id="shape23" transform="translate(483.54,58.11)">
            <path d="M2,29.9C2,14.5,14.5,2,29.9,2C45.3,2,57.7,14.5,57.7,29.9C57.7,45.3,45.3,57.7,29.9,57.7C14.5,57.7,2,45.3,2,29.9z" fill="#bebebe" fill-opacity="0.5"/>
            <path d="M0,27.9C-0,12.5,12.5,-0,27.9,-0C43.3,-0,55.7,12.5,55.7,27.9C55.7,43.3,43.3,55.7,27.9,55.7C12.5,55.7,0,43.3,0,27.9z" stroke="#545454" fill="url(#lg1)"/>
            <text class="st1">
                <tspan x="8.4" y="24.9">房间信</tspan>
                <tspan x="8.4" y="39.9">息更新</tspan>
            </text>
        </g>
        <g id="shape24" transform="translate(207.4,232.91)">
            <path d="M2,29.9C2,14.5,14.5,2,29.9,2C45.3,2,57.7,14.5,57.7,29.9C57.7,45.3,45.3,57.7,29.9,57.7C14.5,57.7,2,45.3,2,29.9z" fill="#bebebe" fill-opacity="0.5"/>
            <path d="M0,27.9C-0,12.5,12.5,-0,27.9,-0C43.3,-0,55.7,12.5,55.7,27.9C55.7,43.3,43.3,55.7,27.9,55.7C12.5,55.7,0,43.3,0,27.9z" stroke="#545454" fill="url(#lg1)"/>
            <text class="st1">
                <tspan x="8.4" y="24.9">生成日</tspan>
                <tspan x="21.4" y="39.9">志</tspan>
            </text>
        </g>
        <g id="shape25" transform="translate(430.51,246)">
            <path d="M2,29.9C2,14.5,14.5,2,29.9,2C45.3,2,57.7,14.5,57.7,29.9C57.7,45.3,45.3,57.7,29.9,57.7C14.5,57.7,2,45.3,2,29.9z" fill="#bebebe" fill-opacity="0.5"/>
            <path d="M0,27.9C-0,12.5,12.5,-0,27.9,-0C43.3,-0,55.7,12.5,55.7,27.9C55.7,43.3,43.3,55.7,27.9,55.7C12.5,55.7,0,43.3,0,27.9z" stroke="#545454" fill="url(#lg1)"/>
            <text class="st1">
                <tspan x="8.4" y="17.4">接收温</tspan>
                <tspan x="8.4" y="32.4">度调节</tspan>
                <tspan x="15.4" y="47.4">信息</tspan>
            </text>
        </g>
        <g id="shape26" transform="matrix(0.83,-0.55,0.55,0.83,707,388.8)">
            <path stroke="#545454" d="M0,-0L186.9,-0" fill="none"/>
            <path stroke-linecap="round" stroke="#545454" d="M197.3,-0L186.9,-2.6L186.9,2.6L197.3,-0" stroke-width="1" fill="#545454"/>
            <text class="st1" transform="matrix(0.83,0.55,-0.55,0.83,16.3,-54.3)">
                <tspan x="72.6" y="4.5">状态信息</tspan>
            </text>
        </g>
        <g id="shape27" transform="matrix(0.91,-0.41,0.41,0.91,482.4,504.1)">
            <path stroke="#545454" d="M0,-0L204.9,-0" fill="none"/>
            <path stroke-linecap="round" stroke="#545454" d="M215.3,-0L204.9,-2.6L204.9,2.6L215.3,-0" stroke-width="1" fill="#545454"/>
            <text class="st1" transform="matrix(0.91,0.41,-0.41,0.91,9.3,-43.7)">
                <tspan x="81.7" y="4.5">费用能耗</tspan>
            </text>
        </g>
        <g id="shape28" transform="translate(426.61,388.82)">
            <path stroke="#545454" d="M0,-0L214.2,-0" fill="none"/>
            <path stroke-linecap="round" stroke="#545454" d="M224.6,-0L214.2,-2.6L214.2,2.6L224.6,-0" stroke-width="1" fill="#545454"/>
            <text class="st1">
                <tspan x="73.3" y="4.5">空调运行状态</tspan>
            </text>
        </g>
        <g id="shape29" transform="translate(651.26,360.94)">
            <path d="M2,29.9C2,14.5,14.5,2,29.9,2C45.3,2,57.7,14.5,57.7,29.9C57.7,45.3,45.3,57.7,29.9,57.7C14.5,57.7,2,45.3,2,29.9z" fill="#bebebe" fill-opacity="0.5"/>
            <path d="M0,27.9C-0,12.5,12.5,-0,27.9,-0C43.3,-0,55.7,12.5,55.7,27.9C55.7,43.3,43.3,55.7,27.9,55.7C12.5,55.7,0,43.3,0,27.9z" stroke="#545454" fill="url(#lg1)"/>
            <text class="st1">
                <tspan x="8.4" y="24.9">显示信</tspan>
                <tspan x="21.4" y="39.9">息</tspan>
            </text>
        </g>
        <g id="shape30" transform="translate(227.48,424.49)">
            <path d="M2,30.1C2,14.6,14.6,2,30.1,2C45.6,2,58.2,14.6,58.2,30.1C58.2,45.6,45.6,58.2,30.1,58.2C14.6,58.2,2,45.6,2,30.1z" fill="#bebebe" fill-opacity="0.5"/>
            <path d="M0,28.1C-0,12.6,12.6,-0,28.1,-0C43.6,-0,56.2,12.6,56.2,28.1C56.2,43.6,43.6,56.2,28.1,56.2C12.6,56.2,0,43.6,0,28.1z" stroke="#545454" fill="url(#lg1)"/>
            <text class="st1">
                <tspan x="9.1" y="25.1">配置空</tspan>
                <tspan x="9.1" y="40.1">调参数</tspan>
            </text>
        </g>
        <g id="shape31" transform="translate(426.61,476.22)">
            <path d="M2,29.9C2,14.5,14.5,2,29.9,2C45.3,2,57.7,14.5,57.7,29.9C57.7,45.3,45.3,57.7,29.9,57.7C14.5,57.7,2,45.3,2,29.9z" fill="#bebebe" fill-opacity="0.5"/>
            <path d="M0,27.9C-0,12.5,12.5,-0,27.9,-0C43.3,-0,55.7,12.5,55.7,27.9C55.7,43.3,43.3,55.7,27.9,55.7C12.5,55.7,0,43.3,0,27.9z" stroke="#545454" fill="url(#lg1)"/>
            <text class="st1">
                <tspan x="8.4" y="24.9">能耗费</tspan>
                <tspan x="8.4" y="39.9">用计算</tspan>
            </text>
        </g>
        <g id="shape32" transform="matrix(0.89,0.45,-0.45,0.89,255.6,480.7)">
            <path stroke="#545454" d="M0,-0L41.8,-0" fill="none"/>
            <path stroke-linecap="round" stroke="#545454" d="M52.2,-0L41.8,-2.6L41.8,2.6L52.2,-0" stroke-width="1" fill="#545454"/>
        </g>
        <g id="shape33" transform="translate(370.87,360.94)">
            <path d="M2,29.9C2,14.5,14.5,2,29.9,2C45.3,2,57.7,14.5,57.7,29.9C57.7,45.3,45.3,57.7,29.9,57.7C14.5,57.7,2,45.3,2,29.9z" fill="#bebebe" fill-opacity="0.5"/>
            <path d="M0,27.9C-0,12.5,12.5,-0,27.9,-0C43.3,-0,55.7,12.5,55.7,27.9C55.7,43.3,43.3,55.7,27.9,55.7C12.5,55.7,0,43.3,0,27.9z" stroke="#545454" fill="url(#lg1)"/>
            <text class="st1">
                <tspan x="8.4" y="24.9">负载均</tspan>
                <tspan x="21.4" y="39.9">衡</tspan>
            </text>
        </g>
        <g id="shape34" transform="matrix(-0.73,0.68,-0.68,-0.73,511.4,196.5)">
            <path stroke="#545454" d="M0,-0L62.1,-0" fill="none"/>
            <path stroke-linecap="round" stroke="#545454" d="M72.5,-0L62.1,-2.6L62.1,2.6L72.5,-0" stroke-width="1" fill="#545454"/>
            <text class="st1" transform="matrix(-0.73,-0.68,0.68,-0.73,62.8,24.7)">
                <tspan x="10.3" y="4.5">使用授权</tspan>
            </text>
        </g>
        <g id="shape35" transform="matrix(-0.71,0.7,-0.7,-0.71,458.4,301.7)">
            <path stroke="#545454" d="M0,-0L73.6,-0" fill="none"/>
            <path stroke-linecap="round" stroke="#545454" d="M84,-0L73.6,-2.6L73.6,2.6L84,-0" stroke-width="1" fill="#545454"/>
            <text class="st1" transform="matrix(-0.71,-0.7,0.7,-0.71,71.8,29.6)">
                <tspan x="3" y="4.5">调节请求记录</tspan>
            </text>
        </g>
        <g id="shape36" transform="matrix(-0.71,-0.7,0.7,-0.71,377.5,373.2)">
            <path stroke="#545454" d="M0,-0L150,-0" fill="none"/>
            <path stroke-linecap="round" stroke="#545454" d="M160.4,-0L150,-2.6L150,2.6L160.4,-0" stroke-width="1" fill="#545454"/>
            <text class="st1" transform="matrix(-0.71,0.7,-0.7,-0.71,137.3,-56.2)">
                <tspan x="41.2" y="4.5">空调运行状态</tspan>
            </text>
        </g>
        <g id="shape37" transform="matrix(0.91,0.41,-0.41,0.91,263.1,69)">
            <path stroke="#545454" d="M0,-0L231.6,-0" fill="none"/>
            <path stroke-linecap="round" stroke="#545454" d="M242,-0L231.6,-2.6L231.6,2.6L242,-0" stroke-width="1" fill="#545454"/>
        </g>
        <g id="shape38" transform="matrix(-0.91,-0.41,0.41,-0.91,483.5,168.7)">
            <path stroke="#545454" d="M0,-0L231.6,-0" fill="none"/>
            <path stroke-linecap="round" stroke="#545454" d="M242,-0L231.6,-2.6L231.6,2.6L242,-0" stroke-width="1" fill="#545454"/>
        </g>
        <g id="shape39" transform="matrix(0,1,-1,0,69,239.1)">
            <path stroke="#545454" d="M0,-0L49.6,-0" fill="none"/>
            <path stroke-linecap="round" stroke="#545454" d="M60,-0L49.6,-2.6L49.6,2.6L60,-0" stroke-width="1" fill="#545454"/>
        </g>
        <g id="shape40" transform="matrix(-0.98,-0.19,0.19,-0.98,207.4,260.8)">
            <path stroke="#545454" d="M0,-0L102.4,-0" fill="none"/>
            <path stroke-linecap="round" stroke="#545454" d="M112.8,-0L102.4,-2.6L102.4,2.6L112.8,-0" stroke-width="1" fill="#545454"/>
        </g>
        <g id="shape41" transform="matrix(0.98,0.19,-0.19,0.98,96.8,239.1)">
            <path stroke="#545454" d="M0,-0L102.4,-0" fill="none"/>
            <path stroke-linecap="round" stroke="#545454" d="M112.8,-0L102.4,-2.6L102.4,2.6L112.8,-0" stroke-width="1" fill="#545454"/>
        </g>
        <g id="shape42" transform="matrix(0,-1,1,0,69,299.1)">
            <path stroke="#545454" d="M0,-0L49.6,-0" fill="none"/>
            <path stroke-linecap="round" stroke="#545454" d="M60,-0L49.6,-2.6L49.6,2.6L60,-0" stroke-width="1" fill="#545454"/>
        </g>
        <g id="shape43" transform="translate(651.26,58.11)">
            <path d="M2,29.9C2,14.5,14.5,2,29.9,2C45.3,2,57.7,14.5,57.7,29.9C57.7,45.3,45.3,57.7,29.9,57.7C14.5,57.7,2,45.3,2,29.9z" fill="#bebebe" fill-opacity="0.5"/>
            <path d="M0,27.9C-0,12.5,12.5,-0,27.9,-0C43.3,-0,55.7,12.5,55.7,27.9C55.7,43.3,43.3,55.7,27.9,55.7C12.5,55.7,0,43.3,0,27.9z" stroke="#545454" fill="url(#lg1)"/>
            <text class="st1">
                <tspan x="8.4" y="24.9">发送房</tspan>
                <tspan x="8.4" y="39.9">间信息</tspan>
            </text>
        </g>
        <g id="shape44" transform="matrix(-1,0,0,-1,651.3,86)">
            <path stroke="#545454" d="M0,-0L101.6,-0" fill="none"/>
            <path stroke-linecap="round" stroke="#545454" d="M112,-0L101.6,-2.6L101.6,2.6L112,-0" stroke-width="1" fill="#545454"/>
            <text class="st1" transform="matrix(-1,-0,0,-1,112,0)">
                <tspan x="30" y="4.5">房间信息</tspan>
            </text>
        </g>
        <g id="shape45" transform="translate(283.7,504.09)">
            <path stroke="#545454" d="M92.6,0L0,0M0,47.2L92.6,47.2" stroke-width="3" fill="none"/>
            <text class="st1">
                <tspan x="7.3" y="20.6">主控机配置信</tspan>
                <tspan x="40.3" y="35.6">息</tspan>
            </text>
        </g>
        <g id="shape46" transform="matrix(0.62,-0.79,0.79,0.62,330,504.1)">
            <path stroke="#545454" d="M0,-0L100.8,-0" fill="none"/>
            <path stroke-linecap="round" stroke="#545454" d="M111.2,-0L100.8,-2.6L100.8,2.6L111.2,-0" stroke-width="1" fill="#545454"/>
        </g>
        <g id="shape47" transform="translate(825.35,142.68)">
            <path stroke="#545454" d="M92.6,0L0,0M0,47.2L92.6,47.2" stroke-width="3" fill="none"/>
            <text class="st1">
                <tspan x="7.3" y="20.6">从控机配置信</tspan>
                <tspan x="40.3" y="35.6">息</tspan>
            </text>
        </g>
        <g id="shape48" transform="matrix(-0.99,-0.17,0.17,-0.99,843.9,142.7)">
            <path stroke="#545454" d="M0,-0L156.8,-0" fill="none"/>
            <path stroke-linecap="round" stroke="#545454" d="M167.2,-0L156.8,-2.6L156.8,2.6L167.2,-0" stroke-width="1" fill="#545454"/>
        </g>
        <g id="shape49" transform="matrix(-1,0.04,-0.04,-1,843.9,189.9)">
            <path stroke="#545454" d="M0,-0L154.5,-0" fill="none"/>
            <path stroke-linecap="round" stroke="#545454" d="M164.9,-0L154.5,-2.6L154.5,2.6L164.9,-0" stroke-width="1" fill="#545454"/>
        </g>
        <g id="shape50" transform="matrix(-0.89,0.45,-0.45,-0.89,871.7,189.9)">
            <path stroke="#545454" d="M0,-0L174.4,-0" fill="none"/>
            <path stroke-linecap="round" stroke="#545454" d="M184.8,-0L174.4,-2.6L174.4,2.6L184.8,-0" stroke-width="1" fill="#545454"/>
        </g>
        <g id="shape51" transform="matrix(-0.64,0.77,-0.77,-0.64,871.7,189.9)">
            <path stroke="#545454" d="M0,-0L247.8,-0" fill="none"/>
            <path stroke-linecap="round" stroke="#545454" d="M258.2,-0L247.8,-2.6L247.8,2.6L258.2,-0" stroke-width="1" fill="#545454"/>
        </g>
        <g id="shape52" transform="matrix(-0.66,-0.75,0.75,-0.66,426.6,504.1)">
            <path stroke="#545454" d="M0,-0L277.7,-0" fill="none"/>
            <path stroke-linecap="round" stroke="#545454" d="M288.1,-0L277.7,-2.6L277.7,2.6L288.1,-0" stroke-width="1" fill="#545454"/>
            <text class="st1" transform="matrix(-0.66,0.75,-0.75,-0.66,239.7,-107.7)">
                <tspan x="118.1" y="4.5">费用能耗</tspan>
            </text>
        </g>
        <g id="shape53" transform="matrix(0.52,0.86,-0.86,0.52,415.3,411)">
            <path stroke="#545454" d="M0,-0L65.7,-0" fill="none"/>
            <path stroke-linecap="round" stroke="#545454" d="M76.1,-0L65.7,-2.6L65.7,2.6L76.1,-0" stroke-width="1" fill="#545454"/>
            <text class="st1" transform="matrix(0.52,-0.86,0.86,0.52,18.4,32.6)">
                <tspan x="-1" y="4.5">空调运行状态</tspan>
            </text>
        </g>
        <g id="shape54" transform="translate(151.78,321.78)">
            <path d="M2,30.1C2,14.6,14.6,2,30.1,2C45.6,2,58.2,14.6,58.2,30.1C58.2,45.6,45.6,58.2,30.1,58.2C14.6,58.2,2,45.6,2,30.1z" fill="#bebebe" fill-opacity="0.5"/>
            <path d="M0,28.1C0,12.6,12.6,0,28.1,0C43.6,0,56.2,12.6,56.2,28.1C56.2,43.6,43.6,56.2,28.1,56.2C12.6,56.2,-0,43.6,0,28.1z" stroke="#545454" fill="url(#lg1)"/>
            <text class="st1">
                <tspan x="9.1" y="25.1">查看实</tspan>
                <tspan x="9.1" y="40.1">时信息</tspan>
            </text>
        </g>
        <g id="shape55" transform="matrix(-0.67,0.74,-0.74,-0.67,179.9,378)">
            <path stroke="#545454" d="M0,-0L90.2,-0" fill="none"/>
            <path stroke-linecap="round" stroke="#545454" d="M100.6,-0L90.2,-2.6L90.2,2.6L100.6,-0" stroke-width="1" fill="#545454"/>
            <text class="st1" transform="matrix(-0.67,-0.74,0.74,-0.67,84,37.3)">
                <tspan x="-1.7" y="4.5">从控机及房间信息</tspan>
            </text>
        </g>
        <g id="shape56" transform="matrix(-0.97,-0.23,0.23,-0.97,370.9,388.8)">
            <path stroke="#545454" d="M0,-0L157.1,-0" fill="none"/>
            <path stroke-linecap="round" stroke="#545454" d="M167.5,-0L157.1,-2.6L157.1,2.6L167.5,-0" stroke-width="1" fill="#545454"/>
            <text class="st1" transform="matrix(-0.97,0.23,-0.23,-0.97,165.2,-19.5)">
                <tspan x="31.7" y="4.5">从控机及房间信息</tspan>
            </text>
        </g>
        <g id="shape57" transform="matrix(-0.29,0.96,-0.96,-0.29,483.5,86)">
            <path stroke="#828282" d="M0,0C67.6,67.3,235.1,60.6,283.9,4.8" fill="none"/>
            <path stroke-linecap="round" stroke="#828282" d="M281.7,2.8L287.7,0L286.4,6.6L281.7,2.8" stroke-width="1" fill="#828282"/>
        </g>
        <g id="shape58" transform="translate(359,203)">
            <text class="st2">
                <tspan x="7" y="21.5">房间信息</tspan>
            </text>
        </g>
        <g id="shape59" transform="matrix(-0.97,0.25,-0.25,-0.97,483.5,168.7)">
            <path stroke="#545454" d="M0,-0L246,-0" fill="none"/>
            <path stroke-linecap="round" stroke="#545454" d="M256.4,-0L246,-2.6L246,2.6L256.4,-0" stroke-width="1" fill="#545454"/>
            <text class="st1" transform="matrix(-0.97,-0.25,0.25,-0.97,252.4,32.1)">
                <tspan x="95.7" y="4.5">从控机开机</tspan>
            </text>
        </g>
    </g>
</svg>
