<?xml version="1.0" encoding="utf-8" standalone="no" ?>
<!--Generated by Edraw, SVGExporter, v1.0-->
<svg version="1.1" xmlns="http://www.w3.org/2000/svg" xmlns:xlink="http://www.w3.org/1999/xlink" xmlns:ed="http://www.edrawsoft.com/schema/svg" ed:version="version 5" viewBox="0 0 1188 840">
    <style type="text/css">
        <![CDATA[
            .st1 {fill:url(#grad1);stroke:#545454; stroke-width:1; stroke-linejoin:bevel; }
            .st2 {fill:#FFFFFF;}
            .st3 {fill:none;stroke:#545454; stroke-width:3; stroke-linejoin:bevel; }
            .st4 {fill:#FFFFFF;stroke:#545454; stroke-width:3; stroke-linejoin:bevel; }
            .st5 {fill:none;stroke:#545454; stroke-width:1; stroke-linejoin:bevel; marker-end:url(#mk1); }
            .st6 {fill:#FFFFFF;stroke:#545454; stroke-width:1; stroke-linejoin:bevel; marker-end:url(#mk1); }
            .st7 {fill:url(#grad2);stroke:#545454; stroke-width:1; stroke-linejoin:bevel; }
            .st8 {fill:url(#grad3);stroke:#545454; stroke-width:1; stroke-linejoin:bevel; }
        ]]>

    </style>
    <defs id="Gradients">
        <linearGradient id="grad1" gradientUnits="userSpaceOnUse" x1="0.00" y1="0.00" x2="0.00" y2="51.00">
            <stop offset="0.00" stop-color="#FCFCFC" stop-opacity="1.00" />
            <stop offset="0.50" stop-color="#F5F5F5" stop-opacity="1.00" />
            <stop offset="1.00" stop-color="#EEEEEE" stop-opacity="1.00" />
        </linearGradient>
        <linearGradient id="grad2" gradientUnits="userSpaceOnUse" x1="0.00" y1="0.00" x2="0.00" y2="60.00">
            <stop offset="0.00" stop-color="#FCFCFC" stop-opacity="1.00" />
            <stop offset="0.50" stop-color="#F5F5F5" stop-opacity="1.00" />
            <stop offset="1.00" stop-color="#EEEEEE" stop-opacity="1.00" />
        </linearGradient>
        <linearGradient id="grad3" gradientUnits="userSpaceOnUse" x1="0.00" y1="0.00" x2="0.00" y2="61.00">
            <stop offset="0.00" stop-color="#FCFCFC" stop-opacity="1.00" />
            <stop offset="0.50" stop-color="#F5F5F5" stop-opacity="1.00" />
            <stop offset="1.00" stop-color="#EEEEEE" stop-opacity="1.00" />
        </linearGradient>
    </defs>
    <defs id="Markers">
        <marker id="mk1" orient="auto" overflow="visible">
            <path d="M-0.00,-0.00 L-13.33,3.33 L-13.33,-3.33 z " style="fill:#545454; stroke:none;" />
        </marker>
    </defs>
    <defs id="Filters" />
    <g>
        <title>图层-1</title>
        <g ed:type="shadow" transform="translate(180.5,683) translate(-178.5,-681) translate(129.50,631.00)">
            <path d="M98.00,50.00 L98.00,0.00 L0.00,0.00 L0.00,50.00 L98.00,50.00 z" style="fill:#BEBEBE; fill-opacity:0.501961; stroke:none;" />
        </g>
        <g id="159" transform="translate(129.50,631.00)">
            <path d="M98.00,50.00 L98.00,0.00 L0.00,0.00 L0.00,50.00 L98.00,50.00 z" class="st1" />
            <text>
                <tspan x="35.50" y="29.50" style="font-family:宋体;fill:#000000;font-size:10pt;">后台</tspan>
            </text>
        </g>
        <g ed:type="shadow" transform="translate(185,355) translate(-183,-353) translate(134.00,303.00)">
            <path d="M98.00,50.00 L98.00,0.00 L0.00,0.00 L0.00,50.00 L98.00,50.00 z" style="fill:#BEBEBE; fill-opacity:0.501961; stroke:none;" />
        </g>
        <g id="160" transform="translate(134.00,303.00)">
            <path d="M98.00,50.00 L98.00,0.00 L0.00,0.00 L0.00,50.00 L98.00,50.00 z" class="st1" />
            <text>
                <tspan x="35.00" y="29.50" style="font-family:宋体;fill:#000000;font-size:10pt;">前台</tspan>
            </text>
        </g>
        <g id="161" transform="translate(132.50,380.00)">
            <path d="M98.00,0.00 L0.00,0.00 " class="st3" />
            <path d="M0.00,50.00 L98.00,50.00 " class="st3" />
            <text>
                <tspan x="35.50" y="29.50" style="font-family:宋体;fill:#000000;font-size:10pt;">日志</tspan>
            </text>
        </g>
        <g id="162" transform="translate(308.50,200.00)">
            <path d="M98.00,0.00 L0.00,0.00 " class="st3" />
            <path d="M0.00,50.00 L98.00,50.00 " class="st3" />
            <text>
                <tspan x="22.50" y="29.50" style="font-family:宋体;fill:#000000;font-size:10pt;">房客信息</tspan>
            </text>
        </g>
        <g id="163" transform="translate(232.00,328.25) rotate(0.30,48.00,0.00)">
            <path d="M-0.00,-0.00 L96.00,-0.00 " class="st5" />
            <text transform="translate(19.50,-8.50) rotate(-0.30,28.50,8.50)">
                <tspan x="0.50" y="12.75" style="font-family:宋体;fill:#000000;font-size:10pt;">房客信息</tspan>
            </text>
        </g>
        <g id="164" transform="translate(116.00,587.00) rotate(90.00,44.00,0.00)">
            <path d="M-0.00,-0.00 L88.00,-0.00 " class="st5" />
            <text transform="translate(28.50,-8.50) rotate(-90.00,15.50,8.50)">
                <tspan x="0.50" y="13.00" style="font-family:宋体;fill:#000000;font-size:10pt;">日志</tspan>
            </text>
        </g>
        <g id="165" transform="translate(157.25,589.25) rotate(-90.00,42.75,0.00)">
            <path d="M-0.00,-0.00 L85.50,-0.00 " class="st5" />
            <text transform="translate(14.25,-8.50) rotate(90.00,28.50,8.50)">
                <tspan x="0.50" y="12.75" style="font-family:宋体;fill:#000000;font-size:10pt;">查询请求</tspan>
            </text>
        </g>
        <g id="166" transform="translate(227.50,656.00)">
            <path d="M-0.00,-0.00 L121.75,-0.00 " class="st5" />
            <text transform="translate(32.38,-8.50)">
                <tspan x="1.13" y="13.00" style="font-family:宋体;fill:#000000;font-size:10pt;">配置信息</tspan>
            </text>
        </g>
        <g id="168" transform="translate(333.25,274.25) rotate(90.00,24.25,0.00)">
            <path d="M-0.00,-0.00 L48.50,-0.00 " class="st5" />
        </g>
        <g id="169" transform="translate(333.25,274.25) rotate(-90.00,24.25,0.00)">
            <path d="M-0.00,-0.00 L48.50,-0.00 " class="st5" />
        </g>
        <g ed:type="shadow" transform="translate(1033,295) translate(-1031,-293) translate(982.00,243.00)">
            <path d="M98.00,50.00 L98.00,0.00 L0.00,0.00 L0.00,50.00 L98.00,50.00 z" style="fill:#BEBEBE; fill-opacity:0.501961; stroke:none;" />
        </g>
        <g id="171" transform="translate(982.00,243.00)">
            <path d="M98.00,50.00 L98.00,0.00 L0.00,0.00 L0.00,50.00 L98.00,50.00 z" class="st1" />
            <text>
                <tspan x="16.00" y="29.50" style="font-family:宋体;fill:#000000;font-size:10pt;">温度传感器</tspan>
            </text>
        </g>
        <g id="172" transform="translate(856.75,268.00) rotate(180.00,62.63,0.00)">
            <path d="M-0.00,-0.00 L125.25,-0.00 " class="st5" />
            <text transform="translate(34.13,-8.50) rotate(-180.00,28.50,8.50)">
                <tspan x="1.13" y="13.00" style="font-family:宋体;fill:#000000;font-size:10pt;">房间温度</tspan>
            </text>
        </g>
        <g ed:type="shadow" transform="translate(1033,475.5) translate(-1031,-473.5) translate(982.00,423.50)">
            <path d="M98.00,50.00 L98.00,0.00 L0.00,0.00 L0.00,50.00 L98.00,50.00 z" style="fill:#BEBEBE; fill-opacity:0.501961; stroke:none;" />
        </g>
        <g id="174" transform="translate(982.00,423.50)">
            <path d="M98.00,50.00 L98.00,0.00 L0.00,0.00 L0.00,50.00 L98.00,50.00 z" class="st1" />
            <text>
                <tspan x="35.00" y="30.00" style="font-family:宋体;fill:#000000;font-size:10pt;">房客</tspan>
            </text>
        </g>
        <g id="175" transform="translate(848.12,389.50) rotate(-151.50,71.26,0.00)">
            <path d="M-0.00,-0.00 L142.52,-0.00 " class="st5" />
            <text transform="translate(42.76,-8.50) rotate(151.50,28.50,8.50)">
                <tspan x="1.13" y="12.50" style="font-family:宋体;fill:#000000;font-size:10pt;">登录信息</tspan>
            </text>
        </g>
        <g id="176" transform="translate(856.75,448.50) rotate(180.00,62.63,0.00)">
            <path d="M-0.00,-0.00 L125.25,-0.00 " class="st5" />
            <text transform="translate(34.13,-8.50) rotate(-180.00,28.50,8.50)">
                <tspan x="1.13" y="12.50" style="font-family:宋体;fill:#000000;font-size:10pt;">目标温度</tspan>
            </text>
        </g>
        <g id="179" transform="translate(679.25,355.50) rotate(180.00,59.25,0.00)">
            <path d="M-0.00,-0.00 L118.50,-0.00 " class="st5" />
            <text transform="translate(17.75,-8.50) rotate(-180.00,41.50,8.50)">
                <tspan x="1.00" y="12.50" style="font-family:宋体;fill:#000000;font-size:10pt;">身份认证信息</tspan>
            </text>
        </g>
        <g id="180" transform="translate(589.34,454.25) rotate(176.84,104.28,0.00)">
            <path d="M-0.00,-0.00 L208.57,-0.00 " class="st5" />
            <text transform="translate(62.78,-8.50) rotate(-176.84,41.50,8.50)">
                <tspan x="0.88" y="12.75" style="font-family:宋体;fill:#000000;font-size:10pt;">温度调节请求</tspan>
            </text>
        </g>
        <g ed:type="shadow" transform="translate(829.25,387) translate(-827.25,-385) translate(797.75,326.00)">
            <path d="M0.00,29.50 A29.50 29.50 0.00 1 1 59.00,29.50 A29.50 29.50 0.00 1 1 0.00,29.50 z" style="fill:#BEBEBE; fill-opacity:0.501961; stroke:none;" />
        </g>
        <g id="183" transform="translate(797.75,326.00)">
            <path d="M0.00,29.50 A29.50 29.50 0.00 1 1 59.00,29.50 A29.50 29.50 0.00 1 1 0.00,29.50 z" class="st7" />
            <text>
                <tspan x="9.25" y="17.50" style="font-family:宋体;fill:#000000;font-size:10pt;">界面房</tspan>
                <tspan x="9.25" y="34.50" style="font-family:宋体;fill:#000000;font-size:10pt;">客身份</tspan>
                <tspan x="16.25" y="51.50" style="font-family:宋体;fill:#000000;font-size:10pt;">认证</tspan>
            </text>
        </g>
        <g ed:type="shadow" transform="translate(829.25,561) translate(-827.25,-559) translate(797.75,500.00)">
            <path d="M0.00,29.50 A29.50 29.50 0.00 1 1 59.00,29.50 A29.50 29.50 0.00 1 1 0.00,29.50 z" style="fill:#BEBEBE; fill-opacity:0.501961; stroke:none;" />
        </g>
        <g id="185" transform="translate(797.75,500.00)">
            <path d="M0.00,29.50 A29.50 29.50 0.00 1 1 59.00,29.50 A29.50 29.50 0.00 1 1 0.00,29.50 z" class="st7" />
            <text>
                <tspan x="9.25" y="25.50" style="font-family:宋体;fill:#000000;font-size:10pt;">界面调</tspan>
                <tspan x="9.25" y="42.50" style="font-family:宋体;fill:#000000;font-size:10pt;">节风速</tspan>
            </text>
        </g>
        <g ed:type="shadow" transform="translate(829.25,480) translate(-827.25,-478) translate(797.75,419.00)">
            <path d="M0.00,29.50 A29.50 29.50 0.00 1 1 59.00,29.50 A29.50 29.50 0.00 1 1 0.00,29.50 z" style="fill:#BEBEBE; fill-opacity:0.501961; stroke:none;" />
        </g>
        <g id="186" transform="translate(797.75,419.00)">
            <path d="M0.00,29.50 A29.50 29.50 0.00 1 1 59.00,29.50 A29.50 29.50 0.00 1 1 0.00,29.50 z" class="st7" />
            <text>
                <tspan x="9.25" y="25.50" style="font-family:宋体;fill:#000000;font-size:10pt;">界面调</tspan>
                <tspan x="9.25" y="42.50" style="font-family:宋体;fill:#000000;font-size:10pt;">节温度</tspan>
            </text>
        </g>
        <g id="189" transform="translate(851.14,501.50) rotate(157.36,72.73,0.00)">
            <path d="M-0.00,-0.00 L145.46,-0.00 " class="st5" />
            <text transform="translate(44.23,-8.50) rotate(-157.36,28.50,8.50)">
                <tspan x="0.63" y="12.50" style="font-family:宋体;fill:#000000;font-size:10pt;">目标风速</tspan>
            </text>
        </g>
        <g id="190" transform="translate(679.25,529.50) rotate(180.00,59.25,0.00)">
            <path d="M-0.00,-0.00 L118.50,-0.00 " class="st5" />
            <text transform="translate(17.75,-8.50) rotate(-180.00,41.50,8.50)">
                <tspan x="1.00" y="12.50" style="font-family:宋体;fill:#000000;font-size:10pt;">风速调节请求</tspan>
            </text>
        </g>
        <g ed:type="shadow" transform="translate(183.5,554.5) translate(-181.5,-552.5) translate(152.00,493.50)">
            <path d="M0.00,29.50 A29.50 29.50 0.00 1 1 59.00,29.50 A29.50 29.50 0.00 1 1 0.00,29.50 z" style="fill:#BEBEBE; fill-opacity:0.501961; stroke:none;" />
        </g>
        <g id="191" transform="translate(152.00,493.50)">
            <path d="M0.00,29.50 A29.50 29.50 0.00 1 1 59.00,29.50 A29.50 29.50 0.00 1 1 0.00,29.50 z" class="st7" />
            <text>
                <tspan x="9.00" y="25.00" style="font-family:宋体;fill:#000000;font-size:10pt;">管理日</tspan>
                <tspan x="22.00" y="42.00" style="font-family:宋体;fill:#000000;font-size:10pt;">志</tspan>
            </text>
        </g>
        <g ed:type="shadow" transform="translate(359.5,360) translate(-357.5,-358) translate(328.00,299.00)">
            <path d="M0.00,29.50 A29.50 29.50 0.00 1 1 59.00,29.50 A29.50 29.50 0.00 1 1 0.00,29.50 z" style="fill:#BEBEBE; fill-opacity:0.501961; stroke:none;" />
        </g>
        <g id="192" transform="translate(328.00,299.00)">
            <path d="M0.00,29.50 A29.50 29.50 0.00 1 1 59.00,29.50 A29.50 29.50 0.00 1 1 0.00,29.50 z" class="st7" />
            <text>
                <tspan x="9.00" y="25.50" style="font-family:宋体;fill:#000000;font-size:10pt;">管理房</tspan>
                <tspan x="9.00" y="42.50" style="font-family:宋体;fill:#000000;font-size:10pt;">客信息</tspan>
            </text>
        </g>
        <g ed:type="shadow" transform="translate(651.75,387) translate(-649.75,-385) translate(620.25,326.00)">
            <path d="M0.00,29.50 A29.50 29.50 0.00 1 1 59.00,29.50 A29.50 29.50 0.00 1 1 0.00,29.50 z" style="fill:#BEBEBE; fill-opacity:0.501961; stroke:none;" />
        </g>
        <g id="193" transform="translate(620.25,326.00)">
            <path d="M0.00,29.50 A29.50 29.50 0.00 1 1 59.00,29.50 A29.50 29.50 0.00 1 1 0.00,29.50 z" class="st7" />
            <text>
                <tspan x="8.75" y="25.50" style="font-family:宋体;fill:#000000;font-size:10pt;">房客登</tspan>
                <tspan x="8.75" y="42.50" style="font-family:宋体;fill:#000000;font-size:10pt;">录认证</tspan>
            </text>
        </g>
        <g ed:type="shadow" transform="translate(651.75,299.5) translate(-649.75,-297.5) translate(620.25,238.50)">
            <path d="M0.00,29.50 A29.50 29.50 0.00 1 1 59.00,29.50 A29.50 29.50 0.00 1 1 0.00,29.50 z" style="fill:#BEBEBE; fill-opacity:0.501961; stroke:none;" />
        </g>
        <g id="195" transform="translate(620.25,238.50)">
            <path d="M0.00,29.50 A29.50 29.50 0.00 1 1 59.00,29.50 A29.50 29.50 0.00 1 1 0.00,29.50 z" class="st7" />
            <text>
                <tspan x="8.75" y="25.00" style="font-family:宋体;fill:#000000;font-size:10pt;">房间信</tspan>
                <tspan x="8.75" y="42.00" style="font-family:宋体;fill:#000000;font-size:10pt;">息更新</tspan>
            </text>
        </g>
        <g ed:type="shadow" transform="translate(362,462) translate(-360,-460) translate(330.50,401.00)">
            <path d="M0.00,29.50 A29.50 29.50 0.00 1 1 59.00,29.50 A29.50 29.50 0.00 1 1 0.00,29.50 z" style="fill:#BEBEBE; fill-opacity:0.501961; stroke:none;" />
        </g>
        <g id="196" transform="translate(330.50,401.00)">
            <path d="M0.00,29.50 A29.50 29.50 0.00 1 1 59.00,29.50 A29.50 29.50 0.00 1 1 0.00,29.50 z" class="st7" />
            <text>
                <tspan x="9.50" y="25.50" style="font-family:宋体;fill:#000000;font-size:10pt;">生成日</tspan>
                <tspan x="22.50" y="42.50" style="font-family:宋体;fill:#000000;font-size:10pt;">志</tspan>
            </text>
        </g>
        <g ed:type="shadow" transform="translate(651.75,561) translate(-649.75,-559) translate(620.25,500.00)">
            <path d="M0.00,29.50 A29.50 29.50 0.00 1 1 59.00,29.50 A29.50 29.50 0.00 1 1 0.00,29.50 z" style="fill:#BEBEBE; fill-opacity:0.501961; stroke:none;" />
        </g>
        <g id="197" transform="translate(620.25,500.00)">
            <path d="M0.00,29.50 A29.50 29.50 0.00 1 1 59.00,29.50 A29.50 29.50 0.00 1 1 0.00,29.50 z" class="st7" />
            <text>
                <tspan x="8.75" y="17.50" style="font-family:宋体;fill:#000000;font-size:10pt;">接收风</tspan>
                <tspan x="8.75" y="34.50" style="font-family:宋体;fill:#000000;font-size:10pt;">速调节</tspan>
                <tspan x="15.75" y="51.50" style="font-family:宋体;fill:#000000;font-size:10pt;">信息</tspan>
            </text>
        </g>
        <g ed:type="shadow" transform="translate(562,491.5) translate(-560,-489.5) translate(530.50,430.50)">
            <path d="M0.00,29.50 A29.50 29.50 0.00 1 1 59.00,29.50 A29.50 29.50 0.00 1 1 0.00,29.50 z" style="fill:#BEBEBE; fill-opacity:0.501961; stroke:none;" />
        </g>
        <g id="198" transform="translate(530.50,430.50)">
            <path d="M0.00,29.50 A29.50 29.50 0.00 1 1 59.00,29.50 A29.50 29.50 0.00 1 1 0.00,29.50 z" class="st7" />
            <text>
                <tspan x="9.50" y="17.00" style="font-family:宋体;fill:#000000;font-size:10pt;">接收温</tspan>
                <tspan x="9.50" y="34.00" style="font-family:宋体;fill:#000000;font-size:10pt;">度调节</tspan>
                <tspan x="16.50" y="51.00" style="font-family:宋体;fill:#000000;font-size:10pt;">信息</tspan>
            </text>
        </g>
        <g id="205" transform="translate(830.69,545.75) rotate(-39.67,113.18,0.00)">
            <path d="M-0.00,-0.00 L226.37,-0.00 " class="st5" />
            <text transform="translate(84.68,-8.50) rotate(39.67,28.50,8.50)">
                <tspan x="0.63" y="13.25" style="font-family:宋体;fill:#000000;font-size:10pt;">状态信息</tspan>
            </text>
        </g>
        <g id="206" transform="translate(614.34,679.00) rotate(-16.83,108.79,0.00)">
            <path d="M-0.00,-0.00 L217.57,-0.00 " class="st5" />
            <text transform="translate(80.29,-8.50) rotate(16.83,28.50,8.50)">
                <tspan x="1.38" y="13.00" style="font-family:宋体;fill:#000000;font-size:10pt;">费用能耗</tspan>
            </text>
        </g>
        <g id="208" transform="translate(559.09,603.25) rotate(7.07,119.79,0.00)">
            <path d="M-0.00,-0.00 L239.57,-0.00 " class="st5" />
            <text transform="translate(78.29,-8.50) rotate(-7.07,41.50,8.50)">
                <tspan x="0.63" y="12.75" style="font-family:宋体;fill:#000000;font-size:10pt;">空调运行状态</tspan>
            </text>
        </g>
        <g ed:type="shadow" transform="translate(829.25,649.5) translate(-827.25,-647.5) translate(797.75,588.50)">
            <path d="M0.00,29.50 A29.50 29.50 0.00 1 1 59.00,29.50 A29.50 29.50 0.00 1 1 0.00,29.50 z" style="fill:#BEBEBE; fill-opacity:0.501961; stroke:none;" />
        </g>
        <g id="209" transform="translate(797.75,588.50)">
            <path d="M0.00,29.50 A29.50 29.50 0.00 1 1 59.00,29.50 A29.50 29.50 0.00 1 1 0.00,29.50 z" class="st7" />
            <text>
                <tspan x="9.25" y="25.00" style="font-family:宋体;fill:#000000;font-size:10pt;">显示信</tspan>
                <tspan x="22.25" y="42.00" style="font-family:宋体;fill:#000000;font-size:10pt;">息</tspan>
            </text>
        </g>
        <g ed:type="shadow" transform="translate(381,687.75) translate(-379,-685.75) translate(349.25,626.25)">
            <path d="M0.00,29.75 A29.75 29.75 0.00 1 1 59.50,29.75 A29.75 29.75 0.00 1 1 0.00,29.75 z" style="fill:#BEBEBE; fill-opacity:0.501961; stroke:none;" />
        </g>
        <g id="210" transform="translate(349.25,626.25)">
            <path d="M0.00,29.75 A29.75 29.75 0.00 1 1 59.50,29.75 A29.75 29.75 0.00 1 1 0.00,29.75 z" class="st8" />
            <text>
                <tspan x="9.75" y="25.25" style="font-family:宋体;fill:#000000;font-size:10pt;">配置空</tspan>
                <tspan x="9.75" y="42.25" style="font-family:宋体;fill:#000000;font-size:10pt;">调参数</tspan>
            </text>
        </g>
        <g ed:type="shadow" transform="translate(591.5,742) translate(-589.5,-740) translate(560.00,681.00)">
            <path d="M0.00,29.50 A29.50 29.50 0.00 1 1 59.00,29.50 A29.50 29.50 0.00 1 1 0.00,29.50 z" style="fill:#BEBEBE; fill-opacity:0.501961; stroke:none;" />
        </g>
        <g id="211" transform="translate(560.00,681.00)">
            <path d="M0.00,29.50 A29.50 29.50 0.00 1 1 59.00,29.50 A29.50 29.50 0.00 1 1 0.00,29.50 z" class="st7" />
            <text>
                <tspan x="9.00" y="25.50" style="font-family:宋体;fill:#000000;font-size:10pt;">能耗费</tspan>
                <tspan x="9.00" y="42.50" style="font-family:宋体;fill:#000000;font-size:10pt;">用计算</tspan>
            </text>
        </g>
        <g id="212" transform="translate(376.07,698.13) rotate(26.63,27.60,0.00)">
            <path d="M-0.00,-0.00 L55.21,-0.00 " class="st5" />
        </g>
        <g ed:type="shadow" transform="translate(532.5,620) translate(-530.5,-618) translate(501.00,559.00)">
            <path d="M0.00,29.50 A29.50 29.50 0.00 1 1 59.00,29.50 A29.50 29.50 0.00 1 1 0.00,29.50 z" style="fill:#BEBEBE; fill-opacity:0.501961; stroke:none;" />
        </g>
        <g id="214" transform="translate(501.00,559.00)">
            <path d="M0.00,29.50 A29.50 29.50 0.00 1 1 59.00,29.50 A29.50 29.50 0.00 1 1 0.00,29.50 z" class="st7" />
            <text>
                <tspan x="9.00" y="25.50" style="font-family:宋体;fill:#000000;font-size:10pt;">负载均</tspan>
                <tspan x="22.00" y="42.50" style="font-family:宋体;fill:#000000;font-size:10pt;">衡</tspan>
            </text>
        </g>
        <g id="215" transform="translate(554.56,407.75) rotate(153.12,50.31,0.00)">
            <path d="M-0.00,-0.00 L100.63,-0.00 " class="st5" />
            <text transform="translate(21.81,-8.50) rotate(-153.12,28.50,8.50)">
                <tspan x="0.63" y="13.25" style="font-family:宋体;fill:#000000;font-size:10pt;">使用授权</tspan>
            </text>
        </g>
        <g id="217" transform="translate(592.25,442.50) rotate(90.00,57.50,0.00)">
            <path d="M-0.00,-0.00 L115.00,-0.00 " class="st5" />
            <text transform="translate(29.00,-8.50) rotate(-90.00,28.50,8.50)">
                <tspan x="0.75" y="12.50" style="font-family:宋体;fill:#000000;font-size:10pt;">使用授权</tspan>
            </text>
        </g>
        <g id="218" transform="translate(343.99,334.50) rotate(152.93,146.13,0.00)">
            <path d="M-0.00,-0.00 L292.27,-0.00 " class="st5" />
            <text transform="translate(117.63,-8.50) rotate(-152.93,28.50,8.50)">
                <tspan x="1.38" y="12.50" style="font-family:宋体;fill:#000000;font-size:10pt;">房间信息</tspan>
            </text>
        </g>
        <g id="219" transform="translate(507.50,524.25) rotate(113.00,37.75,0.00)">
            <path d="M-0.00,-0.00 L75.50,-0.00 " class="st5" />
            <text transform="translate(-3.75,-8.50) rotate(-113.00,41.50,8.50)">
                <tspan x="1.25" y="12.75" style="font-family:宋体;fill:#000000;font-size:10pt;">温度调节请求</tspan>
            </text>
        </g>
        <g id="220" transform="translate(553.26,550.75) rotate(144.80,36.87,0.00)">
            <path d="M-0.00,-0.00 L73.73,-0.00 " class="st5" />
            <text transform="translate(-4.63,-8.50) rotate(-144.80,41.50,8.50)">
                <tspan x="1.38" y="13.25" style="font-family:宋体;fill:#000000;font-size:10pt;">风速调节请求</tspan>
            </text>
        </g>
        <g id="221" transform="translate(341.20,516.00) rotate(-142.88,92.80,0.00)">
            <path d="M-0.00,-0.00 L185.60,-0.00 " class="st5" />
            <text transform="translate(51.30,-8.50) rotate(142.88,41.50,8.50)">
                <tspan x="0.50" y="13.00" style="font-family:宋体;fill:#000000;font-size:10pt;">空调运行状态</tspan>
            </text>
        </g>
        <g id="222" transform="translate(387.97,445.25) rotate(-168.18,72.03,0.00)">
            <path d="M-0.00,-0.00 L144.05,-0.00 " class="st5" />
            <text transform="translate(30.53,-8.50) rotate(168.18,41.50,8.50)">
                <tspan x="0.50" y="12.75" style="font-family:宋体;fill:#000000;font-size:10pt;">温度调节请求</tspan>
            </text>
        </g>
        <g id="223" transform="translate(375.28,486.00) rotate(-164.18,124.72,0.00)">
            <path d="M-0.00,-0.00 L249.45,-0.00 " class="st5" />
            <text transform="translate(83.22,-8.50) rotate(164.18,41.50,8.50)">
                <tspan x="0.50" y="13.00" style="font-family:宋体;fill:#000000;font-size:10pt;">风速调节请求</tspan>
            </text>
        </g>
        <g id="224" transform="translate(375.53,302.75) rotate(24.33,128.04,0.00)">
            <path d="M-0.00,-0.00 L256.09,-0.00 " class="st5" />
        </g>
        <g id="225" transform="translate(375.53,302.75) rotate(-155.67,128.04,0.00)">
            <path d="M-0.00,-0.00 L256.09,-0.00 " class="st5" />
        </g>
        <g id="226" transform="translate(149.75,461.75) rotate(90.00,31.75,0.00)">
            <path d="M-0.00,-0.00 L63.50,-0.00 " class="st5" />
        </g>
        <g id="227" transform="translate(210.90,430.25) rotate(-179.76,59.80,0.00)">
            <path d="M-0.00,-0.00 L119.60,-0.00 " class="st5" />
        </g>
        <g id="228" transform="translate(210.90,430.25) rotate(0.24,59.80,0.00)">
            <path d="M-0.00,-0.00 L119.60,-0.00 " class="st5" />
        </g>
        <g id="229" transform="translate(149.75,461.75) rotate(-90.00,31.75,0.00)">
            <path d="M-0.00,-0.00 L63.50,-0.00 " class="st5" />
        </g>
        <g ed:type="shadow" transform="translate(829.25,299.5) translate(-827.25,-297.5) translate(797.75,238.50)">
            <path d="M0.00,29.50 A29.50 29.50 0.00 1 1 59.00,29.50 A29.50 29.50 0.00 1 1 0.00,29.50 z" style="fill:#BEBEBE; fill-opacity:0.501961; stroke:none;" />
        </g>
        <g id="153" transform="translate(797.75,238.50)">
            <path d="M0.00,29.50 A29.50 29.50 0.00 1 1 59.00,29.50 A29.50 29.50 0.00 1 1 0.00,29.50 z" class="st7" />
            <text>
                <tspan x="9.25" y="25.00" style="font-family:宋体;fill:#000000;font-size:10pt;">发送房</tspan>
                <tspan x="9.25" y="42.00" style="font-family:宋体;fill:#000000;font-size:10pt;">间信息</tspan>
            </text>
        </g>
        <g id="154" transform="translate(679.25,268.00) rotate(180.00,59.25,0.00)">
            <path d="M-0.00,-0.00 L118.50,-0.00 " class="st5" />
            <text transform="translate(30.75,-8.50) rotate(-180.00,28.50,8.50)">
                <tspan x="1.00" y="13.00" style="font-family:宋体;fill:#000000;font-size:10pt;">房间温度</tspan>
            </text>
        </g>
        <g id="158" transform="translate(408.75,710.50)">
            <path d="M98.00,0.00 L0.00,0.00 " class="st3" />
            <path d="M0.00,50.00 L98.00,50.00 " class="st3" />
            <text>
                <tspan x="9.25" y="21.00" style="font-family:宋体;fill:#000000;font-size:10pt;">主控机配置信</tspan>
                <tspan x="42.25" y="38.00" style="font-family:宋体;fill:#000000;font-size:10pt;">息</tspan>
            </text>
        </g>
        <g id="173" transform="translate(435.28,664.25) rotate(-51.82,58.84,0.00)">
            <path d="M-0.00,-0.00 L117.68,-0.00 " class="st5" />
        </g>
        <g id="177" transform="translate(982.00,328.00)">
            <path d="M98.00,0.00 L0.00,0.00 " class="st3" />
            <path d="M0.00,50.00 L98.00,50.00 " class="st3" />
            <text>
                <tspan x="9.00" y="20.50" style="font-family:宋体;fill:#000000;font-size:10pt;">从控机配置信</tspan>
                <tspan x="42.00" y="37.50" style="font-family:宋体;fill:#000000;font-size:10pt;">息</tspan>
            </text>
        </g>
        <g id="178" transform="translate(825.93,312.75) rotate(-170.08,88.50,0.00)">
            <path d="M-0.00,-0.00 L177.00,-0.00 " class="st5" />
        </g>
        <g id="181" transform="translate(827.18,381.50) rotate(177.70,87.25,0.00)">
            <path d="M-0.00,-0.00 L174.49,-0.00 " class="st5" />
        </g>
        <g id="182" transform="translate(849.89,413.25) rotate(157.97,93.99,0.00)">
            <path d="M-0.00,-0.00 L187.97,-0.00 " class="st5" />
        </g>
        <g id="184" transform="translate(828.42,453.75) rotate(138.99,115.45,0.00)">
            <path d="M-0.00,-0.00 L230.90,-0.00 " class="st5" />
        </g>
        <g id="187" transform="translate(795.58,498.00) rotate(125.98,148.29,0.00)">
            <path d="M-0.00,-0.00 L296.59,-0.00 " class="st5" />
        </g>
        <g id="188" transform="translate(280.28,581.25) rotate(-130.40,169.72,0.00)">
            <path d="M-0.00,-0.00 L339.44,-0.00 " class="st5" />
            <text transform="translate(141.22,-8.50) rotate(130.40,28.50,8.50)">
                <tspan x="0.50" y="12.75" style="font-family:宋体;fill:#000000;font-size:10pt;">费用能耗</tspan>
            </text>
        </g>
        <g id="194" transform="translate(528.49,646.50) rotate(58.98,40.26,0.00)">
            <path d="M-0.00,-0.00 L80.52,-0.00 " class="st5" />
            <text transform="translate(-1.24,-8.50) rotate(-58.98,41.50,8.50)">
                <tspan x="0.75" y="13.50" style="font-family:宋体;fill:#000000;font-size:10pt;">空调运行状态</tspan>
            </text>
        </g>
    </g>
</svg>
