<?xml version="1.0" encoding="utf-8" standalone="no" ?>
<!--Generated by Edraw, SVGExporter, v1.0-->
<svg version="1.1" xmlns="http://www.w3.org/2000/svg" xmlns:xlink="http://www.w3.org/1999/xlink" xmlns:ed="http://www.edrawsoft.com/schema/svg" ed:version="version 5" viewBox="0 0 919.263 564">
    <style type="text/css">
        <![CDATA[
            .st1 {fill:#F1F1F1;stroke:#666666; stroke-width:1; stroke-linejoin:bevel; }
            .st2 {fill:url(#grad1);}
            .st3 {fill:none;stroke:#4F81BD; stroke-width:1; }
            .st4 {fill:url(#grad1);stroke:#4F81BD; stroke-width:1; }
            .st5 {fill:url(#grad2);}
            .st6 {fill:none;stroke:#F79646; stroke-width:1; stroke-dasharray:2,5; }
            .st7 {fill:url(#grad2);stroke:#F79646; stroke-width:1; stroke-dasharray:2,5; }
            .st8 {fill:url(#grad3);}
            .st9 {fill:none;stroke:#545454; stroke-width:1; stroke-linejoin:bevel; marker-start:url(#mk1); }
            .st10 {fill:url(#grad3);stroke:#545454; stroke-width:1; stroke-linejoin:bevel; marker-start:url(#mk1); }
            .st11 {fill:none;stroke:#4F81BD; stroke-width:1; stroke-linejoin:bevel; }
            .st12 {fill:url(#grad3);stroke:#4F81BD; stroke-width:1; stroke-linejoin:bevel; }
        ]]>

    </style>
    <defs id="Gradients">
        <linearGradient id="grad1" gradientUnits="userSpaceOnUse" x1="0.00" y1="0.00" x2="0.00" y2="1.00">
            <stop offset="0.00" stop-color="#FFFFFF" stop-opacity="1.00" />
            <stop offset="1.00" stop-color="#A6BED0" stop-opacity="1.00" />
        </linearGradient>
        <linearGradient id="grad2" gradientUnits="userSpaceOnUse" x1="0.00" y1="0.00" x2="0.00" y2="1.00">
            <stop offset="0.00" stop-color="#EDF0F7" stop-opacity="1.00" />
            <stop offset="1.00" stop-color="#A6BED0" stop-opacity="1.00" />
        </linearGradient>
        <linearGradient id="grad3" gradientUnits="userSpaceOnUse" x1="0.00" y1="0.00" x2="0.00" y2="1.00">
            <stop offset="0.00" stop-color="#EBEBEB" stop-opacity="1.00" />
            <stop offset="0.50" stop-color="#DDDDDD" stop-opacity="1.00" />
            <stop offset="1.00" stop-color="#CFCFCF" stop-opacity="1.00" />
        </linearGradient>
    </defs>
    <defs id="Markers">
        <marker id="mk1" orient="auto" overflow="visible">
            <path d="M-0.00,-0.00 L8.66,-5.00 L17.32,-0.00 L8.66,5.00 z " style="fill:#545454; stroke:none;" />
        </marker>
    </defs>
    <defs id="Filters" />
    <g>
        <title>图层-1</title>
        <g id="155" transform="translate(120.26,335.50)">
            <path d="M117.26,23.00 L117.26,0.00 L0.00,0.00 L0.00,23.00 L117.26,23.00 z" class="st1" />
            <text>
                <tspan x="44.74" y="16.00" style="font-family:宋体;fill:#000000;font-size:10pt;">房客</tspan>
            </text>
        </g>
        <g id="157" transform="translate(21.00,244.00)">
            <path d="M117.26,23.00 L117.26,0.00 L0.00,0.00 L0.00,23.00 L117.26,23.00 z" class="st1" />
            <text>
                <tspan x="12.00" y="16.50" style="font-family:宋体;fill:#000000;font-size:10pt;">从控机使用规则</tspan>
            </text>
        </g>
        <g id="158" transform="translate(621.00,135.50)">
            <path d="M117.26,23.00 L117.26,0.00 L0.00,0.00 L0.00,23.00 L117.26,23.00 z" class="st1" />
            <text>
                <tspan x="38.00" y="16.00" style="font-family:宋体;fill:#000000;font-size:10pt;">主控机</tspan>
            </text>
        </g>
        <g id="159" transform="translate(298.26,21.00)">
            <path d="M117.26,23.00 L117.26,0.00 L0.00,0.00 L0.00,23.00 L117.26,23.00 z" class="st1" />
            <text>
                <tspan x="18.74" y="16.50" style="font-family:宋体;fill:#000000;font-size:10pt;">中央空调系统</tspan>
            </text>
        </g>
        <g id="160" transform="translate(120.26,135.50)">
            <path d="M117.26,23.00 L117.26,0.00 L0.00,0.00 L0.00,23.00 L117.26,23.00 z" class="st1" />
            <text>
                <tspan x="38.74" y="16.00" style="font-family:宋体;fill:#000000;font-size:10pt;">从控机</tspan>
            </text>
        </g>
        <g id="161" transform="translate(90.39,247.00) rotate(90.00,88.50,0.00)">
            <path d="M0.00,-0.00 L177.00,-0.00 " class="st3" />
            <text transform="translate(58.50,0.63)">
                <tspan x="14.74" y="14.50" style="font-family:宋体;fill:#000000;font-size:10pt;">Link</tspan>
            </text>
        </g>
        <g id="162" transform="translate(178.26,255.50)">
            <path d="M0.00,0.00 L-40.00,0.00 " class="st6" />
        </g>
        <g id="163" transform="translate(327.58,44.00)">
            <path d="M0.00,0.00 L-148.68,91.50 " class="st9" />
        </g>
        <g id="164" transform="translate(386.21,44.00)">
            <path d="M0.00,0.00 L293.42,91.50 " class="st9" />
        </g>
        <g id="165" transform="translate(209.26,209.50)">
            <path d="M117.26,23.00 L117.26,0.00 L0.00,0.00 L0.00,23.00 L117.26,23.00 z" class="st1" />
            <text>
                <tspan x="18.74" y="16.00" style="font-family:宋体;fill:#000000;font-size:10pt;">房间空调信息</tspan>
            </text>
        </g>
        <g id="166" transform="translate(237.53,147.00)">
            <path d="M0.00,-0.00 L383.47,-0.00 " class="st3" />
            <text transform="translate(161.74,0.63)">
                <tspan x="14.74" y="14.87" style="font-family:宋体;fill:#000000;font-size:10pt;">Link</tspan>
            </text>
        </g>
        <g id="167" transform="translate(338.26,209.50)">
            <path d="M117.26,23.00 L117.26,0.00 L0.00,0.00 L0.00,23.00 L117.26,23.00 z" class="st1" />
            <text>
                <tspan x="31.74" y="16.00" style="font-family:宋体;fill:#000000;font-size:10pt;">通信协议</tspan>
            </text>
        </g>
        <g id="168" transform="translate(266.26,147.50)">
            <path d="M0.00,0.00 L1.63,62.00 " class="st6" />
        </g>
        <g id="169" transform="translate(396.89,209.50)">
            <path d="M0.00,0.00 L1.37,-66.00 " class="st6" />
        </g>
        <g id="170" transform="translate(621.00,424.00)">
            <path d="M117.26,23.00 L117.26,0.00 L0.00,0.00 L0.00,23.00 L117.26,23.00 z" class="st1" />
            <text>
                <tspan x="38.00" y="16.50" style="font-family:宋体;fill:#000000;font-size:10pt;">管理员</tspan>
            </text>
        </g>
        <g id="171" transform="translate(356.89,304.00)">
            <path d="M117.26,23.00 L117.26,0.00 L0.00,0.00 L0.00,23.00 L117.26,23.00 z" class="st1" />
            <text>
                <tspan x="19.11" y="16.50" style="font-family:宋体;fill:#000000;font-size:10pt;">房客身份信息</tspan>
            </text>
        </g>
        <g id="172" transform="translate(698.26,55.50)">
            <path d="M117.26,23.00 L117.26,0.00 L0.00,0.00 L0.00,23.00 L117.26,23.00 z" class="st1" />
            <text>
                <tspan x="44.74" y="16.00" style="font-family:宋体;fill:#000000;font-size:10pt;">日志</tspan>
            </text>
        </g>
        <g id="173" transform="translate(621.00,335.50)">
            <path d="M117.26,23.00 L117.26,0.00 L0.00,0.00 L0.00,23.00 L117.26,23.00 z" class="st1" />
            <text>
                <tspan x="45.00" y="16.00" style="font-family:宋体;fill:#000000;font-size:10pt;">前台</tspan>
            </text>
        </g>
        <g id="174" transform="translate(474.16,335.50)">
            <path d="M117.26,23.00 L117.26,0.00 L0.00,0.00 L0.00,23.00 L117.26,23.00 z" class="st1" />
            <text>
                <tspan x="31.84" y="16.00" style="font-family:宋体;fill:#000000;font-size:10pt;">财务人员</tspan>
            </text>
        </g>
        <g id="175" transform="translate(756.89,255.50)">
            <path d="M117.26,23.00 L117.26,0.00 L0.00,0.00 L0.00,23.00 L117.26,23.00 z" class="st1" />
            <text>
                <tspan x="32.11" y="16.00" style="font-family:宋体;fill:#000000;font-size:10pt;">运维人员</tspan>
            </text>
        </g>
        <g id="177" transform="translate(591.13,247.00) rotate(90.00,88.50,0.00)">
            <path d="M0.00,-0.00 L177.00,-0.00 " class="st3" />
            <text transform="translate(58.50,0.63)">
                <tspan x="15.00" y="14.50" style="font-family:宋体;fill:#000000;font-size:10pt;">Link</tspan>
            </text>
        </g>
        <g id="180" transform="translate(532.79,335.50)">
            <path d="M0.00,0.00 L0.00,-108.00 L117.53,-108.00 L117.53,-177.00 " class="st11" />
        </g>
        <g id="181" transform="translate(708.95,158.50)">
            <path d="M0.00,0.00 L0.00,45.00 L106.58,45.00 L106.58,97.00 " class="st11" />
        </g>
        <g id="182" transform="translate(356.89,264.00)">
            <path d="M117.26,23.00 L117.26,0.00 L0.00,0.00 L0.00,23.00 L117.26,23.00 z" class="st1" />
            <text>
                <tspan x="45.11" y="16.50" style="font-family:宋体;fill:#000000;font-size:10pt;">报表</tspan>
            </text>
        </g>
        <g id="183" transform="translate(650.32,424.00)">
            <path d="M0.00,0.00 L-117.53,-65.50 " class="st9" />
        </g>
        <g id="184" transform="translate(679.63,424.00)">
            <path d="M0.00,0.00 L-0.00,-65.50 " class="st9" />
        </g>
        <g id="185" transform="translate(708.95,424.00)">
            <path d="M0.00,0.00 L106.58,-145.50 " class="st9" />
        </g>
        <g id="186" transform="translate(738.26,147.00)">
            <path d="M0.00,0.00 L160.00,0.00 L160.00,288.50 L0.00,288.50 " class="st11" />
        </g>
        <g id="187" transform="translate(751.63,520.00)">
            <path d="M117.26,23.00 L117.26,0.00 L0.00,0.00 L0.00,23.00 L117.26,23.00 z" class="st1" />
            <text>
                <tspan x="12.37" y="16.50" style="font-family:宋体;fill:#000000;font-size:10pt;">主控机交互规则</tspan>
            </text>
        </g>
        <g id="188" transform="translate(810.26,435.50)">
            <path d="M0.00,0.00 L-0.00,84.50 " class="st6" />
        </g>
        <g id="189" transform="translate(530.26,275.50)">
            <path d="M0.00,0.00 L-56.11,0.00 " class="st6" />
        </g>
        <g id="190" transform="translate(678.26,323.50)">
            <path d="M0.00,0.00 L-262.74,3.50 " class="st6" />
        </g>
        <g id="191" transform="translate(758.26,207.50)">
            <path d="M0.00,0.00 L-1.37,-129.00 " class="st6" />
        </g>
        <g id="192" transform="translate(738.26,104.00)">
            <path d="M117.26,23.00 L117.26,0.00 L0.00,0.00 L0.00,23.00 L117.26,23.00 z" class="st1" />
            <text>
                <tspan x="12.74" y="16.50" style="font-family:宋体;fill:#000000;font-size:10pt;">主控机配置信息</tspan>
            </text>
        </g>
        <g id="193" transform="translate(798.26,207.50)">
            <path d="M0.00,0.00 L-1.37,-80.50 " class="st6" />
        </g>
        <g id="194" transform="translate(21.00,287.00)">
            <path d="M117.26,23.00 L117.26,0.00 L0.00,0.00 L0.00,23.00 L117.26,23.00 z" class="st1" />
            <text>
                <tspan x="12.00" y="16.50" style="font-family:宋体;fill:#000000;font-size:10pt;">从控机使用界面</tspan>
            </text>
        </g>
        <g id="195" transform="translate(178.26,298.50)">
            <path d="M0.00,0.00 L-40.00,0.00 " class="st6" />
        </g>
        <g id="196" transform="translate(751.63,372.50)">
            <path d="M117.26,23.00 L117.26,0.00 L0.00,0.00 L0.00,23.00 L117.26,23.00 z" class="st1" />
            <text>
                <tspan x="12.37" y="16.00" style="font-family:宋体;fill:#000000;font-size:10pt;">从控机使用界面</tspan>
            </text>
        </g>
        <g id="197" transform="translate(898.26,383.50)">
            <path d="M0.00,0.00 L-29.37,0.50 " class="st6" />
        </g>
    </g>
</svg>
