<?xml version="1.0" encoding="utf-8" standalone="no" ?>
<!--Generated by Edraw, SVGExporter, v1.0-->
<svg version="1.1" xmlns="http://www.w3.org/2000/svg" xmlns:xlink="http://www.w3.org/1999/xlink" xmlns:ed="http://www.edrawsoft.com/schema/svg" ed:version="version 5" viewBox="0 0 475.713 816.431">
    <style type="text/css">
        <![CDATA[
            .st1 {fill:#FEF1E6;}
            .st2 {fill:none;stroke:#C66009; stroke-width:1; stroke-linejoin:bevel; }
            .st3 {fill:#FEF1E6;stroke:#C66009; stroke-width:1; stroke-linejoin:bevel; }
            .st4 {fill:#FFB6C1;}
            .st5 {fill:#FFB6C1;stroke:#C66009; stroke-width:1; stroke-linejoin:bevel; }
            .st6 {fill:url(#grad1);stroke:#A24F08; stroke-width:1; stroke-linejoin:bevel; }
            .st7 {fill:url(#grad2);stroke:#A24F08; stroke-width:1; stroke-linejoin:bevel; }
            .st8 {fill:url(#grad3);stroke:#A24F08; stroke-width:1; stroke-linejoin:bevel; }
            .st9 {fill:url(#grad4);}
            .st10 {fill:none;stroke:#F79646; stroke-width:1; marker-end:url(#mk1); }
            .st11 {fill:url(#grad4);stroke:#F79646; stroke-width:1; marker-end:url(#mk1); }
            .st12 {fill:none;stroke:#F79646; stroke-width:1; stroke-dasharray:6,4; marker-end:url(#mk2); }
            .st13 {fill:url(#grad4);stroke:#F79646; stroke-width:1; stroke-dasharray:6,4; marker-end:url(#mk2); }
        ]]>

    </style>
    <defs id="Gradients">
        <linearGradient id="grad1" gradientUnits="userSpaceOnUse" x1="0.00" y1="0.00" x2="0.00" y2="1.00">
            <stop offset="0.00" stop-color="#FDEAD9" stop-opacity="1.00" />
            <stop offset="0.50" stop-color="#FCDCC0" stop-opacity="1.00" />
            <stop offset="1.00" stop-color="#FBCDA7" stop-opacity="1.00" />
        </linearGradient>
        <linearGradient id="grad2" gradientUnits="userSpaceOnUse" x1="0.00" y1="0.00" x2="0.00" y2="37.00">
            <stop offset="0.00" stop-color="#FDEAD9" stop-opacity="1.00" />
            <stop offset="0.50" stop-color="#FCDCC0" stop-opacity="1.00" />
            <stop offset="1.00" stop-color="#FBCDA7" stop-opacity="1.00" />
        </linearGradient>
        <linearGradient id="grad3" gradientUnits="userSpaceOnUse" x1="49.00" y1="35.00" x2="49.00" y2="776.00">
            <stop offset="0.00" stop-color="#FDEAD9" stop-opacity="1.00" />
            <stop offset="0.50" stop-color="#FCDCC0" stop-opacity="1.00" />
            <stop offset="1.00" stop-color="#FBCDA7" stop-opacity="1.00" />
        </linearGradient>
        <linearGradient id="grad4" gradientUnits="userSpaceOnUse" x1="0.00" y1="0.00" x2="0.00" y2="1.00">
            <stop offset="0.00" stop-color="#EDF0F7" stop-opacity="1.00" />
            <stop offset="1.00" stop-color="#A6BED0" stop-opacity="1.00" />
        </linearGradient>
    </defs>
    <defs id="Markers">
        <marker id="mk1" orient="auto" overflow="visible">
            <path d="M-0.00,-0.00 L-14.00,7.00 L-14.00,-7.00 z " style="fill:#F79646; stroke:none;" />
        </marker>
        <marker id="mk2" orient="auto" overflow="visible">
            <path d="M-0.00,-0.00 L-16.00,8.00 L-0.00,-0.00 L-16.00,-8.00 " style="stroke:#F79646; fill:none;" />
        </marker>
    </defs>
    <defs id="Filters" />
    <g>
        <title>图层-1</title>
        <g id="179" transform="translate(36.53,554.43)">
            <path d="M0.00,0.00 L400.00,0.00 L400.00,213.00 L0.00,213.00 L0.00,0.00 z" class="st3" />
            <path d="M0.00,213.00 L400.00,213.00 " class="st2" />
            <path d="M0.00,213.00 L400.00,213.00 " class="st2" />
            <path d="M0.00,93.00 L400.00,93.00 " class="st2" />
            <path d="M0.00,0.00 L100.00,0.00 L80.00,53.25 L0.00,53.25 L0.00,0.00 " class="st2" />
            <text transform="translate(0.00,0.00)">
                <tspan x="44.47" y="29.07" style="font-family:Arial;fill:#000000;font-size:10pt;">alt</tspan>
            </text>
        </g>
        <g id="166" transform="translate(35.53,194.43)">
            <path d="M0.00,0.00 L400.00,0.00 L400.00,341.00 L0.00,341.00 L0.00,0.00 z" class="st3" />
            <path d="M0.00,341.00 L400.00,341.00 " class="st2" />
            <path d="M0.00,341.00 L400.00,341.00 " class="st2" />
            <path d="M0.00,209.00 L400.00,209.00 " class="st2" />
            <path d="M0.00,0.00 L100.00,0.00 L80.00,85.25 L0.00,85.25 L0.00,0.00 " class="st2" />
            <text transform="translate(0.00,0.00)">
                <tspan x="44.47" y="44.07" style="font-family:Arial;fill:#000000;font-size:10pt;">alt</tspan>
            </text>
        </g>
        <g id="171" transform="translate(45.53,248.43)">
            <path d="M0.00,0.00 L382.00,0.00 L382.00,138.00 L0.00,138.00 L0.00,0.00 z" class="st5" />
            <path d="M0.00,34.50 L382.00,34.50 " class="st2" />
            <path d="M0.00,34.50 L382.00,34.50 " class="st2" />
            <path d="M0.00,34.50 L382.00,34.50 " class="st2" />
            <path d="M0.00,0.00 L95.50,0.00 L76.40,34.50 L0.00,34.50 L0.00,0.00 " class="st2" />
            <text transform="translate(0.00,0.00)">
                <tspan x="37.47" y="21.07" style="font-family:Arial;fill:#000000;font-size:10pt;">loop</tspan>
            </text>
        </g>
        <g id="156" transform="translate(21.03,20.88)">
            <g id="157" transform="translate(-0.03,0.12)">
                <path d="M0.00,0.00 L99.21,0.00 L99.21,35.20 L0.00,35.20 L0.00,0.00 z" class="st7" />
                <text transform="translate(0.03,-0.12)">
                    <tspan x="22.97" y="21.62" style="font-family:宋体;fill:#000000;font-size:10pt;">财务人员</tspan>
                </text>
            </g>
            <g id="158">
                <path d="M49.50,35.10 L49.50,774.55 z" class="st8" />
            </g>
        </g>
        <g id="159" transform="translate(355.53,20.88)">
            <g id="160" transform="translate(-0.03,0.12)">
                <path d="M0.00,0.00 L99.21,0.00 L99.21,35.20 L0.00,35.20 L0.00,0.00 z" class="st7" />
                <text transform="translate(0.03,-0.12)">
                    <tspan x="29.47" y="21.62" style="font-family:宋体;fill:#000000;font-size:10pt;">主控机</tspan>
                </text>
            </g>
            <g id="161">
                <path d="M49.50,35.10 L49.50,774.55 z" class="st8" />
            </g>
        </g>
        <g id="163" transform="translate(380.03,123.48) rotate(90.00,25.00,7.50)">
            <path d="M0.00,0.00 L50.00,0.00 L50.00,15.00 L0.00,15.00 L0.00,0.00 z" class="st3" />
        </g>
        <g id="164" transform="translate(70.53,105.98)">
            <path d="M0.00,-0.00 L327.00,-0.00 " class="st10" />
            <text transform="translate(104.49,-27.72)">
                <tspan x="5.98" y="6.23" style="font-family:宋体;fill:#000000;font-size:10pt;">1:</tspan>
                <tspan x="19.98" y="6.23" style="font-family:Arial;fill:#000000;font-size:10pt;">open</tspan>
                <tspan x="47.98" y="6.23" style="font-family:宋体;fill:#000000;font-size:10pt;">_</tspan>
                <tspan x="54.98" y="6.23" style="font-family:Arial;fill:#000000;font-size:10pt;">manage</tspan>
                <tspan x="10.98" y="23.23" style="font-family:Arial;fill:#000000;font-size:10pt;">ment_interface</tspan>
            </text>
        </g>
        <g id="165" transform="translate(70.53,155.98) rotate(180.00,163.50,0.00)">
            <path d="M0.00,-0.00 L327.00,-0.00 " class="st12" />
            <text transform="translate(92.81,3.86) rotate(180.00,54.34,13.86)">
                <tspan x="23.96" y="10.09" style="font-family:宋体;fill:#000000;font-size:10pt;">《</tspan>
                <tspan x="36.96" y="10.09" style="font-family:Arial;fill:#000000;font-size:10pt;">return</tspan>
                <tspan x="69.96" y="10.09" style="font-family:宋体;fill:#000000;font-size:10pt;">》</tspan>
                <tspan x="40.96" y="27.09" style="font-family:Arial;fill:#000000;font-size:10pt;">2:ok</tspan>
            </text>
        </g>
        <g id="168" transform="translate(380.03,323.48) rotate(90.00,25.00,7.50)">
            <path d="M0.00,0.00 L50.00,0.00 L50.00,15.00 L0.00,15.00 L0.00,0.00 z" class="st3" />
        </g>
        <g id="169" transform="translate(70.53,305.98)">
            <path d="M0.00,-0.00 L327.00,-0.00 " class="st10" />
            <text transform="translate(104.49,-27.72)">
                <tspan x="17.98" y="-1.77" style="font-family:Arial;fill:#000000;font-size:10pt;">3:set_option</tspan>
                <tspan x="4.98" y="14.23" style="font-family:Arial;fill:#000000;font-size:10pt;">(time,room_num,</tspan>
                <tspan x="35.98" y="30.23" style="font-family:Arial;fill:#000000;font-size:10pt;">guest)</tspan>
            </text>
        </g>
        <g id="170" transform="translate(70.53,355.98) rotate(180.00,163.50,0.00)">
            <path d="M0.00,-0.00 L327.00,-0.00 " class="st12" />
            <text transform="translate(92.81,3.86) rotate(180.00,54.34,13.86)">
                <tspan x="23.96" y="10.09" style="font-family:宋体;fill:#000000;font-size:10pt;">《</tspan>
                <tspan x="36.96" y="10.09" style="font-family:Arial;fill:#000000;font-size:10pt;">return</tspan>
                <tspan x="69.96" y="10.09" style="font-family:宋体;fill:#000000;font-size:10pt;">》</tspan>
                <tspan x="34.96" y="27.09" style="font-family:Arial;fill:#000000;font-size:10pt;">4:error</tspan>
            </text>
        </g>
        <g id="173" transform="translate(380.03,473.48) rotate(90.00,25.00,7.50)">
            <path d="M0.00,0.00 L50.00,0.00 L50.00,15.00 L0.00,15.00 L0.00,0.00 z" class="st3" />
        </g>
        <g id="174" transform="translate(70.53,455.98)">
            <path d="M0.00,-0.00 L327.00,-0.00 " class="st10" />
            <text transform="translate(104.49,-27.72)">
                <tspan x="17.98" y="-1.77" style="font-family:Arial;fill:#000000;font-size:10pt;">3:set_option</tspan>
                <tspan x="4.98" y="14.23" style="font-family:Arial;fill:#000000;font-size:10pt;">(time,room_num,</tspan>
                <tspan x="35.98" y="30.23" style="font-family:Arial;fill:#000000;font-size:10pt;">guest)</tspan>
            </text>
        </g>
        <g id="175" transform="translate(70.53,505.98) rotate(180.00,163.50,0.00)">
            <path d="M0.00,-0.00 L327.00,-0.00 " class="st12" />
            <text transform="translate(92.81,3.86) rotate(180.00,54.34,13.86)">
                <tspan x="23.96" y="10.09" style="font-family:宋体;fill:#000000;font-size:10pt;">《</tspan>
                <tspan x="36.96" y="10.09" style="font-family:Arial;fill:#000000;font-size:10pt;">return</tspan>
                <tspan x="69.96" y="10.09" style="font-family:宋体;fill:#000000;font-size:10pt;">》</tspan>
                <tspan x="40.96" y="27.09" style="font-family:Arial;fill:#000000;font-size:10pt;">4:ok</tspan>
            </text>
        </g>
        <g id="176" transform="translate(380.03,597.43) rotate(90.00,25.00,7.50)">
            <path d="M0.00,0.00 L50.00,0.00 L50.00,15.00 L0.00,15.00 L0.00,0.00 z" class="st3" />
        </g>
        <g id="177" transform="translate(70.53,579.93)">
            <path d="M0.00,-0.00 L327.00,-0.00 " class="st10" />
            <text transform="translate(104.49,-27.72)">
                <tspan x="4.98" y="14.29" style="font-family:宋体;fill:#000000;font-size:10pt;">5:</tspan>
                <tspan x="18.98" y="14.29" style="font-family:Arial;fill:#000000;font-size:10pt;">display_table()</tspan>
            </text>
        </g>
        <g id="178" transform="translate(70.53,629.93) rotate(180.00,163.50,0.00)">
            <path d="M0.00,-0.00 L327.00,-0.00 " class="st12" />
            <text transform="translate(92.81,3.86) rotate(180.00,54.34,13.86)">
                <tspan x="23.96" y="-5.86" style="font-family:宋体;fill:#000000;font-size:10pt;">《</tspan>
                <tspan x="36.96" y="-5.86" style="font-family:Arial;fill:#000000;font-size:10pt;">return</tspan>
                <tspan x="69.96" y="-5.86" style="font-family:宋体;fill:#000000;font-size:10pt;">》</tspan>
                <tspan x="27.96" y="11.14" style="font-family:Arial;fill:#000000;font-size:10pt;">6:display </tspan>
                <tspan x="29.96" y="27.14" style="font-family:Arial;fill:#000000;font-size:10pt;">financial </tspan>
                <tspan x="24.96" y="43.14" style="font-family:Arial;fill:#000000;font-size:10pt;">statement</tspan>
            </text>
        </g>
        <g id="180" transform="translate(380.03,711.93) rotate(90.00,25.00,7.50)">
            <path d="M0.00,0.00 L50.00,0.00 L50.00,15.00 L0.00,15.00 L0.00,0.00 z" class="st3" />
        </g>
        <g id="181" transform="translate(70.53,694.43)">
            <path d="M0.00,-0.00 L327.00,-0.00 " class="st10" />
            <text transform="translate(104.49,-27.72)">
                <tspan x="6.98" y="14.79" style="font-family:宋体;fill:#000000;font-size:10pt;">5:</tspan>
                <tspan x="20.98" y="14.79" style="font-family:Arial;fill:#000000;font-size:10pt;">output_table()</tspan>
            </text>
        </g>
        <g id="182" transform="translate(70.53,744.43) rotate(180.00,163.50,0.00)">
            <path d="M0.00,-0.00 L327.00,-0.00 " class="st12" />
            <text transform="translate(92.81,3.86) rotate(180.00,54.34,13.86)">
                <tspan x="23.96" y="2.64" style="font-family:宋体;fill:#000000;font-size:10pt;">《</tspan>
                <tspan x="36.96" y="2.64" style="font-family:Arial;fill:#000000;font-size:10pt;">return</tspan>
                <tspan x="69.96" y="2.64" style="font-family:宋体;fill:#000000;font-size:10pt;">》</tspan>
                <tspan x="4.96" y="19.64" style="font-family:Arial;fill:#000000;font-size:10pt;">6:output financial </tspan>
                <tspan x="24.96" y="35.64" style="font-family:Arial;fill:#000000;font-size:10pt;">statement</tspan>
            </text>
        </g>
    </g>
</svg>
