<?xml version="1.0" encoding="utf-8" standalone="no" ?>
<!--Generated by Edraw, SVGExporter, v1.0-->
<svg version="1.1" xmlns="http://www.w3.org/2000/svg" xmlns:xlink="http://www.w3.org/1999/xlink" xmlns:ed="http://www.edrawsoft.com/schema/svg" ed:version="version 5" viewBox="0 0 522 744.983">
    <style type="text/css">
        <![CDATA[
            .st1 {fill:#FEF1E6;}
            .st2 {fill:none;stroke:#C66009; stroke-width:1; stroke-linejoin:bevel; }
            .st3 {fill:#FEF1E6;stroke:#C66009; stroke-width:1; stroke-linejoin:bevel; }
            .st4 {fill:#FFB6C1;}
            .st5 {fill:#FFB6C1;stroke:#C66009; stroke-width:1; stroke-linejoin:bevel; }
            .st6 {fill:url(#grad1);stroke:#A24F08; stroke-width:1; stroke-linejoin:bevel; }
            .st7 {fill:url(#grad2);stroke:#A24F08; stroke-width:1; stroke-linejoin:bevel; }
            .st8 {fill:url(#grad3);stroke:#A24F08; stroke-width:1; stroke-linejoin:bevel; }
            .st9 {fill:url(#grad4);stroke:#A24F08; stroke-width:1; stroke-linejoin:bevel; }
            .st10 {fill:url(#grad5);}
            .st11 {fill:none;stroke:#F79646; stroke-width:1; marker-end:url(#mk1); }
            .st12 {fill:url(#grad5);stroke:#F79646; stroke-width:1; marker-end:url(#mk1); }
            .st13 {fill:none;stroke:#F79646; stroke-width:1; stroke-dasharray:6,4; marker-end:url(#mk2); }
            .st14 {fill:url(#grad5);stroke:#F79646; stroke-width:1; stroke-dasharray:6,4; marker-end:url(#mk2); }
            .st15 {fill:none;stroke:#F79646; stroke-width:1; marker-end:url(#mk2); }
            .st16 {fill:url(#grad5);stroke:#F79646; stroke-width:1; marker-end:url(#mk2); }
        ]]>

    </style>
    <defs id="Gradients">
        <linearGradient id="grad1" gradientUnits="userSpaceOnUse" x1="0.00" y1="0.00" x2="0.00" y2="1.00">
            <stop offset="0.00" stop-color="#FDEAD9" stop-opacity="1.00" />
            <stop offset="0.50" stop-color="#FCDCC0" stop-opacity="1.00" />
            <stop offset="1.00" stop-color="#FBCDA7" stop-opacity="1.00" />
        </linearGradient>
        <linearGradient id="grad2" gradientUnits="userSpaceOnUse" x1="0.00" y1="0.00" x2="0.00" y2="37.00">
            <stop offset="0.00" stop-color="#FDEAD9" stop-opacity="1.00" />
            <stop offset="0.50" stop-color="#FCDCC0" stop-opacity="1.00" />
            <stop offset="1.00" stop-color="#FBCDA7" stop-opacity="1.00" />
        </linearGradient>
        <linearGradient id="grad3" gradientUnits="userSpaceOnUse" x1="49.00" y1="35.00" x2="49.00" y2="693.00">
            <stop offset="0.00" stop-color="#FDEAD9" stop-opacity="1.00" />
            <stop offset="0.50" stop-color="#FCDCC0" stop-opacity="1.00" />
            <stop offset="1.00" stop-color="#FBCDA7" stop-opacity="1.00" />
        </linearGradient>
        <linearGradient id="grad4" gradientUnits="userSpaceOnUse" x1="49.00" y1="35.00" x2="49.00" y2="701.00">
            <stop offset="0.00" stop-color="#FDEAD9" stop-opacity="1.00" />
            <stop offset="0.50" stop-color="#FCDCC0" stop-opacity="1.00" />
            <stop offset="1.00" stop-color="#FBCDA7" stop-opacity="1.00" />
        </linearGradient>
        <linearGradient id="grad5" gradientUnits="userSpaceOnUse" x1="0.00" y1="0.00" x2="0.00" y2="1.00">
            <stop offset="0.00" stop-color="#EDF0F7" stop-opacity="1.00" />
            <stop offset="1.00" stop-color="#A6BED0" stop-opacity="1.00" />
        </linearGradient>
    </defs>
    <defs id="Markers">
        <marker id="mk1" orient="auto" overflow="visible">
            <path d="M-0.00,-0.00 L-14.00,7.00 L-14.00,-7.00 z " style="fill:#F79646; stroke:none;" />
        </marker>
        <marker id="mk2" orient="auto" overflow="visible">
            <path d="M-0.00,-0.00 L-16.00,8.00 L-0.00,-0.00 L-16.00,-8.00 " style="stroke:#F79646; fill:none;" />
        </marker>
    </defs>
    <defs id="Filters" />
    <g>
        <title>图层-1</title>
        <g id="150" transform="translate(21.00,63.98)">
            <path d="M0.00,0.00 L480.00,0.00 L480.00,660.00 L0.00,660.00 L0.00,0.00 z" class="st3" />
            <path d="M0.00,300.00 L480.00,300.00 " class="st2" />
            <path d="M0.00,0.00 L480.00,0.00 " class="st2" />
            <path d="M0.00,542.23 L480.00,542.23 " class="st2" />
            <path d="M0.00,0.00 L120.00,0.00 L96.00,165.00 L0.00,165.00 L0.00,0.00 " class="st2" />
            <text transform="translate(0.00,0.00)">
                <tspan x="55.00" y="33.52" style="font-family:Arial;fill:#000000;font-size:10pt;">alt</tspan>
            </text>
        </g>
        <g id="151" transform="translate(48.75,368.98)">
            <path d="M0.00,0.00 L424.00,0.00 L424.00,224.00 L0.00,224.00 L0.00,0.00 z" class="st5" />
            <path d="M0.00,224.00 L424.00,224.00 " class="st2" />
            <path d="M0.00,224.00 L424.00,224.00 " class="st2" />
            <path d="M0.00,112.00 L424.00,112.00 " class="st2" />
            <path d="M0.00,0.00 L106.00,0.00 L84.80,56.00 L0.00,56.00 L0.00,0.00 " class="st2" />
            <text transform="translate(0.00,0.00)">
                <tspan x="47.25" y="30.52" style="font-family:Arial;fill:#000000;font-size:10pt;">alt</tspan>
            </text>
        </g>
        <g id="152" transform="translate(48.75,120.98)">
            <path d="M0.00,0.00 L424.50,0.00 L424.50,237.00 L0.00,237.00 L0.00,0.00 z" class="st5" />
            <path d="M0.00,237.00 L424.50,237.00 " class="st2" />
            <path d="M0.00,237.00 L424.50,237.00 " class="st2" />
            <path d="M0.00,120.48 L424.50,120.48 " class="st2" />
            <path d="M0.00,0.00 L106.13,0.00 L84.90,59.25 L0.00,59.25 L0.00,0.00 " class="st2" />
            <text transform="translate(0.00,0.00)">
                <tspan x="47.25" y="32.52" style="font-family:Arial;fill:#000000;font-size:10pt;">alt</tspan>
            </text>
        </g>
        <g id="103" transform="translate(71.25,20.88)">
            <g id="104" transform="translate(-0.03,0.12)">
                <path d="M0.00,0.00 L99.21,0.00 L99.21,35.20 L0.00,35.20 L0.00,0.00 z" class="st7" />
                <text transform="translate(0.03,-0.12)">
                    <tspan x="28.75" y="21.62" style="font-family:宋体;fill:#000000;font-size:10pt;">从控机</tspan>
                </text>
            </g>
            <g id="105">
                <path d="M49.50,35.10 L49.50,692.00 z" class="st8" />
            </g>
        </g>
        <g id="106" transform="translate(362.25,20.88)">
            <g id="107" transform="translate(-0.03,0.12)">
                <path d="M0.00,0.00 L99.21,0.00 L99.21,35.20 L0.00,35.20 L0.00,0.00 z" class="st7" />
                <text transform="translate(0.03,-0.12)">
                    <tspan x="28.75" y="21.62" style="font-family:宋体;fill:#000000;font-size:10pt;">主控机</tspan>
                </text>
            </g>
            <g id="108">
                <path d="M49.50,35.10 L49.50,700.00 z" class="st9" />
            </g>
        </g>
        <g id="110" transform="translate(120.75,155.98) rotate(0.00,141.75,0.00)">
            <path d="M0.00,-0.00 L283.50,-0.00 " class="st11" />
            <text transform="translate(83.36,-27.72)">
                <tspan x="7.89" y="6.23" style="font-family:宋体;fill:#000000;font-size:10pt;">1:</tspan>
                <tspan x="21.89" y="6.23" style="font-family:Arial;fill:#000000;font-size:10pt;">change_temp</tspan>
                <tspan x="34.89" y="23.23" style="font-family:Arial;fill:#000000;font-size:10pt;">(temp)</tspan>
            </text>
        </g>
        <g id="112" transform="translate(386.75,173.48) rotate(90.00,25.00,7.50)">
            <path d="M0.00,0.00 L50.00,0.00 L50.00,15.00 L0.00,15.00 L0.00,0.00 z" class="st3" />
        </g>
        <g id="114" transform="translate(120.75,205.98) rotate(-180.00,141.75,0.00)">
            <path d="M0.00,-0.00 L283.50,-0.00 " class="st13" />
            <text transform="translate(73.24,3.86) rotate(180.00,54.34,13.86)">
                <tspan x="23.66" y="10.09" style="font-family:宋体;fill:#000000;font-size:10pt;">《</tspan>
                <tspan x="36.66" y="10.09" style="font-family:Arial;fill:#000000;font-size:10pt;">return</tspan>
                <tspan x="69.66" y="10.09" style="font-family:宋体;fill:#000000;font-size:10pt;">》</tspan>
                <tspan x="40.66" y="27.09" style="font-family:Arial;fill:#000000;font-size:10pt;">2:ok</tspan>
            </text>
        </g>
        <g id="134" transform="translate(120.75,280.98) rotate(0.00,141.75,0.00)">
            <path d="M0.00,-0.00 L283.50,-0.00 " class="st11" />
            <text transform="translate(83.36,-27.72)">
                <tspan x="7.89" y="6.23" style="font-family:宋体;fill:#000000;font-size:10pt;">1:</tspan>
                <tspan x="21.89" y="6.23" style="font-family:Arial;fill:#000000;font-size:10pt;">change_temp</tspan>
                <tspan x="34.89" y="23.23" style="font-family:Arial;fill:#000000;font-size:10pt;">(temp)</tspan>
            </text>
        </g>
        <g id="136" transform="translate(386.75,298.48) rotate(90.00,25.00,7.50)">
            <path d="M0.00,0.00 L50.00,0.00 L50.00,15.00 L0.00,15.00 L0.00,0.00 z" class="st3" />
        </g>
        <g id="137" transform="translate(120.75,330.98) rotate(-180.00,141.75,0.00)">
            <path d="M0.00,-0.00 L283.50,-0.00 " class="st13" />
            <text transform="translate(73.24,3.86) rotate(180.00,54.34,13.86)">
                <tspan x="23.66" y="9.09" style="font-family:宋体;fill:#000000;font-size:10pt;">《</tspan>
                <tspan x="36.66" y="9.09" style="font-family:Arial;fill:#000000;font-size:10pt;">return</tspan>
                <tspan x="69.66" y="9.09" style="font-family:宋体;fill:#000000;font-size:10pt;">》</tspan>
                <tspan x="33.66" y="26.09" style="font-family:Arial;fill:#000000;font-size:10pt;">2</tspan>
                <tspan x="40.66" y="26.09" style="font-family:宋体;fill:#000000;font-size:10pt;">:</tspan>
                <tspan x="47.66" y="26.09" style="font-family:Arial;fill:#000000;font-size:10pt;">error</tspan>
            </text>
        </g>
        <g id="138" transform="translate(120.75,405.98) rotate(0.00,141.75,0.00)">
            <path d="M0.00,-0.00 L283.50,-0.00 " class="st11" />
            <text transform="translate(83.36,-27.72)">
                <tspan x="4.89" y="6.23" style="font-family:宋体;fill:#000000;font-size:10pt;">1:</tspan>
                <tspan x="18.89" y="6.23" style="font-family:Arial;fill:#000000;font-size:10pt;">change_speed</tspan>
                <tspan x="31.89" y="23.23" style="font-family:Arial;fill:#000000;font-size:10pt;">(speed)</tspan>
            </text>
        </g>
        <g id="140" transform="translate(386.75,423.48) rotate(90.00,25.00,7.50)">
            <path d="M0.00,0.00 L50.00,0.00 L50.00,15.00 L0.00,15.00 L0.00,0.00 z" class="st3" />
        </g>
        <g id="141" transform="translate(120.75,455.98) rotate(-180.00,141.75,0.00)">
            <path d="M0.00,-0.00 L283.50,-0.00 " class="st13" />
            <text transform="translate(73.24,3.86) rotate(180.00,54.34,13.86)">
                <tspan x="23.66" y="10.09" style="font-family:宋体;fill:#000000;font-size:10pt;">《</tspan>
                <tspan x="36.66" y="10.09" style="font-family:Arial;fill:#000000;font-size:10pt;">return</tspan>
                <tspan x="69.66" y="10.09" style="font-family:宋体;fill:#000000;font-size:10pt;">》</tspan>
                <tspan x="40.66" y="27.09" style="font-family:Arial;fill:#000000;font-size:10pt;">2:ok</tspan>
            </text>
        </g>
        <g id="142" transform="translate(120.75,530.98) rotate(0.00,141.75,0.00)">
            <path d="M0.00,-0.00 L283.50,-0.00 " class="st11" />
            <text transform="translate(83.36,-27.72)">
                <tspan x="4.89" y="6.23" style="font-family:宋体;fill:#000000;font-size:10pt;">1:</tspan>
                <tspan x="18.89" y="6.23" style="font-family:Arial;fill:#000000;font-size:10pt;">change_speed</tspan>
                <tspan x="31.89" y="23.23" style="font-family:Arial;fill:#000000;font-size:10pt;">(speed)</tspan>
            </text>
        </g>
        <g id="144" transform="translate(386.75,548.48) rotate(90.00,25.00,7.50)">
            <path d="M0.00,0.00 L50.00,0.00 L50.00,15.00 L0.00,15.00 L0.00,0.00 z" class="st3" />
        </g>
        <g id="145" transform="translate(120.75,580.98) rotate(180.00,139.63,0.00)">
            <path d="M0.00,-0.00 L279.25,-0.00 " class="st13" />
            <text transform="translate(71.32,3.86) rotate(180.00,54.34,13.86)">
                <tspan x="24.00" y="10.09" style="font-family:宋体;fill:#000000;font-size:10pt;">《</tspan>
                <tspan x="37.00" y="10.09" style="font-family:Arial;fill:#000000;font-size:10pt;">return</tspan>
                <tspan x="70.00" y="10.09" style="font-family:宋体;fill:#000000;font-size:10pt;">》</tspan>
                <tspan x="35.00" y="27.09" style="font-family:Arial;fill:#000000;font-size:10pt;">2:error</tspan>
            </text>
        </g>
        <g id="148" transform="translate(386.75,673.48) rotate(90.00,25.00,7.50)">
            <path d="M0.00,0.00 L50.00,0.00 L50.00,15.00 L0.00,15.00 L0.00,0.00 z" class="st3" />
        </g>
        <g id="149" transform="translate(120.75,705.98) rotate(-180.00,141.75,0.00)">
            <path d="M0.00,-0.00 L283.50,-0.00 " class="st13" />
            <text transform="translate(73.24,3.86) rotate(180.00,54.34,13.86)">
                <tspan x="23.66" y="10.09" style="font-family:宋体;fill:#000000;font-size:10pt;">《</tspan>
                <tspan x="36.66" y="10.09" style="font-family:Arial;fill:#000000;font-size:10pt;">return</tspan>
                <tspan x="69.66" y="10.09" style="font-family:宋体;fill:#000000;font-size:10pt;">》</tspan>
                <tspan x="40.66" y="27.09" style="font-family:Arial;fill:#000000;font-size:10pt;">2:ok</tspan>
            </text>
        </g>
        <g id="214" transform="translate(120.75,655.98) rotate(0.00,141.75,0.00)">
            <path d="M0.00,-0.00 L283.50,-0.00 " class="st15" />
            <text transform="translate(83.36,-27.72)">
                <tspan x="26.89" y="14.24" style="font-family:宋体;fill:#000000;font-size:10pt;">1:</tspan>
                <tspan x="40.89" y="14.24" style="font-family:Arial;fill:#000000;font-size:10pt;">close()</tspan>
            </text>
        </g>
    </g>
</svg>
