<?xml version="1.0" encoding="utf-8" standalone="no" ?>
<!--Generated by Edraw, SVGExporter, v1.0-->
<svg version="1.1" xmlns="http://www.w3.org/2000/svg" xmlns:xlink="http://www.w3.org/1999/xlink" xmlns:ed="http://www.edrawsoft.com/schema/svg" ed:version="version 5" viewBox="0 0 510.713 816.982">
    <style type="text/css">
        <![CDATA[
            .st1 {fill:#FEF1E6;}
            .st2 {fill:none;stroke:#C66009; stroke-width:1; stroke-linejoin:bevel; }
            .st3 {fill:#FEF1E6;stroke:#C66009; stroke-width:1; stroke-linejoin:bevel; }
            .st4 {fill:url(#grad1);}
            .st5 {fill:none;stroke:#F79646; stroke-width:1; marker-end:url(#mk1); }
            .st6 {fill:url(#grad1);stroke:#F79646; stroke-width:1; marker-end:url(#mk1); }
            .st7 {fill:none;stroke:#F79646; stroke-width:1; stroke-dasharray:6,4; marker-end:url(#mk2); }
            .st8 {fill:url(#grad1);stroke:#F79646; stroke-width:1; stroke-dasharray:6,4; marker-end:url(#mk2); }
            .st9 {fill:#FFB6C1;}
            .st10 {fill:#FFB6C1;stroke:#C66009; stroke-width:1; stroke-linejoin:bevel; }
            .st11 {fill:url(#grad2);stroke:#A24F08; stroke-width:1; stroke-linejoin:bevel; }
            .st12 {fill:url(#grad3);stroke:#A24F08; stroke-width:1; stroke-linejoin:bevel; }
            .st13 {fill:url(#grad4);stroke:#A24F08; stroke-width:1; stroke-linejoin:bevel; }
            .st14 {fill:url(#grad5);stroke:#A24F08; stroke-width:1; stroke-linejoin:bevel; }
        ]]>

    </style>
    <defs id="Gradients">
        <linearGradient id="grad1" gradientUnits="userSpaceOnUse" x1="0.00" y1="0.00" x2="0.00" y2="1.00">
            <stop offset="0.00" stop-color="#EDF0F7" stop-opacity="1.00" />
            <stop offset="1.00" stop-color="#A6BED0" stop-opacity="1.00" />
        </linearGradient>
        <linearGradient id="grad2" gradientUnits="userSpaceOnUse" x1="0.00" y1="0.00" x2="0.00" y2="1.00">
            <stop offset="0.00" stop-color="#FDEAD9" stop-opacity="1.00" />
            <stop offset="0.50" stop-color="#FCDCC0" stop-opacity="1.00" />
            <stop offset="1.00" stop-color="#FBCDA7" stop-opacity="1.00" />
        </linearGradient>
        <linearGradient id="grad3" gradientUnits="userSpaceOnUse" x1="0.00" y1="0.00" x2="0.00" y2="37.00">
            <stop offset="0.00" stop-color="#FDEAD9" stop-opacity="1.00" />
            <stop offset="0.50" stop-color="#FCDCC0" stop-opacity="1.00" />
            <stop offset="1.00" stop-color="#FBCDA7" stop-opacity="1.00" />
        </linearGradient>
        <linearGradient id="grad4" gradientUnits="userSpaceOnUse" x1="49.00" y1="35.00" x2="49.00" y2="769.00">
            <stop offset="0.00" stop-color="#FDEAD9" stop-opacity="1.00" />
            <stop offset="0.50" stop-color="#FCDCC0" stop-opacity="1.00" />
            <stop offset="1.00" stop-color="#FBCDA7" stop-opacity="1.00" />
        </linearGradient>
        <linearGradient id="grad5" gradientUnits="userSpaceOnUse" x1="49.00" y1="35.00" x2="49.00" y2="777.00">
            <stop offset="0.00" stop-color="#FDEAD9" stop-opacity="1.00" />
            <stop offset="0.50" stop-color="#FCDCC0" stop-opacity="1.00" />
            <stop offset="1.00" stop-color="#FBCDA7" stop-opacity="1.00" />
        </linearGradient>
    </defs>
    <defs id="Markers">
        <marker id="mk1" orient="auto" overflow="visible">
            <path d="M-0.00,-0.00 L-14.00,7.00 L-14.00,-7.00 z " style="fill:#F79646; stroke:none;" />
        </marker>
        <marker id="mk2" orient="auto" overflow="visible">
            <path d="M-0.00,-0.00 L-16.00,8.00 L-0.00,-0.00 L-16.00,-8.00 " style="stroke:#F79646; fill:none;" />
        </marker>
    </defs>
    <defs id="Filters" />
    <g>
        <title>图层-1</title>
        <g id="188" transform="translate(30.53,417.98)">
            <path d="M0.00,0.00 L449.47,0.00 L449.47,346.00 L0.00,346.00 L0.00,0.00 z" class="st3" />
            <path d="M0.00,86.50 L449.47,86.50 " class="st2" />
            <path d="M0.00,86.50 L449.47,86.50 " class="st2" />
            <path d="M0.00,200.48 L449.47,200.48 " class="st2" />
            <path d="M0.00,0.00 L112.37,0.00 L89.89,86.50 L0.00,86.50 L0.00,0.00 " class="st2" />
            <text transform="translate(0.00,0.00)">
                <tspan x="50.47" y="44.52" style="font-family:Arial;fill:#000000;font-size:10pt;">alt</tspan>
            </text>
        </g>
        <g id="174" transform="translate(29.80,99.98)">
            <path d="M0.00,0.00 L450.20,0.00 L450.20,262.00 L0.00,262.00 L0.00,0.00 z" class="st3" />
            <path d="M0.00,65.50 L450.20,65.50 " class="st2" />
            <path d="M0.00,65.50 L450.20,65.50 " class="st2" />
            <path d="M0.00,65.50 L450.20,65.50 " class="st2" />
            <path d="M0.00,0.00 L112.55,0.00 L90.04,65.50 L0.00,65.50 L0.00,0.00 " class="st2" />
            <text transform="translate(0.00,0.00)">
                <tspan x="51.20" y="35.52" style="font-family:Arial;fill:#000000;font-size:10pt;">alt</tspan>
            </text>
        </g>
        <g id="181" transform="translate(70.53,205.98) rotate(-0.00,181.25,0.00)">
            <path d="M0.00,-0.00 L362.50,-0.00 " class="st5" />
            <text transform="translate(121.74,-27.72)">
                <tspan x="43.73" y="6.23" style="font-family:宋体;fill:#000000;font-size:10pt;">1：</tspan>
                <tspan x="3.73" y="23.23" style="font-family:Arial;fill:#000000;font-size:10pt;">Tempretureadjust</tspan>
            </text>
        </g>
        <g id="182" transform="translate(70.53,255.98) rotate(180.00,184.75,0.00)">
            <path d="M0.00,-0.00 L369.50,-0.00 " class="st7" />
            <text transform="translate(111.94,3.86) rotate(180.00,54.34,13.86)">
                <tspan x="23.58" y="9.09" style="font-family:宋体;fill:#000000;font-size:10pt;">《</tspan>
                <tspan x="36.58" y="9.09" style="font-family:Arial;fill:#000000;font-size:10pt;">return</tspan>
                <tspan x="69.58" y="9.09" style="font-family:宋体;fill:#000000;font-size:10pt;">》</tspan>
                <tspan x="36.58" y="26.09" style="font-family:宋体;fill:#000000;font-size:10pt;">2:</tspan>
                <tspan x="50.58" y="26.09" style="font-family:Arial;fill:#000000;font-size:10pt;">OK</tspan>
            </text>
        </g>
        <g id="186" transform="translate(70.53,305.98) rotate(-0.00,181.00,0.00)">
            <path d="M0.00,-0.00 L362.00,-0.00 " class="st5" />
            <text transform="translate(121.49,-27.72)">
                <tspan x="13.98" y="14.23" style="font-family:宋体;fill:#000000;font-size:10pt;">3:</tspan>
                <tspan x="27.98" y="14.23" style="font-family:Arial;fill:#000000;font-size:10pt;">Windadjust</tspan>
            </text>
        </g>
        <g id="187" transform="translate(70.53,343.98) rotate(180.00,180.87,0.00)">
            <path d="M0.00,-0.00 L361.73,-0.00 " class="st7" />
            <text transform="translate(108.44,3.86) rotate(180.00,54.34,13.86)">
                <tspan x="23.85" y="9.09" style="font-family:宋体;fill:#000000;font-size:10pt;">《</tspan>
                <tspan x="36.85" y="9.09" style="font-family:Arial;fill:#000000;font-size:10pt;">return</tspan>
                <tspan x="69.85" y="9.09" style="font-family:宋体;fill:#000000;font-size:10pt;">》</tspan>
                <tspan x="36.85" y="26.09" style="font-family:宋体;fill:#000000;font-size:10pt;">4:</tspan>
                <tspan x="50.85" y="26.09" style="font-family:Arial;fill:#000000;font-size:10pt;">OK</tspan>
            </text>
        </g>
        <g id="185" transform="translate(421.53,317.48) rotate(90.00,19.00,7.50)">
            <path d="M0.00,0.00 L38.00,0.00 L38.00,15.00 L0.00,15.00 L0.00,0.00 z" class="st3" />
        </g>
        <g id="183" transform="translate(415.53,223.48) rotate(90.00,25.00,7.50)">
            <path d="M0.00,0.00 L50.00,0.00 L50.00,15.00 L0.00,15.00 L0.00,0.00 z" class="st3" />
        </g>
        <g id="189" transform="translate(70.53,543.98)">
            <path d="M0.00,-0.00 L362.00,-0.00 " class="st5" />
            <text transform="translate(121.49,-27.72)">
                <tspan x="4.98" y="6.23" style="font-family:宋体;fill:#000000;font-size:10pt;">1:</tspan>
                <tspan x="18.98" y="6.23" style="font-family:Arial;fill:#000000;font-size:10pt;">TabtimeLessin</tspan>
                <tspan x="38.98" y="23.23" style="font-family:Arial;fill:#000000;font-size:10pt;">terval</tspan>
            </text>
        </g>
        <g id="191" transform="translate(70.53,580.98) rotate(180.00,184.75,0.00)">
            <path d="M0.00,-0.00 L369.50,-0.00 " class="st7" />
            <text transform="translate(111.94,3.86) rotate(180.00,54.34,13.86)">
                <tspan x="23.58" y="9.09" style="font-family:宋体;fill:#000000;font-size:10pt;">《</tspan>
                <tspan x="36.58" y="9.09" style="font-family:Arial;fill:#000000;font-size:10pt;">return</tspan>
                <tspan x="69.58" y="9.09" style="font-family:宋体;fill:#000000;font-size:10pt;">》</tspan>
                <tspan x="36.58" y="26.09" style="font-family:宋体;fill:#000000;font-size:10pt;">2:</tspan>
                <tspan x="50.58" y="26.09" style="font-family:Arial;fill:#000000;font-size:10pt;">OK</tspan>
            </text>
        </g>
        <g id="193" transform="translate(50.53,623.98)">
            <path d="M0.00,0.00 L417.47,0.00 L417.47,112.00 L0.00,112.00 L0.00,0.00 z" class="st10" />
            <path d="M0.00,28.00 L417.47,28.00 " class="st2" />
            <path d="M0.00,28.00 L417.47,28.00 " class="st2" />
            <path d="M0.00,28.00 L417.47,28.00 " class="st2" />
            <path d="M0.00,0.00 L104.37,0.00 L83.49,28.00 L0.00,28.00 L0.00,0.00 " class="st2" />
            <text transform="translate(0.00,0.00)">
                <tspan x="24.47" y="17.52" style="font-family:Arial;fill:#000000;font-size:10pt;">loop</tspan>
                <tspan x="48.47" y="17.52" style="font-family:宋体;fill:#000000;font-size:10pt;">[1,</tspan>
                <tspan x="69.47" y="17.52" style="font-family:Arial;fill:#000000;font-size:10pt;">n</tspan>
                <tspan x="76.47" y="17.52" style="font-family:宋体;fill:#000000;font-size:10pt;">]</tspan>
            </text>
        </g>
        <g id="168" transform="translate(21.03,20.88)">
            <g id="169" transform="translate(-0.03,0.12)">
                <path d="M0.00,0.00 L99.21,0.00 L99.21,35.20 L0.00,35.20 L0.00,0.00 z" class="st12" />
                <text transform="translate(0.03,-0.12)">
                    <tspan x="35.97" y="21.62" style="font-family:Arial;fill:#000000;font-size:10pt;">房客</tspan>
                </text>
            </g>
            <g id="170">
                <path d="M49.50,35.10 L49.50,767.10 z" class="st13" />
            </g>
        </g>
        <g id="171" transform="translate(390.53,20.88)">
            <g id="172" transform="translate(-0.03,0.12)">
                <path d="M0.00,0.00 L99.21,0.00 L99.21,35.20 L0.00,35.20 L0.00,0.00 z" class="st12" />
                <text transform="translate(0.03,-0.12)">
                    <tspan x="29.47" y="21.62" style="font-family:Arial;fill:#000000;font-size:10pt;">从控机</tspan>
                </text>
            </g>
            <g id="173">
                <path d="M49.50,35.10 L49.50,775.10 z" class="st14" />
            </g>
        </g>
        <g id="190" transform="translate(421.53,554.98) rotate(90.00,18.50,7.50)">
            <path d="M0.00,0.00 L37.00,0.00 L37.00,15.00 L0.00,15.00 L0.00,0.00 z" class="st3" />
        </g>
        <g id="194" transform="translate(70.53,684.98)">
            <path d="M0.00,-0.00 L364.50,-0.00 " class="st5" />
            <text transform="translate(122.71,-27.72)">
                <tspan x="3.76" y="-2.77" style="font-family:宋体;fill:#000000;font-size:10pt;">1:</tspan>
                <tspan x="17.76" y="-2.77" style="font-family:Arial;fill:#000000;font-size:10pt;">TabtimeOverint</tspan>
                <tspan x="40.76" y="14.23" style="font-family:Arial;fill:#000000;font-size:10pt;">erval</tspan>
            </text>
        </g>
        <g id="195" transform="translate(427.03,692.98) rotate(90.00,15.50,7.50)">
            <path d="M0.00,0.00 L31.00,0.00 L31.00,15.00 L0.00,15.00 L0.00,0.00 z" class="st3" />
        </g>
        <g id="196" transform="translate(70.53,715.98) rotate(180.00,182.25,0.00)">
            <path d="M0.00,-0.00 L364.50,-0.00 " class="st7" />
            <text transform="translate(109.69,3.86) rotate(180.00,54.34,13.86)">
                <tspan x="24.33" y="9.09" style="font-family:宋体;fill:#000000;font-size:10pt;">《</tspan>
                <tspan x="37.33" y="9.09" style="font-family:Arial;fill:#000000;font-size:10pt;">return</tspan>
                <tspan x="70.33" y="9.09" style="font-family:宋体;fill:#000000;font-size:10pt;">》</tspan>
                <tspan x="37.33" y="26.09" style="font-family:宋体;fill:#000000;font-size:10pt;">2:</tspan>
                <tspan x="51.33" y="26.09" style="font-family:Arial;fill:#000000;font-size:10pt;">OK</tspan>
            </text>
        </g>
    </g>
</svg>
