<?xml version="1.0" encoding="utf-8" standalone="no" ?>
<!--Generated by Edraw, SVGExporter, v1.0-->
<svg version="1.1" xmlns="http://www.w3.org/2000/svg" xmlns:xlink="http://www.w3.org/1999/xlink" xmlns:ed="http://www.edrawsoft.com/schema/svg" ed:version="version 5" viewBox="0 0 1188 840">
    <style type="text/css">
        <![CDATA[
            .st1 {fill:#FEF1E6;}
            .st2 {fill:none;stroke:#C66009; stroke-width:1; stroke-linejoin:bevel; }
            .st3 {fill:#FEF1E6;stroke:#C66009; stroke-width:1; stroke-linejoin:bevel; }
            .st4 {fill:url(#grad1);}
            .st5 {fill:none;stroke:#F79646; stroke-width:1; marker-end:url(#mk1); }
            .st6 {fill:url(#grad1);stroke:#F79646; stroke-width:1; marker-end:url(#mk1); }
            .st7 {fill:none;stroke:#F79646; stroke-width:1; stroke-dasharray:6,4; marker-end:url(#mk2); }
            .st8 {fill:url(#grad1);stroke:#F79646; stroke-width:1; stroke-dasharray:6,4; marker-end:url(#mk2); }
            .st9 {fill:#FFB6C1;}
            .st10 {fill:#FFB6C1;stroke:#C66009; stroke-width:1; stroke-linejoin:bevel; }
            .st11 {fill:url(#grad2);stroke:#A24F08; stroke-width:1; stroke-linejoin:bevel; }
            .st12 {fill:url(#grad3);stroke:#A24F08; stroke-width:1; stroke-linejoin:bevel; }
            .st13 {fill:url(#grad4);stroke:#A24F08; stroke-width:1; stroke-linejoin:bevel; }
            .st14 {fill:url(#grad5);stroke:#A24F08; stroke-width:1; stroke-linejoin:bevel; }
        ]]>

    </style>
    <defs id="Gradients">
        <linearGradient id="grad1" gradientUnits="userSpaceOnUse" x1="0.00" y1="0.00" x2="0.00" y2="1.00">
            <stop offset="0.00" stop-color="#EDF0F7" stop-opacity="1.00" />
            <stop offset="1.00" stop-color="#A6BED0" stop-opacity="1.00" />
        </linearGradient>
        <linearGradient id="grad2" gradientUnits="userSpaceOnUse" x1="0.00" y1="0.00" x2="0.00" y2="1.00">
            <stop offset="0.00" stop-color="#FDEAD9" stop-opacity="1.00" />
            <stop offset="0.50" stop-color="#FCDCC0" stop-opacity="1.00" />
            <stop offset="1.00" stop-color="#FBCDA7" stop-opacity="1.00" />
        </linearGradient>
        <linearGradient id="grad3" gradientUnits="userSpaceOnUse" x1="0.00" y1="0.00" x2="0.00" y2="37.00">
            <stop offset="0.00" stop-color="#FDEAD9" stop-opacity="1.00" />
            <stop offset="0.50" stop-color="#FCDCC0" stop-opacity="1.00" />
            <stop offset="1.00" stop-color="#FBCDA7" stop-opacity="1.00" />
        </linearGradient>
        <linearGradient id="grad4" gradientUnits="userSpaceOnUse" x1="49.00" y1="35.00" x2="49.00" y2="769.00">
            <stop offset="0.00" stop-color="#FDEAD9" stop-opacity="1.00" />
            <stop offset="0.50" stop-color="#FCDCC0" stop-opacity="1.00" />
            <stop offset="1.00" stop-color="#FBCDA7" stop-opacity="1.00" />
        </linearGradient>
        <linearGradient id="grad5" gradientUnits="userSpaceOnUse" x1="49.00" y1="35.00" x2="49.00" y2="777.00">
            <stop offset="0.00" stop-color="#FDEAD9" stop-opacity="1.00" />
            <stop offset="0.50" stop-color="#FCDCC0" stop-opacity="1.00" />
            <stop offset="1.00" stop-color="#FBCDA7" stop-opacity="1.00" />
        </linearGradient>
    </defs>
    <defs id="Markers">
        <marker id="mk1" orient="auto" overflow="visible">
            <path d="M-0.00,-0.00 L-14.00,7.00 L-14.00,-7.00 z " style="fill:#F79646; stroke:none;" />
        </marker>
        <marker id="mk2" orient="auto" overflow="visible">
            <path d="M-0.00,-0.00 L-16.00,8.00 L-0.00,-0.00 L-16.00,-8.00 " style="stroke:#F79646; fill:none;" />
        </marker>
    </defs>
    <defs id="Filters" />
    <g>
        <title>图层-1</title>
        <g id="188" transform="translate(320.00,442.00)">
            <path d="M0.00,0.00 L512.00,0.00 L512.00,346.00 L0.00,346.00 L0.00,0.00 z" class="st3" />
            <path d="M0.00,86.50 L512.00,86.50 " class="st2" />
            <path d="M0.00,86.50 L512.00,86.50 " class="st2" />
            <path d="M0.00,200.48 L512.00,200.48 " class="st2" />
            <path d="M0.00,0.00 L128.00,0.00 L102.40,86.50 L0.00,86.50 L0.00,0.00 " class="st2" />
            <text transform="translate(0.00,0.00)">
                <tspan x="59.00" y="44.50" style="font-family:Arial;fill:#000000;font-size:10pt;">alt</tspan>
            </text>
        </g>
        <g id="174" transform="translate(320.00,130.00)">
            <path d="M0.00,0.00 L508.00,0.00 L508.00,262.00 L0.00,262.00 L0.00,0.00 z" class="st3" />
            <path d="M0.00,65.50 L508.00,65.50 " class="st2" />
            <path d="M0.00,65.50 L508.00,65.50 " class="st2" />
            <path d="M0.00,65.50 L508.00,65.50 " class="st2" />
            <path d="M0.00,0.00 L127.00,0.00 L101.60,65.50 L0.00,65.50 L0.00,0.00 " class="st2" />
            <text transform="translate(0.00,0.00)">
                <tspan x="58.00" y="35.50" style="font-family:Arial;fill:#000000;font-size:10pt;">alt</tspan>
            </text>
        </g>
        <g id="181" transform="translate(360.00,230.00) rotate(-0.00,181.25,0.00)">
            <path d="M0.00,-0.00 L362.50,-0.00 " class="st5" />
            <text transform="translate(121.74,-27.72)">
                <tspan x="43.26" y="6.22" style="font-family:宋体;fill:#000000;font-size:10pt;">1：</tspan>
                <tspan x="5.26" y="23.22" style="font-family:Arial;fill:#000000;font-size:10pt;">Tempretureadjus</tspan>
                <tspan x="51.26" y="39.22" style="font-family:Arial;fill:#000000;font-size:10pt;">t</tspan>
            </text>
        </g>
        <g id="182" transform="translate(360.00,280.00) rotate(180.00,184.75,0.00)">
            <path d="M0.00,-0.00 L369.50,-0.00 " class="st7" />
            <text transform="translate(111.94,3.86) rotate(180.00,54.34,13.86)">
                <tspan x="24.11" y="9.08" style="font-family:宋体;fill:#000000;font-size:10pt;">《</tspan>
                <tspan x="37.11" y="9.08" style="font-family:Arial;fill:#000000;font-size:10pt;">return</tspan>
                <tspan x="70.11" y="9.08" style="font-family:宋体;fill:#000000;font-size:10pt;">》</tspan>
                <tspan x="37.11" y="26.08" style="font-family:宋体;fill:#000000;font-size:10pt;">2:</tspan>
                <tspan x="51.11" y="26.08" style="font-family:Arial;fill:#000000;font-size:10pt;">OK</tspan>
            </text>
        </g>
        <g id="186" transform="translate(360.00,330.00) rotate(-0.00,181.00,0.00)">
            <path d="M0.00,-0.00 L362.00,-0.00 " class="st5" />
            <text transform="translate(121.49,-27.72)">
                <tspan x="13.51" y="14.22" style="font-family:宋体;fill:#000000;font-size:10pt;">3:</tspan>
                <tspan x="27.51" y="14.22" style="font-family:Arial;fill:#000000;font-size:10pt;">Windadjust</tspan>
            </text>
        </g>
        <g id="187" transform="translate(360.00,368.00) rotate(180.00,180.87,0.00)">
            <path d="M0.00,-0.00 L361.73,-0.00 " class="st7" />
            <text transform="translate(108.44,3.86) rotate(180.00,54.34,13.86)">
                <tspan x="24.39" y="9.08" style="font-family:宋体;fill:#000000;font-size:10pt;">《</tspan>
                <tspan x="37.39" y="9.08" style="font-family:Arial;fill:#000000;font-size:10pt;">return</tspan>
                <tspan x="70.39" y="9.08" style="font-family:宋体;fill:#000000;font-size:10pt;">》</tspan>
                <tspan x="37.39" y="26.08" style="font-family:宋体;fill:#000000;font-size:10pt;">4:</tspan>
                <tspan x="51.39" y="26.08" style="font-family:Arial;fill:#000000;font-size:10pt;">OK</tspan>
            </text>
        </g>
        <g id="185" transform="translate(711.00,341.50) rotate(90.00,19.00,7.50)">
            <path d="M0.00,0.00 L38.00,0.00 L38.00,15.00 L0.00,15.00 L0.00,0.00 z" class="st3" />
        </g>
        <g id="183" transform="translate(705.00,247.50) rotate(90.00,25.00,7.50)">
            <path d="M0.00,0.00 L50.00,0.00 L50.00,15.00 L0.00,15.00 L0.00,0.00 z" class="st3" />
        </g>
        <g id="189" transform="translate(360.00,568.00)">
            <path d="M0.00,-0.00 L362.00,-0.00 " class="st5" />
            <text transform="translate(121.49,-27.72)">
                <tspan x="4.51" y="6.22" style="font-family:宋体;fill:#000000;font-size:10pt;">1:</tspan>
                <tspan x="18.51" y="6.22" style="font-family:Arial;fill:#000000;font-size:10pt;">TabtimeLessin</tspan>
                <tspan x="38.51" y="23.22" style="font-family:Arial;fill:#000000;font-size:10pt;">terval</tspan>
            </text>
        </g>
        <g id="191" transform="translate(360.00,605.00) rotate(180.00,184.75,0.00)">
            <path d="M0.00,-0.00 L369.50,-0.00 " class="st7" />
            <text transform="translate(111.94,3.86) rotate(180.00,54.34,13.86)">
                <tspan x="24.11" y="9.08" style="font-family:宋体;fill:#000000;font-size:10pt;">《</tspan>
                <tspan x="37.11" y="9.08" style="font-family:Arial;fill:#000000;font-size:10pt;">return</tspan>
                <tspan x="70.11" y="9.08" style="font-family:宋体;fill:#000000;font-size:10pt;">》</tspan>
                <tspan x="37.11" y="26.08" style="font-family:宋体;fill:#000000;font-size:10pt;">2:</tspan>
                <tspan x="51.11" y="26.08" style="font-family:Arial;fill:#000000;font-size:10pt;">OK</tspan>
            </text>
        </g>
        <g id="193" transform="translate(340.00,648.00)">
            <path d="M0.00,0.00 L440.00,0.00 L440.00,112.00 L0.00,112.00 L0.00,0.00 z" class="st10" />
            <path d="M0.00,28.00 L440.00,28.00 " class="st2" />
            <path d="M0.00,28.00 L440.00,28.00 " class="st2" />
            <path d="M0.00,28.00 L440.00,28.00 " class="st2" />
            <path d="M0.00,0.00 L110.00,0.00 L88.00,28.00 L0.00,28.00 L0.00,0.00 " class="st2" />
            <text transform="translate(0.00,0.00)">
                <tspan x="27.00" y="17.50" style="font-family:Arial;fill:#000000;font-size:10pt;">loop</tspan>
                <tspan x="51.00" y="17.50" style="font-family:宋体;fill:#000000;font-size:10pt;">[1,</tspan>
                <tspan x="72.00" y="17.50" style="font-family:Arial;fill:#000000;font-size:10pt;">n</tspan>
                <tspan x="79.00" y="17.50" style="font-family:宋体;fill:#000000;font-size:10pt;">]</tspan>
            </text>
        </g>
        <g id="168" transform="translate(310.50,44.90)">
            <g id="169" transform="translate(-0.03,0.12)">
                <path d="M0.00,0.00 L99.21,0.00 L99.21,35.20 L0.00,35.20 L0.00,0.00 z" class="st12" />
                <text transform="translate(0.03,-0.12)">
                    <tspan x="35.50" y="21.60" style="font-family:Arial;fill:#000000;font-size:10pt;">房客</tspan>
                </text>
            </g>
            <g id="170">
                <path d="M49.50,35.10 L49.50,767.10 z" class="st13" />
            </g>
        </g>
        <g id="171" transform="translate(680.00,44.90)">
            <g id="172" transform="translate(-0.03,0.12)">
                <path d="M0.00,0.00 L99.21,0.00 L99.21,35.20 L0.00,35.20 L0.00,0.00 z" class="st12" />
                <text transform="translate(0.03,-0.12)">
                    <tspan x="29.00" y="21.60" style="font-family:Arial;fill:#000000;font-size:10pt;">从控机</tspan>
                </text>
            </g>
            <g id="173">
                <path d="M49.50,35.10 L49.50,775.10 z" class="st14" />
            </g>
        </g>
        <g id="190" transform="translate(711.00,579.00) rotate(90.00,18.50,7.50)">
            <path d="M0.00,0.00 L37.00,0.00 L37.00,15.00 L0.00,15.00 L0.00,0.00 z" class="st3" />
        </g>
        <g id="194" transform="translate(360.00,709.00)">
            <path d="M0.00,-0.00 L364.50,-0.00 " class="st5" />
            <text transform="translate(122.71,-27.72)">
                <tspan x="5.29" y="-2.78" style="font-family:宋体;fill:#000000;font-size:10pt;">1:</tspan>
                <tspan x="19.29" y="-2.78" style="font-family:Arial;fill:#000000;font-size:10pt;">TabtimeOverin</tspan>
                <tspan x="38.29" y="14.22" style="font-family:Arial;fill:#000000;font-size:10pt;">terval</tspan>
            </text>
        </g>
        <g id="195" transform="translate(716.50,717.00) rotate(90.00,15.50,7.50)">
            <path d="M0.00,0.00 L31.00,0.00 L31.00,15.00 L0.00,15.00 L0.00,0.00 z" class="st3" />
        </g>
        <g id="196" transform="translate(360.00,740.00) rotate(180.00,182.25,0.00)">
            <path d="M0.00,-0.00 L364.50,-0.00 " class="st7" />
            <text transform="translate(109.69,3.86) rotate(180.00,54.34,13.86)">
                <tspan x="23.86" y="9.08" style="font-family:宋体;fill:#000000;font-size:10pt;">《</tspan>
                <tspan x="36.86" y="9.08" style="font-family:Arial;fill:#000000;font-size:10pt;">return</tspan>
                <tspan x="69.86" y="9.08" style="font-family:宋体;fill:#000000;font-size:10pt;">》</tspan>
                <tspan x="36.86" y="26.08" style="font-family:宋体;fill:#000000;font-size:10pt;">2:</tspan>
                <tspan x="50.86" y="26.08" style="font-family:Arial;fill:#000000;font-size:10pt;">OK</tspan>
            </text>
        </g>
    </g>
</svg>
