<?xml version="1.0" encoding="utf-8" standalone="no" ?>
<!--Generated by Edraw, SVGExporter, v1.0-->
<svg version="1.1" xmlns="http://www.w3.org/2000/svg" xmlns:xlink="http://www.w3.org/1999/xlink" xmlns:ed="http://www.edrawsoft.com/schema/svg" ed:version="version 5" viewBox="0 0 1188 840">
    <style type="text/css">
        <![CDATA[
            .st1 {fill:url(#grad1);stroke:#A24F08; stroke-width:1; stroke-linejoin:bevel; }
            .st2 {fill:url(#grad2);stroke:#A24F08; stroke-width:1; stroke-linejoin:bevel; }
            .st3 {fill:url(#grad3);stroke:#A24F08; stroke-width:1; stroke-linejoin:bevel; }
            .st4 {fill:url(#grad4);}
            .st5 {fill:none;stroke:#F79646; stroke-width:1; marker-end:url(#mk1); }
            .st6 {fill:url(#grad4);stroke:#F79646; stroke-width:1; marker-end:url(#mk1); }
            .st7 {fill:#FEF1E6;}
            .st8 {fill:none;stroke:#C66009; stroke-width:1; stroke-linejoin:bevel; }
            .st9 {fill:#FEF1E6;stroke:#C66009; stroke-width:1; stroke-linejoin:bevel; }
            .st10 {fill:none;stroke:#F79646; stroke-width:1; stroke-dasharray:6,4; marker-end:url(#mk2); }
            .st11 {fill:url(#grad4);stroke:#F79646; stroke-width:1; stroke-dasharray:6,4; marker-end:url(#mk2); }
            .st12 {fill:url(#grad5);stroke:#A24F08; stroke-width:1; stroke-linejoin:bevel; }
        ]]>

    </style>
    <defs id="Gradients">
        <linearGradient id="grad1" gradientUnits="userSpaceOnUse" x1="0.00" y1="0.00" x2="0.00" y2="1.00">
            <stop offset="0.00" stop-color="#FDEAD9" stop-opacity="1.00" />
            <stop offset="0.50" stop-color="#FCDCC0" stop-opacity="1.00" />
            <stop offset="1.00" stop-color="#FBCDA7" stop-opacity="1.00" />
        </linearGradient>
        <linearGradient id="grad2" gradientUnits="userSpaceOnUse" x1="0.00" y1="0.00" x2="0.00" y2="37.00">
            <stop offset="0.00" stop-color="#FDEAD9" stop-opacity="1.00" />
            <stop offset="0.50" stop-color="#FCDCC0" stop-opacity="1.00" />
            <stop offset="1.00" stop-color="#FBCDA7" stop-opacity="1.00" />
        </linearGradient>
        <linearGradient id="grad3" gradientUnits="userSpaceOnUse" x1="49.00" y1="35.00" x2="49.00" y2="639.00">
            <stop offset="0.00" stop-color="#FDEAD9" stop-opacity="1.00" />
            <stop offset="0.50" stop-color="#FCDCC0" stop-opacity="1.00" />
            <stop offset="1.00" stop-color="#FBCDA7" stop-opacity="1.00" />
        </linearGradient>
        <linearGradient id="grad4" gradientUnits="userSpaceOnUse" x1="0.00" y1="0.00" x2="0.00" y2="1.00">
            <stop offset="0.00" stop-color="#EDF0F7" stop-opacity="1.00" />
            <stop offset="1.00" stop-color="#A6BED0" stop-opacity="1.00" />
        </linearGradient>
        <linearGradient id="grad5" gradientUnits="userSpaceOnUse" x1="49.00" y1="35.00" x2="49.00" y2="637.00">
            <stop offset="0.00" stop-color="#FDEAD9" stop-opacity="1.00" />
            <stop offset="0.50" stop-color="#FCDCC0" stop-opacity="1.00" />
            <stop offset="1.00" stop-color="#FBCDA7" stop-opacity="1.00" />
        </linearGradient>
    </defs>
    <defs id="Markers">
        <marker id="mk1" orient="auto" overflow="visible">
            <path d="M-0.00,-0.00 L-14.00,7.00 L-14.00,-7.00 z " style="fill:#F79646; stroke:none;" />
        </marker>
        <marker id="mk2" orient="auto" overflow="visible">
            <path d="M-0.00,-0.00 L-16.00,8.00 L-0.00,-0.00 L-16.00,-8.00 " style="stroke:#F79646; fill:none;" />
        </marker>
    </defs>
    <defs id="Filters" />
    <g>
        <title>图层-1</title>
        <g id="108" transform="translate(700.00,182.45)">
            <g id="109" transform="translate(-0.03,0.12)">
                <path d="M0.00,0.00 L99.21,0.00 L99.21,35.20 L0.00,35.20 L0.00,0.00 z" class="st2" />
                <text transform="translate(0.03,-0.12)">
                    <tspan x="29.00" y="22.05" style="font-family:Arial;fill:#000000;font-size:10pt;">从控机</tspan>
                </text>
            </g>
            <g id="110">
                <path d="M49.50,35.10 L49.50,637.55 z" class="st3" />
            </g>
        </g>
        <g id="125" transform="translate(320.00,243.78) rotate(-0.33,214.75,0.00)">
            <path d="M0.00,-0.00 L429.51,-0.00 " class="st5" />
            <text transform="translate(154.28,-27.72)">
                <tspan x="18.82" y="5.41" style="font-family:宋体;fill:#000000;font-size:10pt;">1: </tspan>
                <tspan x="39.82" y="5.41" style="font-family:Arial;fill:#000000;font-size:10pt;">Request</tspan>
                <tspan x="26.82" y="22.41" style="font-family:宋体;fill:#000000;font-size:10pt;">[</tspan>
                <tspan x="33.82" y="22.41" style="font-family:Arial;fill:#000000;font-size:10pt;">UserID</tspan>
                <tspan x="72.82" y="22.41" style="font-family:宋体;fill:#000000;font-size:10pt;">]</tspan>
            </text>
        </g>
        <g id="129" transform="translate(293.00,282.55)">
            <path d="M0.00,0.00 L498.00,0.00 L498.00,120.00 L0.00,120.00 L0.00,0.00 z" class="st9" />
            <path d="M0.00,30.00 L498.00,30.00 " class="st8" />
            <path d="M0.00,30.00 L498.00,30.00 " class="st8" />
            <path d="M0.00,30.00 L498.00,30.00 " class="st8" />
            <path d="M0.00,0.00 L124.50,0.00 L99.60,30.00 L0.00,30.00 L0.00,0.00 " class="st8" />
            <text transform="translate(0.00,0.00)">
                <tspan x="55.00" y="18.95" style="font-family:Arial;fill:#000000;font-size:10pt;">opt</tspan>
            </text>
        </g>
        <g id="130" transform="translate(699.50,285.05) rotate(90.00,50.00,7.50)">
            <path d="M0.00,0.00 L100.00,0.00 L100.00,15.00 L0.00,15.00 L0.00,0.00 z" class="st9" />
        </g>
        <g id="131" transform="translate(320.00,343.78) rotate(-0.33,214.75,0.00)">
            <path d="M0.00,-0.00 L429.51,-0.00 " class="st5" />
            <text transform="translate(154.28,-27.72)">
                <tspan x="13.82" y="14.41" style="font-family:宋体;fill:#000000;font-size:10pt;">1: </tspan>
                <tspan x="34.82" y="14.41" style="font-family:Arial;fill:#000000;font-size:10pt;">BootSlave</tspan>
            </text>
        </g>
        <g id="136" transform="translate(320.00,393.78) rotate(179.67,214.75,0.00)">
            <path d="M0.00,-0.00 L429.51,-0.00 " class="st10" />
            <text transform="translate(138.94,3.86) rotate(180.00,54.34,13.86)">
                <tspan x="24.22" y="9.42" style="font-family:宋体;fill:#000000;font-size:10pt;">《</tspan>
                <tspan x="37.22" y="9.42" style="font-family:Arial;fill:#000000;font-size:10pt;">return</tspan>
                <tspan x="70.22" y="9.42" style="font-family:宋体;fill:#000000;font-size:10pt;">》</tspan>
                <tspan x="37.22" y="26.42" style="font-family:宋体;fill:#000000;font-size:10pt;">2:</tspan>
                <tspan x="51.22" y="26.42" style="font-family:Arial;fill:#000000;font-size:10pt;">OK</tspan>
            </text>
        </g>
        <g id="137" transform="translate(292.00,440.00)">
            <path d="M0.00,0.00 L500.00,0.00 L500.00,280.00 L0.00,280.00 L0.00,0.00 z" class="st9" />
            <path d="M0.00,70.00 L500.00,70.00 " class="st8" />
            <path d="M0.00,70.00 L500.00,70.00 " class="st8" />
            <path d="M0.00,70.00 L500.00,70.00 " class="st8" />
            <path d="M0.00,0.00 L125.00,0.00 L100.00,70.00 L0.00,70.00 L0.00,0.00 " class="st8" />
            <text transform="translate(0.00,0.00)">
                <tspan x="57.00" y="37.50" style="font-family:Arial;fill:#000000;font-size:10pt;">alt</tspan>
            </text>
        </g>
        <g id="132" transform="translate(270.50,184.90)">
            <g id="133" transform="translate(-0.03,0.12)">
                <path d="M0.00,0.00 L99.21,0.00 L99.21,35.20 L0.00,35.20 L0.00,0.00 z" class="st2" />
                <text transform="translate(0.03,-0.12)">
                    <tspan x="35.50" y="21.60" style="font-family:Arial;fill:#000000;font-size:10pt;">房客</tspan>
                </text>
            </g>
            <g id="134">
                <path d="M49.50,35.10 L49.50,635.10 z" class="st12" />
            </g>
        </g>
        <g id="140" transform="translate(732.28,359.78) rotate(90.00,24.72,7.50)">
            <path d="M0.00,0.00 L49.45,0.00 L49.45,15.00 L0.00,15.00 L0.00,0.00 z" class="st9" />
        </g>
        <g id="141" transform="translate(674.50,460.05) rotate(90.00,75.00,7.50)">
            <path d="M0.00,0.00 L150.00,0.00 L150.00,15.00 L0.00,15.00 L0.00,0.00 z" class="st9" />
        </g>
        <g id="143" transform="translate(320.00,543.78) rotate(-0.33,214.75,0.00)">
            <path d="M0.00,-0.00 L429.51,-0.00 " class="st5" />
            <text transform="translate(154.28,-27.72)">
                <tspan x="24.82" y="5.41" style="font-family:宋体;fill:#000000;font-size:10pt;">1:</tspan>
                <tspan x="38.82" y="5.41" style="font-family:Arial;fill:#000000;font-size:10pt;">AdjustT</tspan>
            </text>
        </g>
        <g id="144" transform="translate(730.00,562.50) rotate(90.00,30.00,7.50)">
            <path d="M0.00,0.00 L60.00,0.00 L60.00,15.00 L0.00,15.00 L0.00,0.00 z" class="st9" />
        </g>
        <g id="145" transform="translate(320.00,593.78) rotate(179.67,214.75,0.00)">
            <path d="M0.00,-0.00 L429.51,-0.00 " class="st10" />
            <text transform="translate(138.94,3.86) rotate(180.00,54.34,13.86)">
                <tspan x="24.22" y="9.42" style="font-family:宋体;fill:#000000;font-size:10pt;">《</tspan>
                <tspan x="37.22" y="9.42" style="font-family:Arial;fill:#000000;font-size:10pt;">return</tspan>
                <tspan x="70.22" y="9.42" style="font-family:宋体;fill:#000000;font-size:10pt;">》</tspan>
                <tspan x="37.22" y="26.42" style="font-family:宋体;fill:#000000;font-size:10pt;">2:</tspan>
                <tspan x="51.22" y="26.42" style="font-family:Arial;fill:#000000;font-size:10pt;">OK</tspan>
            </text>
        </g>
        <g id="146" transform="translate(722.50,622.50) rotate(90.00,30.00,7.50)">
            <path d="M0.00,0.00 L60.00,0.00 L60.00,15.00 L0.00,15.00 L0.00,0.00 z" class="st9" />
        </g>
        <g id="147" transform="translate(734.00,678.50) rotate(90.00,26.00,7.50)">
            <path d="M0.00,0.00 L52.00,0.00 L52.00,15.00 L0.00,15.00 L0.00,0.00 z" class="st9" />
        </g>
        <g id="148" transform="translate(320.00,662.78) rotate(-0.33,214.75,0.00)">
            <path d="M0.00,-0.00 L429.51,-0.00 " class="st5" />
            <text transform="translate(154.28,-27.72)">
                <tspan x="12.82" y="14.41" style="font-family:宋体;fill:#000000;font-size:10pt;">3:</tspan>
                <tspan x="26.82" y="14.41" style="font-family:Arial;fill:#000000;font-size:10pt;">AdjustWind</tspan>
            </text>
        </g>
        <g id="149" transform="translate(328.00,710.00) rotate(180.00,212.25,0.00)">
            <path d="M0.00,-0.00 L424.50,-0.00 " class="st10" />
            <text transform="translate(136.69,3.86) rotate(180.00,54.34,13.86)">
                <tspan x="23.86" y="9.08" style="font-family:宋体;fill:#000000;font-size:10pt;">《</tspan>
                <tspan x="36.86" y="9.08" style="font-family:Arial;fill:#000000;font-size:10pt;">return</tspan>
                <tspan x="69.86" y="9.08" style="font-family:宋体;fill:#000000;font-size:10pt;">》</tspan>
                <tspan x="36.86" y="26.08" style="font-family:宋体;fill:#000000;font-size:10pt;">4:</tspan>
                <tspan x="50.86" y="26.08" style="font-family:Arial;fill:#000000;font-size:10pt;">OK</tspan>
            </text>
        </g>
        <g id="150" transform="translate(705.28,748.28) rotate(90.00,44.22,7.50)">
            <path d="M0.00,0.00 L88.45,0.00 L88.45,15.00 L0.00,15.00 L0.00,0.00 z" class="st9" />
        </g>
        <g id="151" transform="translate(320.00,800.00) rotate(180.00,224.00,0.00)">
            <path d="M0.00,-0.00 L448.00,-0.00 " class="st10" />
            <text transform="translate(147.26,3.86) rotate(180.00,54.34,13.86)">
                <tspan x="23.94" y="9.08" style="font-family:宋体;fill:#000000;font-size:10pt;">《</tspan>
                <tspan x="36.94" y="9.08" style="font-family:Arial;fill:#000000;font-size:10pt;">return</tspan>
                <tspan x="69.94" y="9.08" style="font-family:宋体;fill:#000000;font-size:10pt;">》</tspan>
                <tspan x="36.94" y="26.08" style="font-family:宋体;fill:#000000;font-size:10pt;">2:</tspan>
                <tspan x="50.94" y="26.08" style="font-family:Arial;fill:#000000;font-size:10pt;">OK</tspan>
            </text>
        </g>
    </g>
</svg>
