<?xml version="1.0"?>
<svg width="608" height="476" xmlns="http://www.w3.org/2000/svg" xmlns:svg="http://www.w3.org/2000/svg">
 <defs>
  <filter y="0" x="0" id="shadow" filterRes="100">
   <feGaussianBlur stdDeviation="2 2"/>
  </filter>
  <linearGradient y2="100%" y1="0%" x2="100%" x1="0%" id="lightgrey">
   <stop stop-color="rgb(255,255,255)" offset="0%"/>
   <stop stop-color="rgb(220,220,220)" offset="100%"/>
  </linearGradient>
  <linearGradient y2="100%" y1="0%" x2="100%" x1="0%" id="black">
   <stop stop-color="rgb(150,150,150)" stop-opacity="2" offset="0%"/>
   <stop stop-color="rgb(0,0,0)" stop-opacity="2" offset="100%"/>
  </linearGradient>
 </defs>
 <g transform="scale(1) translate(4,472) " id="graph0" class="graph">
  <title>G</title>
  <g id="clust1" class="cluster">
   <title>clusterActors</title>
   <polygon id="svg_1" points="7,-22 7,-292 95,-292 95,-22 7,-22" fill="none"/>
  </g>
  <g id="clust2" class="cluster">
   <title>clusteryuml_a1___</title>
   <polygon id="svg_2" points="15,-161 15,-284 87,-284 87,-161 15,-161" fill="none"/>
   <text id="svg_3" font-size="10px" font-family="Verdana" y="-170.8" x="51" text-anchor="middle">a1管理员</text>
  </g>
  <g id="clust3" class="cluster">
   <title>clusteryuml_a2___</title>
   <polygon id="svg_4" points="15,-30 15,-153 87,-153 87,-30 15,-30" fill="none"/>
   <text id="svg_5" font-size="10px" font-family="Verdana" y="-39.8" x="51" text-anchor="middle">a2从控机</text>
  </g>
  <g id="clust4" class="cluster">
   <title>clusterSystem</title>
   <polygon id="svg_6" points="116,-8 116,-460 592,-460 592,-8 116,-8" fill="none"/>
  </g>
  <g id="node1" class="node">
   <title>yuml_a1___</title>
   <g id="svg_7" transform="translate(30.75,-265.5) scale(0.75) " fill-rule="evenodd" fill="none">
    <g id="svg_8" stroke="#000000">
     <path id="svg_9" d="m32.5,29c8.00813,0 14.5,-6.49187 14.5,-14.5c0,-8.00813 -6.49187,-14.5 -14.5,-14.5c-8.00813,0 -14.5,6.49187 -14.5,14.5c0,8.00813 6.49187,14.5 14.5,14.5z"/>
     <path id="svg_10" fill="none" stroke="black" stroke-opacity="0.3" filter="url(#shadow)" d="m32.5,29c8.00813,0 14.5,-6.49187 14.5,-14.5c0,-8.00813 -6.49187,-14.5 -14.5,-14.5c-8.00813,0 -14.5,6.49187 -14.5,14.5c0,8.00813 6.49187,14.5 14.5,14.5z"/>
     <path id="svg_11" stroke-linecap="square" d="m-0.5,38.5l65.03076,0"/>
     <path id="svg_12" fill="none" stroke="black" stroke-opacity="0.3" stroke-linecap="square" filter="url(#shadow)" d="m-0.5,38.5l65.03076,0"/>
     <path id="svg_13" stroke-linecap="square" d="m32.5,69l25.5,42"/>
     <path id="svg_14" fill="none" stroke="black" stroke-opacity="0.3" stroke-linecap="square" filter="url(#shadow)" d="m32.5,69l25.5,42"/>
     <path id="svg_15" stroke-linecap="square" d="m32.5,69l-25.5,42"/>
     <path id="svg_16" fill="none" stroke="black" stroke-opacity="0.3" stroke-linecap="square" filter="url(#shadow)" d="m32.5,69l-25.5,42"/>
     <path id="svg_17" stroke-linecap="square" d="m32.5,29.5l0,40.5"/>
     <path id="svg_18" fill="none" stroke="black" stroke-opacity="0.3" stroke-linecap="square" filter="url(#shadow)" d="m32.5,29.5l0,40.5"/>
    </g>
   </g>
  </g>
  <g id="node3" class="node">
   <title>yuml_c1______</title>
   <ellipse id="svg_19" fill-opacity="0.2" ry="23.1702" rx="82.9636" filter="url(#shadow)" fill="black" cy="-364" cx="217"/>
   <ellipse id="svg_20" stroke="black" ry="23.1702" rx="82.9636" fill="url(#lightgrey)" cy="-364" cx="217"/>
   <text id="svg_21" font-size="10px" font-family="Verdana" y="-362.3" x="217" text-anchor="middle">c1运行状态切换</text>
  </g>
  <g id="edge1" class="edge">
   <title>yuml_a1___-&gt;yuml_c1______</title>
   <path id="svg_22" stroke="black" fill="none" d="m71.26,-275.56c10.7584,-19.233 25.8331,-40.972 44.74,-55.44c10.454,-7.999 22.937,-14.109 35.482,-18.76"/>
   <path id="svg_23" stroke-opacity="0.1" stroke="{@stroke}" filter="url(#shadow)" fill="none" d="m71.26,-275.56c10.7584,-19.233 25.8331,-40.972 44.74,-55.44c10.454,-7.999 22.937,-14.109 35.482,-18.76"/>
  </g>
  <g id="node4" class="node">
   <title>yuml_c2______</title>
   <ellipse id="svg_24" fill-opacity="0.2" ry="23.1702" rx="82.9636" filter="url(#shadow)" fill="black" cy="-299" cx="217"/>
   <ellipse id="svg_25" stroke="black" ry="23.1702" rx="82.9636" fill="url(#lightgrey)" cy="-299" cx="217"/>
   <text id="svg_26" font-size="10px" font-family="Verdana" y="-297.3" x="217" text-anchor="middle">c2选项配置更改</text>
  </g>
  <g id="edge2" class="edge">
   <title>yuml_a1___-&gt;yuml_c2______</title>
   <path id="svg_27" stroke="black" fill="none" d="m78.0688,-248.108c11.4586,-5.92 25.1842,-12.634 37.9312,-17.892c14.028,-5.786 29.471,-11.289 43.938,-16.084"/>
   <path id="svg_28" stroke-opacity="0.1" stroke="{@stroke}" filter="url(#shadow)" fill="none" d="m78.0688,-248.108c11.4586,-5.92 25.1842,-12.634 37.9312,-17.892c14.028,-5.786 29.471,-11.289 43.938,-16.084"/>
  </g>
  <g id="node5" class="node">
   <title>yuml_c3____</title>
   <ellipse id="svg_29" fill-opacity="0.2" ry="23.1702" rx="62.4516" filter="url(#shadow)" fill="black" cy="-234" cx="217"/>
   <ellipse id="svg_30" stroke="black" ry="23.1702" rx="62.4516" fill="url(#lightgrey)" cy="-234" cx="217"/>
   <text id="svg_31" font-size="10px" font-family="Verdana" y="-232.3" x="217" text-anchor="middle">c3报表管理</text>
  </g>
  <g id="edge3" class="edge">
   <title>yuml_a1___-&gt;yuml_c3____</title>
   <path id="svg_32" stroke="black" fill="none" d="m78.3494,-234c20.5537,0 49.9396,0 76.2856,0"/>
   <path id="svg_33" stroke-opacity="0.1" stroke="{@stroke}" filter="url(#shadow)" fill="none" d="m78.3494,-234c20.5537,0 49.9396,0 76.2856,0"/>
  </g>
  <g id="node6" class="node">
   <title>yuml_c4_______</title>
   <ellipse id="svg_34" fill-opacity="0.2" ry="23.1702" rx="92.7622" filter="url(#shadow)" fill="black" cy="-169" cx="217"/>
   <ellipse id="svg_35" stroke="black" ry="23.1702" rx="92.7622" fill="url(#lightgrey)" cy="-169" cx="217"/>
   <text id="svg_36" font-size="10px" font-family="Verdana" y="-167.3" x="217" text-anchor="middle">c4从控机状态监测</text>
  </g>
  <g id="edge4" class="edge">
   <title>yuml_a1___-&gt;yuml_c4_______</title>
   <path id="svg_37" stroke="black" fill="none" d="m78.0688,-219.892c11.4586,5.92 25.1842,12.634 37.9312,17.892c13.183,5.437 27.616,10.625 41.313,15.21"/>
   <path id="svg_38" stroke-opacity="0.1" stroke="{@stroke}" filter="url(#shadow)" fill="none" d="m78.0688,-219.892c11.4586,5.92 25.1842,12.634 37.9312,17.892c13.183,5.437 27.616,10.625 41.313,15.21"/>
  </g>
  <g id="node2" class="node">
   <title>yuml_a2___</title>
   <g id="svg_39" transform="translate(30.75,-134.5) scale(0.75) " fill-rule="evenodd" fill="none">
    <g id="svg_40" stroke="#000000">
     <path id="svg_41" d="m32.5,29c8.00813,0 14.5,-6.49187 14.5,-14.5c0,-8.00813 -6.49187,-14.5 -14.5,-14.5c-8.00813,0 -14.5,6.49187 -14.5,14.5c0,8.00813 6.49187,14.5 14.5,14.5z"/>
     <path id="svg_42" fill="none" stroke="black" stroke-opacity="0.3" filter="url(#shadow)" d="m32.5,29c8.00813,0 14.5,-6.49187 14.5,-14.5c0,-8.00813 -6.49187,-14.5 -14.5,-14.5c-8.00813,0 -14.5,6.49187 -14.5,14.5c0,8.00813 6.49187,14.5 14.5,14.5z"/>
     <path id="svg_43" stroke-linecap="square" d="m-0.5,38.5l65.03076,0"/>
     <path id="svg_44" fill="none" stroke="black" stroke-opacity="0.3" stroke-linecap="square" filter="url(#shadow)" d="m-0.5,38.5l65.03076,0"/>
     <path id="svg_45" stroke-linecap="square" d="m32.5,69l25.5,42"/>
     <path id="svg_46" fill="none" stroke="black" stroke-opacity="0.3" stroke-linecap="square" filter="url(#shadow)" d="m32.5,69l25.5,42"/>
     <path id="svg_47" stroke-linecap="square" d="m32.5,69l-25.5,42"/>
     <path id="svg_48" fill="none" stroke="black" stroke-opacity="0.3" stroke-linecap="square" filter="url(#shadow)" d="m32.5,69l-25.5,42"/>
     <path id="svg_49" stroke-linecap="square" d="m32.5,29.5l0,40.5"/>
     <path id="svg_50" fill="none" stroke="black" stroke-opacity="0.3" stroke-linecap="square" filter="url(#shadow)" d="m32.5,29.5l0,40.5"/>
    </g>
   </g>
  </g>
  <g id="node12" class="node">
   <title>yuml_c5____</title>
   <ellipse id="svg_51" fill-opacity="0.2" ry="23.1702" rx="62.4516" filter="url(#shadow)" fill="black" cy="-104" cx="217"/>
   <ellipse id="svg_52" stroke="black" ry="23.1702" rx="62.4516" fill="url(#lightgrey)" cy="-104" cx="217"/>
   <text id="svg_53" font-size="10px" font-family="Verdana" y="-102.3" x="217" text-anchor="middle">c5信息获取</text>
  </g>
  <g id="edge5" class="edge">
   <title>yuml_a2___-&gt;yuml_c5____</title>
   <path id="svg_54" stroke="black" fill="none" d="m78.3494,-103.161c20.5537,-0.125 49.9396,-0.304 76.2856,-0.465"/>
   <path id="svg_55" stroke-opacity="0.1" stroke="{@stroke}" filter="url(#shadow)" fill="none" d="m78.3494,-103.161c20.5537,-0.125 49.9396,-0.304 76.2856,-0.465"/>
  </g>
  <g id="node13" class="node">
   <title>yuml_c6_____</title>
   <ellipse id="svg_56" fill-opacity="0.2" ry="23.1702" rx="72.6644" filter="url(#shadow)" fill="black" cy="-39" cx="217"/>
   <ellipse id="svg_57" stroke="black" ry="23.1702" rx="72.6644" fill="url(#lightgrey)" cy="-39" cx="217"/>
   <text id="svg_58" font-size="10px" font-family="Verdana" y="-37.3" x="217" text-anchor="middle">c6从控机调控</text>
  </g>
  <g id="edge6" class="edge">
   <title>yuml_a2___-&gt;yuml_c6_____</title>
   <path id="svg_59" stroke="black" fill="none" d="m78.1132,-89.3825c11.4664,5.7255 25.1858,12.237 37.8868,17.3825c15.25,6.178 32.137,12.0907 47.625,17.1612"/>
   <path id="svg_60" stroke-opacity="0.1" stroke="{@stroke}" filter="url(#shadow)" fill="none" d="m78.1132,-89.3825c11.4664,5.7255 25.1858,12.237 37.8868,17.3825c15.25,6.178 32.137,12.0907 47.625,17.1612"/>
  </g>
  <g id="node7" class="node">
   <title>yuml_i1_____</title>
   <ellipse id="svg_61" fill-opacity="0.2" ry="23.1702" rx="70.922" filter="url(#shadow)" fill="black" cy="-364" cx="502"/>
   <ellipse id="svg_62" stroke="black" ry="23.1702" rx="70.922" fill="url(#lightgrey)" cy="-364" cx="502"/>
   <text id="svg_63" font-size="10px" font-family="Verdana" y="-362.3" x="502" text-anchor="middle">i1主控机开机</text>
  </g>
  <g id="edge7" class="edge">
   <title>yuml_c1______-&gt;yuml_i1_____</title>
   <path id="svg_64" stroke-dasharray="5,2" stroke="black" fill="none" d="m299.855,-364c37.901,0 82.789,0 120.535,0"/>
   <path id="svg_65" stroke-opacity="0.1" stroke-dasharray="5,2" stroke="{@stroke}" filter="url(#shadow)" fill="none" d="m299.855,-364c37.901,0 82.789,0 120.535,0"/>
   <polygon id="svg_66" fill-opacity="0.2" points="430.835,-364 420.835,-368.5 425.835,-364 420.835,-364 420.835,-364 420.835,-364 425.835,-364 420.835,-359.5 430.835,-364 430.835,-364" filter="url(#shadow)" fill="black"/>
   <polygon id="svg_67" stroke="black" points="430.835,-364 420.835,-368.5 425.835,-364 420.835,-364 420.835,-364 420.835,-364 425.835,-364 420.835,-359.5 430.835,-364 430.835,-364" fill="url(#black)"/>
   <text id="svg_68" font-size="8px" font-family="Verdana" y="-371.8" x="365" text-anchor="middle">&lt;&lt;include&gt;&gt;</text>
  </g>
  <g id="node8" class="node">
   <title>yuml_i2_____</title>
   <ellipse id="svg_69" fill-opacity="0.2" ry="23.1702" rx="70.922" filter="url(#shadow)" fill="black" cy="-429" cx="502"/>
   <ellipse id="svg_70" stroke="black" ry="23.1702" rx="70.922" fill="url(#lightgrey)" cy="-429" cx="502"/>
   <text id="svg_71" font-size="10px" font-family="Verdana" y="-427.3" x="502" text-anchor="middle">i2主控机关机</text>
  </g>
  <g id="edge8" class="edge">
   <title>yuml_c1______-&gt;yuml_i2_____</title>
   <path id="svg_72" stroke-dasharray="5,2" stroke="black" fill="none" d="m281.511,-378.587c45.243,-10.392 105.957,-24.337 152.061,-34.926"/>
   <path id="svg_73" stroke-opacity="0.1" stroke-dasharray="5,2" stroke="{@stroke}" filter="url(#shadow)" fill="none" d="m281.511,-378.587c45.243,-10.392 105.957,-24.337 152.061,-34.926"/>
   <polygon id="svg_74" fill-opacity="0.2" points="443.472,-415.787 432.719,-417.934 438.599,-414.668 433.726,-413.548 433.726,-413.548 433.726,-413.548 438.599,-414.668 434.733,-409.163 443.472,-415.787 443.472,-415.787" filter="url(#shadow)" fill="black"/>
   <polygon id="svg_75" stroke="black" points="443.472,-415.787 432.719,-417.934 438.599,-414.668 433.726,-413.548 433.726,-413.548 433.726,-413.548 438.599,-414.668 434.733,-409.163 443.472,-415.787 443.472,-415.787" fill="url(#black)"/>
   <text id="svg_76" font-size="8px" font-family="Verdana" y="-413.8" x="365" text-anchor="middle">&lt;&lt;include&gt;&gt;</text>
  </g>
  <g id="node9" class="node">
   <title>yuml_i3______</title>
   <ellipse id="svg_77" fill-opacity="0.2" ry="23.1702" rx="81.135" filter="url(#shadow)" fill="black" cy="-234" cx="502"/>
   <ellipse id="svg_78" stroke="black" ry="23.1702" rx="81.135" fill="url(#lightgrey)" cy="-234" cx="502"/>
   <text id="svg_79" font-size="10px" font-family="Verdana" y="-232.3" x="502" text-anchor="middle">i3报表导入导出</text>
  </g>
  <g id="edge9" class="edge">
   <title>yuml_c3____-&gt;yuml_i3______</title>
   <path id="svg_80" stroke-dasharray="5,2" stroke="black" fill="none" d="m289.596,-234c39.926,0 89.768,0 131.028,0"/>
   <path id="svg_81" stroke-opacity="0.1" stroke-dasharray="5,2" stroke="{@stroke}" filter="url(#shadow)" fill="none" d="m289.596,-234c39.926,0 89.768,0 131.028,0"/>
   <polygon id="svg_82" fill-opacity="0.2" points="279.407,-234 289.407,-229.5 284.407,-234 289.407,-234 289.407,-234 289.407,-234 284.407,-234 289.407,-238.5 279.407,-234 279.407,-234" filter="url(#shadow)" fill="black"/>
   <polygon id="svg_83" stroke="black" points="279.407,-234 289.407,-229.5 284.407,-234 289.407,-234 289.407,-234 289.407,-234 284.407,-234 289.407,-238.5 279.407,-234 279.407,-234" fill="url(#black)"/>
   <text id="svg_84" font-size="8px" font-family="Verdana" y="-241.8" x="365" text-anchor="middle">&lt;&lt;extend&gt;&gt;</text>
  </g>
  <g id="node10" class="node">
   <title>yuml_i4____</title>
   <ellipse id="svg_85" fill-opacity="0.2" ry="23.1702" rx="60.623" filter="url(#shadow)" fill="black" cy="-299" cx="502"/>
   <ellipse id="svg_86" stroke="black" ry="23.1702" rx="60.623" fill="url(#lightgrey)" cy="-299" cx="502"/>
   <text id="svg_87" font-size="10px" font-family="Verdana" y="-297.3" x="502" text-anchor="middle">i4报表查询</text>
  </g>
  <g id="edge10" class="edge">
   <title>yuml_c3____-&gt;yuml_i4____</title>
   <path id="svg_88" stroke-dasharray="5,2" stroke="black" fill="none" d="m280.114,-248.266c50.796,-11.667 121.772,-27.969 169.432,-38.916"/>
   <path id="svg_89" stroke-opacity="0.1" stroke-dasharray="5,2" stroke="{@stroke}" filter="url(#shadow)" fill="none" d="m280.114,-248.266c50.796,-11.667 121.772,-27.969 169.432,-38.916"/>
   <polygon id="svg_90" fill-opacity="0.2" points="270.236,-245.998 280.99,-243.851 275.109,-247.117 279.983,-248.236 279.983,-248.236 279.983,-248.236 275.109,-247.117 278.975,-252.622 270.236,-245.998 270.236,-245.998" filter="url(#shadow)" fill="black"/>
   <polygon id="svg_91" stroke="black" points="270.236,-245.998 280.99,-243.851 275.109,-247.117 279.983,-248.236 279.983,-248.236 279.983,-248.236 275.109,-247.117 278.975,-252.622 270.236,-245.998 270.236,-245.998" fill="url(#black)"/>
   <text id="svg_92" font-size="8px" font-family="Verdana" y="-283.8" x="365" text-anchor="middle">&lt;&lt;extend&gt;&gt;</text>
  </g>
  <g id="node11" class="node">
   <title>yuml_____</title>
   <ellipse id="svg_93" fill-opacity="0.2" ry="23.1702" rx="53.9813" filter="url(#shadow)" fill="black" cy="-169" cx="502"/>
   <ellipse id="svg_94" stroke="black" ry="23.1702" rx="53.9813" fill="url(#lightgrey)" cy="-169" cx="502"/>
   <text id="svg_95" font-size="10px" font-family="Verdana" y="-167.3" x="502" text-anchor="middle">费用统计</text>
  </g>
  <g id="edge11" class="edge">
   <title>yuml_c4_______-&gt;yuml_____</title>
   <path id="svg_96" stroke-dasharray="5,2" stroke="black" fill="none" d="m309.882,-169c41.75,0 90.098,0 127.719,0"/>
   <path id="svg_97" stroke-opacity="0.1" stroke-dasharray="5,2" stroke="{@stroke}" filter="url(#shadow)" fill="none" d="m309.882,-169c41.75,0 90.098,0 127.719,0"/>
   <polygon id="svg_98" fill-opacity="0.2" points="447.914,-169 437.914,-173.5 442.914,-169 437.914,-169 437.914,-169 437.914,-169 442.914,-169 437.914,-164.5 447.914,-169 447.914,-169" filter="url(#shadow)" fill="black"/>
   <polygon id="svg_99" stroke="black" points="447.914,-169 437.914,-173.5 442.914,-169 437.914,-169 437.914,-169 437.914,-169 442.914,-169 437.914,-164.5 447.914,-169 447.914,-169" fill="url(#black)"/>
   <text id="svg_100" font-size="8px" font-family="Verdana" y="-176.8" x="365" text-anchor="middle">&lt;&lt;include&gt;&gt;</text>
  </g>
  <g id="node14" class="node">
   <title>yuml_i1____</title>
   <ellipse id="svg_101" fill-opacity="0.2" ry="23.1702" rx="60.623" filter="url(#shadow)" fill="black" cy="-39" cx="502"/>
   <ellipse id="svg_102" stroke="black" ry="23.1702" rx="60.623" fill="url(#lightgrey)" cy="-39" cx="502"/>
   <text id="svg_103" font-size="10px" font-family="Verdana" y="-37.3" x="502" text-anchor="middle">i1调节温度</text>
  </g>
  <g id="edge12" class="edge">
   <title>yuml_c6_____-&gt;yuml_i1____</title>
   <path id="svg_104" stroke-dasharray="5,2" stroke="black" fill="none" d="m300.178,-39c45.004,0 99.784,0 140.755,0"/>
   <path id="svg_105" stroke-opacity="0.1" stroke-dasharray="5,2" stroke="{@stroke}" filter="url(#shadow)" fill="none" d="m300.178,-39c45.004,0 99.784,0 140.755,0"/>
   <polygon id="svg_106" fill-opacity="0.2" points="290.145,-39 300.145,-34.5001 295.145,-39 300.145,-39.0001 300.145,-39.0001 300.145,-39.0001 295.145,-39 300.145,-43.5001 290.145,-39 290.145,-39" filter="url(#shadow)" fill="black"/>
   <polygon id="svg_107" stroke="black" points="290.145,-39 300.145,-34.5001 295.145,-39 300.145,-39.0001 300.145,-39.0001 300.145,-39.0001 295.145,-39 300.145,-43.5001 290.145,-39 290.145,-39" fill="url(#black)"/>
   <text id="svg_108" font-size="8px" font-family="Verdana" y="-46.8" x="365" text-anchor="middle">&lt;&lt;extend&gt;&gt;</text>
  </g>
  <g id="node15" class="node">
   <title>yuml_i2____</title>
   <ellipse id="svg_109" fill-opacity="0.2" ry="23.1702" rx="60.623" filter="url(#shadow)" fill="black" cy="-104" cx="502"/>
   <ellipse id="svg_110" stroke="black" ry="23.1702" rx="60.623" fill="url(#lightgrey)" cy="-104" cx="502"/>
   <text id="svg_111" font-size="10px" font-family="Verdana" y="-102.3" x="502" text-anchor="middle">i2调节风速</text>
  </g>
  <g id="edge13" class="edge">
   <title>yuml_c6_____-&gt;yuml_i2____</title>
   <path id="svg_112" stroke-dasharray="5,2" stroke="black" fill="none" d="m286.448,-54.7214c50.239,-11.5389 117.406,-26.9659 163.116,-37.4646"/>
   <path id="svg_113" stroke-opacity="0.1" stroke-dasharray="5,2" stroke="{@stroke}" filter="url(#shadow)" fill="none" d="m286.448,-54.7214c50.239,-11.5389 117.406,-26.9659 163.116,-37.4646"/>
   <polygon id="svg_114" fill-opacity="0.2" points="276.638,-52.468 287.391,-50.3208 281.511,-53.5873 286.384,-54.7067 286.384,-54.7067 286.384,-54.7067 281.511,-53.5873 285.377,-59.0925 276.638,-52.468 276.638,-52.468" filter="url(#shadow)" fill="black"/>
   <polygon id="svg_115" stroke="black" points="276.638,-52.468 287.391,-50.3208 281.511,-53.5873 286.384,-54.7067 286.384,-54.7067 286.384,-54.7067 281.511,-53.5873 285.377,-59.0925 276.638,-52.468 276.638,-52.468" fill="url(#black)"/>
   <text id="svg_116" font-size="8px" font-family="Verdana" y="-89.8" x="365" text-anchor="middle">&lt;&lt;extend&gt;&gt;</text>
  </g>
  <rect id="svg_118" height="445.999987" width="479.999986" y="-456" x="108.666684" fill-opacity="0" stroke="#000000" fill="#000000"/>
 </g>
</svg>