<?xml version="1.0"?>
<svg width="620" height="556" xmlns="http://www.w3.org/2000/svg" xmlns:svg="http://www.w3.org/2000/svg">
 <defs>
  <filter y="0" x="0" id="shadow" filterRes="100">
   <feGaussianBlur stdDeviation="2 2"/>
  </filter>
  <linearGradient y2="100%" y1="0%" x2="100%" x1="0%" id="lightgrey">
   <stop stop-color="rgb(255,255,255)" offset="0%"/>
   <stop stop-color="rgb(220,220,220)" offset="100%"/>
  </linearGradient>
  <linearGradient y2="100%" y1="0%" x2="100%" x1="0%" id="black">
   <stop stop-color="rgb(150,150,150)" stop-opacity="2" offset="0%"/>
   <stop stop-color="rgb(0,0,0)" stop-opacity="2" offset="100%"/>
  </linearGradient>
 </defs>
 <g transform="scale(1) translate(4,552) " id="graph0" class="graph">
  <title>G</title>
  <g id="clust1" class="cluster">
   <title>clusterActors</title>
   <polygon id="svg_1" points="3,-8 14.2728874072992,-333.4232132758748 3,-540 3,-540 33.619000884218444,-538.08 99,-540 99,-540 111.03333611026818,-158.03592661352855 99,-8 99,-8 48.80279684460012,-6.08 3,-8 " fill="none"/>
  </g>
  <g id="clust2" class="cluster">
   <title>clusteryuml_a____</title>
   <polygon id="svg_2" points="11,-409 13.46,-432.1547024963268 11,-532 11,-532 18.398481062288685,-530.4 91,-532 91,-532 93.46,-496.24204627005906 91,-409 91,-409 78.37001856065301,-407.4 11,-409 " fill="none"/>
   <text id="svg_3" font-size="13px" font-family="Rufscript" y="-418.8" x="51" text-anchor="middle">运维人员</text>
  </g>
  <g id="clust3" class="cluster">
   <title>clusteryuml_b____</title>
   <polygon id="svg_4" points="11,-278 13.46,-276.43126445610767 11,-401 11,-401 42.80095223680565,-399.4 91,-401 91,-401 93.46,-390.1268096361712 91,-278 91,-278 50.54014964663443,-276.4 11,-278 " fill="none"/>
   <text id="svg_5" font-size="13px" font-family="Rufscript" y="-287.8" x="51" text-anchor="middle">财务人员</text>
  </g>
  <g id="clust4" class="cluster">
   <title>clusteryuml_c__</title>
   <polygon id="svg_6" points="16,-147 18.46,-159.50764935074204 16,-270 16,-270 21.30451719951968,-268.6 86,-270 86,-270 88.46,-208.07163273518796 86,-147 86,-147 87.20208527962275,-145.6 16,-147 " fill="none"/>
   <text id="svg_7" font-size="13px" font-family="Rufscript" y="-156.8" x="51" text-anchor="middle">前台</text>
  </g>
  <g id="clust5" class="cluster">
   <title>clusteryuml_d___</title>
   <polygon id="svg_8" points="16,-16 18.46,-21.199300947835866 16,-139 16,-139 49.162005482614404,-137.6 86,-139 86,-139 88.46,-109.11486811531611 86,-16 86,-16 47.13993053784394,-14.6 16,-16 " fill="none"/>
   <text id="svg_9" font-size="13px" font-family="Rufscript" y="-25.8" x="51" text-anchor="middle">从控机</text>
  </g>
  <g id="clust6" class="cluster">
   <title>clusterSystem</title>
   <polygon id="svg_10" points="124,-61 133.07397331076427,-59.62098157734522 124,-513 124,-513 170.31421696948553,-503.24702409596046 604,-513 604,-513 613.04,-295.04277209175495 604,-61 604,-61 546.4366487306429,-51.26007635152217 124,-61 " fill="none"/>
  </g>
  <g id="node1" class="node">
   <title>yuml_a____</title>
   <g id="svg_11" transform="translate(30.75,-513.5) scale(0.75) " fill-rule="evenodd" fill="none">
    <g id="svg_12" stroke="#000000">
     <path id="svg_13" d="m32.5,29c8.00813,0 14.5,-6.49187 14.5,-14.5c0,-8.00813 -6.49187,-14.5 -14.5,-14.5c-8.00813,0 -14.5,6.49187 -14.5,14.5c0,8.00813 6.49187,14.5 14.5,14.5z"/>
     <path id="svg_14" fill="none" stroke="black" stroke-opacity="0.3" filter="url(#shadow)" d="m32.5,29c8.00813,0 14.5,-6.49187 14.5,-14.5c0,-8.00813 -6.49187,-14.5 -14.5,-14.5c-8.00813,0 -14.5,6.49187 -14.5,14.5c0,8.00813 6.49187,14.5 14.5,14.5z"/>
     <path id="svg_15" stroke-linecap="square" d="m-0.5,38.5l65.03076,0"/>
     <path id="svg_16" fill="none" stroke="black" stroke-opacity="0.3" stroke-linecap="square" filter="url(#shadow)" d="m-0.5,38.5l65.03076,0"/>
     <path id="svg_17" stroke-linecap="square" d="m32.5,69l25.5,42"/>
     <path id="svg_18" fill="none" stroke="black" stroke-opacity="0.3" stroke-linecap="square" filter="url(#shadow)" d="m32.5,69l25.5,42"/>
     <path id="svg_19" stroke-linecap="square" d="m32.5,69l-25.5,42"/>
     <path id="svg_20" fill="none" stroke="black" stroke-opacity="0.3" stroke-linecap="square" filter="url(#shadow)" d="m32.5,69l-25.5,42"/>
     <path id="svg_21" stroke-linecap="square" d="m32.5,29.5l0,40.5"/>
     <path id="svg_22" fill="none" stroke="black" stroke-opacity="0.3" stroke-linecap="square" filter="url(#shadow)" d="m32.5,29.5l0,40.5"/>
    </g>
   </g>
  </g>
  <g id="node5" class="node">
   <title>yuml_a1______</title>
   <ellipse id="svg_23" fill-opacity="0.2" ry="23.1702" rx="82.9636" filter="url(#shadow)" fill="black" cy="-482" cx="225"/>
   <ellipse id="svg_24" stroke="black" ry="23.1702" rx="82.9636" fill="url(#lightgrey)" cy="-482" cx="225"/>
   <text id="svg_25" font-size="13px" font-family="Rufscript" y="-480.3" x="225" text-anchor="middle">切换运行状态</text>
  </g>
  <g id="edge1" class="edge">
   <title>yuml_a____-&gt;yuml_a1______</title>
   <path id="svg_26" stroke="black" fill="none" d="m78.1231,-482c17.1979,0 40.7379,0 63.8889,0"/>
   <path id="svg_27" stroke-opacity="0.1" stroke="{@stroke}" filter="url(#shadow)" fill="none" d="m78.1231,-482c17.1979,0 40.7379,0 63.8889,0"/>
  </g>
  <g id="node6" class="node">
   <title>yuml_a5______</title>
   <ellipse id="svg_28" fill-opacity="0.2" ry="23.1702" rx="82.9636" filter="url(#shadow)" fill="black" cy="-417" cx="225"/>
   <ellipse id="svg_29" stroke="black" ry="23.1702" rx="82.9636" fill="url(#lightgrey)" cy="-417" cx="225"/>
   <text id="svg_30" font-size="13px" font-family="Rufscript" y="-415.3" x="225" text-anchor="middle">选项配置更改</text>
  </g>
  <g id="edge2" class="edge">
   <title>yuml_a____-&gt;yuml_a5______</title>
   <path id="svg_31" stroke="black" fill="none" d="m78.0686,-469.663c13.5614,6.226 30.4904,13.701 45.9314,19.663c14.411,5.565 30.204,11.051 44.896,15.905"/>
   <path id="svg_32" stroke-opacity="0.1" stroke="{@stroke}" filter="url(#shadow)" fill="none" d="m78.0686,-469.663c13.5614,6.226 30.4904,13.701 45.9314,19.663c14.411,5.565 30.204,11.051 44.896,15.905"/>
  </g>
  <g id="node9" class="node">
   <title>yuml_a4_______</title>
   <ellipse id="svg_33" fill-opacity="0.2" ry="23.1702" rx="92.7622" filter="url(#shadow)" fill="black" cy="-352" cx="225"/>
   <ellipse id="svg_34" stroke="black" ry="23.1702" rx="92.7622" fill="url(#lightgrey)" cy="-352" cx="225"/>
   <text id="svg_35" font-size="13px" font-family="Rufscript" y="-350.3" x="225" text-anchor="middle">监测从控机状态</text>
  </g>
  <g id="edge3" class="edge">
   <title>yuml_a____-&gt;yuml_a4_______</title>
   <path id="svg_36" stroke="black" fill="none" d="m74.7208,-440.46c12.3525,19.229 29.2172,40.97 49.2792,55.46c9.856,7.118 21.339,12.765 32.939,17.225"/>
   <path id="svg_37" stroke-opacity="0.1" stroke="{@stroke}" filter="url(#shadow)" fill="none" d="m74.7208,-440.46c12.3525,19.229 29.2172,40.97 49.2792,55.46c9.856,7.118 21.339,12.765 32.939,17.225"/>
  </g>
  <g id="node2" class="node">
   <title>yuml_b____</title>
   <g id="svg_38" transform="translate(30.75,-382.5) scale(0.75) " fill-rule="evenodd" fill="none">
    <g id="svg_39" stroke="#000000">
     <path id="svg_40" d="m32.5,29c8.00813,0 14.5,-6.49187 14.5,-14.5c0,-8.00813 -6.49187,-14.5 -14.5,-14.5c-8.00813,0 -14.5,6.49187 -14.5,14.5c0,8.00813 6.49187,14.5 14.5,14.5z"/>
     <path id="svg_41" fill="none" stroke="black" stroke-opacity="0.3" filter="url(#shadow)" d="m32.5,29c8.00813,0 14.5,-6.49187 14.5,-14.5c0,-8.00813 -6.49187,-14.5 -14.5,-14.5c-8.00813,0 -14.5,6.49187 -14.5,14.5c0,8.00813 6.49187,14.5 14.5,14.5z"/>
     <path id="svg_42" stroke-linecap="square" d="m-0.5,38.5l65.03076,0"/>
     <path id="svg_43" fill="none" stroke="black" stroke-opacity="0.3" stroke-linecap="square" filter="url(#shadow)" d="m-0.5,38.5l65.03076,0"/>
     <path id="svg_44" stroke-linecap="square" d="m32.5,69l25.5,42"/>
     <path id="svg_45" fill="none" stroke="black" stroke-opacity="0.3" stroke-linecap="square" filter="url(#shadow)" d="m32.5,69l25.5,42"/>
     <path id="svg_46" stroke-linecap="square" d="m32.5,69l-25.5,42"/>
     <path id="svg_47" fill="none" stroke="black" stroke-opacity="0.3" stroke-linecap="square" filter="url(#shadow)" d="m32.5,69l-25.5,42"/>
     <path id="svg_48" stroke-linecap="square" d="m32.5,29.5l0,40.5"/>
     <path id="svg_49" fill="none" stroke="black" stroke-opacity="0.3" stroke-linecap="square" filter="url(#shadow)" d="m32.5,29.5l0,40.5"/>
    </g>
   </g>
  </g>
  <g id="node10" class="node">
   <title>yuml_b1____</title>
   <ellipse id="svg_50" fill-opacity="0.2" ry="23.1702" rx="62.8651" filter="url(#shadow)" fill="black" cy="-287" cx="225"/>
   <ellipse id="svg_51" stroke="black" ry="23.1702" rx="62.8651" fill="url(#lightgrey)" cy="-287" cx="225"/>
   <text id="svg_52" font-size="13px" font-family="Rufscript" y="-285.3" x="225" text-anchor="middle">管理报表</text>
  </g>
  <g id="edge4" class="edge">
   <title>yuml_b____-&gt;yuml_b1____</title>
   <path id="svg_53" stroke="black" fill="none" d="m78.1055,-339.104c13.5712,6.017 30.4985,13.262 45.8945,19.104c16.922,6.421 35.711,12.811 52.392,18.233"/>
   <path id="svg_54" stroke-opacity="0.1" stroke="{@stroke}" filter="url(#shadow)" fill="none" d="m78.1055,-339.104c13.5712,6.017 30.4985,13.262 45.8945,19.104c16.922,6.421 35.711,12.811 52.392,18.233"/>
  </g>
  <g id="node3" class="node">
   <title>yuml_c__</title>
   <g id="svg_55" transform="translate(30.75,-251.5) scale(0.75) " fill-rule="evenodd" fill="none">
    <g id="svg_56" stroke="#000000">
     <path id="svg_57" d="m32.5,29c8.00813,0 14.5,-6.49187 14.5,-14.5c0,-8.00813 -6.49187,-14.5 -14.5,-14.5c-8.00813,0 -14.5,6.49187 -14.5,14.5c0,8.00813 6.49187,14.5 14.5,14.5z"/>
     <path id="svg_58" fill="none" stroke="black" stroke-opacity="0.3" filter="url(#shadow)" d="m32.5,29c8.00813,0 14.5,-6.49187 14.5,-14.5c0,-8.00813 -6.49187,-14.5 -14.5,-14.5c-8.00813,0 -14.5,6.49187 -14.5,14.5c0,8.00813 6.49187,14.5 14.5,14.5z"/>
     <path id="svg_59" stroke-linecap="square" d="m-0.5,38.5l65.03076,0"/>
     <path id="svg_60" fill="none" stroke="black" stroke-opacity="0.3" stroke-linecap="square" filter="url(#shadow)" d="m-0.5,38.5l65.03076,0"/>
     <path id="svg_61" stroke-linecap="square" d="m32.5,69l25.5,42"/>
     <path id="svg_62" fill="none" stroke="black" stroke-opacity="0.3" stroke-linecap="square" filter="url(#shadow)" d="m32.5,69l25.5,42"/>
     <path id="svg_63" stroke-linecap="square" d="m32.5,69l-25.5,42"/>
     <path id="svg_64" fill="none" stroke="black" stroke-opacity="0.3" stroke-linecap="square" filter="url(#shadow)" d="m32.5,69l-25.5,42"/>
     <path id="svg_65" stroke-linecap="square" d="m32.5,29.5l0,40.5"/>
     <path id="svg_66" fill="none" stroke="black" stroke-opacity="0.3" stroke-linecap="square" filter="url(#shadow)" d="m32.5,29.5l0,40.5"/>
    </g>
   </g>
  </g>
  <g id="node12" class="node">
   <title>yuml_c1______</title>
   <ellipse id="svg_67" fill-opacity="0.2" ry="23.1702" rx="82.9636" filter="url(#shadow)" fill="black" cy="-222" cx="225"/>
   <ellipse id="svg_68" stroke="black" ry="23.1702" rx="82.9636" fill="url(#lightgrey)" cy="-222" cx="225"/>
   <text id="svg_69" font-size="13px" font-family="Rufscript" y="-220.3" x="225" text-anchor="middle">维护房客信息</text>
  </g>
  <g id="edge5" class="edge">
   <title>yuml_c__-&gt;yuml_c1______</title>
   <path id="svg_70" stroke="black" fill="none" d="m78.1231,-220.304c17.1979,-0.2 40.7379,-0.473 63.8889,-0.743"/>
   <path id="svg_71" stroke-opacity="0.1" stroke="{@stroke}" filter="url(#shadow)" fill="none" d="m78.1231,-220.304c17.1979,-0.2 40.7379,-0.473 63.8889,-0.743"/>
  </g>
  <g id="node4" class="node">
   <title>yuml_d___</title>
   <g id="svg_72" transform="translate(30.75,-120.5) scale(0.75) " fill-rule="evenodd" fill="none">
    <g id="svg_73" stroke="#000000">
     <path id="svg_74" d="m32.5,29c8.00813,0 14.5,-6.49187 14.5,-14.5c0,-8.00813 -6.49187,-14.5 -14.5,-14.5c-8.00813,0 -14.5,6.49187 -14.5,14.5c0,8.00813 6.49187,14.5 14.5,14.5z"/>
     <path id="svg_75" fill="none" stroke="black" stroke-opacity="0.3" filter="url(#shadow)" d="m32.5,29c8.00813,0 14.5,-6.49187 14.5,-14.5c0,-8.00813 -6.49187,-14.5 -14.5,-14.5c-8.00813,0 -14.5,6.49187 -14.5,14.5c0,8.00813 6.49187,14.5 14.5,14.5z"/>
     <path id="svg_76" stroke-linecap="square" d="m-0.5,38.5l65.03076,0"/>
     <path id="svg_77" fill="none" stroke="black" stroke-opacity="0.3" stroke-linecap="square" filter="url(#shadow)" d="m-0.5,38.5l65.03076,0"/>
     <path id="svg_78" stroke-linecap="square" d="m32.5,69l25.5,42"/>
     <path id="svg_79" fill="none" stroke="black" stroke-opacity="0.3" stroke-linecap="square" filter="url(#shadow)" d="m32.5,69l25.5,42"/>
     <path id="svg_80" stroke-linecap="square" d="m32.5,69l-25.5,42"/>
     <path id="svg_81" fill="none" stroke="black" stroke-opacity="0.3" stroke-linecap="square" filter="url(#shadow)" d="m32.5,69l-25.5,42"/>
     <path id="svg_82" stroke-linecap="square" d="m32.5,29.5l0,40.5"/>
     <path id="svg_83" fill="none" stroke="black" stroke-opacity="0.3" stroke-linecap="square" filter="url(#shadow)" d="m32.5,29.5l0,40.5"/>
    </g>
   </g>
  </g>
  <g id="node13" class="node">
   <title>yuml_d2____</title>
   <ellipse id="svg_84" fill-opacity="0.2" ry="23.1702" rx="62.8651" filter="url(#shadow)" fill="black" cy="-157" cx="225"/>
   <ellipse id="svg_85" stroke="black" ry="23.1702" rx="62.8651" fill="url(#lightgrey)" cy="-157" cx="225"/>
   <text id="svg_86" font-size="13px" font-family="Rufscript" y="-155.3" x="225" text-anchor="middle">获取信息</text>
  </g>
  <g id="edge6" class="edge">
   <title>yuml_d___-&gt;yuml_d2____</title>
   <path id="svg_87" stroke="black" fill="none" d="m78.2863,-102.827c13.4739,-6.817 30.2597,-14.9 45.7137,-21.173c16.601,-6.739 35.146,-13.154 51.714,-18.506"/>
   <path id="svg_88" stroke-opacity="0.1" stroke="{@stroke}" filter="url(#shadow)" fill="none" d="m78.2863,-102.827c13.4739,-6.817 30.2597,-14.9 45.7137,-21.173c16.601,-6.739 35.146,-13.154 51.714,-18.506"/>
  </g>
  <g id="node16" class="node">
   <title>yuml_d5_____</title>
   <ellipse id="svg_89" fill-opacity="0.2" ry="23.1702" rx="72.6644" filter="url(#shadow)" fill="black" cy="-92" cx="225"/>
   <ellipse id="svg_90" stroke="black" ry="23.1702" rx="72.6644" fill="url(#lightgrey)" cy="-92" cx="225"/>
   <text id="svg_91" font-size="13px" font-family="Rufscript" y="-90.3" x="225" text-anchor="middle">调控从控机</text>
  </g>
  <g id="edge7" class="edge">
   <title>yuml_d___-&gt;yuml_d5_____</title>
   <path id="svg_92" stroke="black" fill="none" d="m78.1231,-89.4556c19.7353,-0.3443 47.8219,-0.8341 74.0899,-1.2923"/>
   <path id="svg_93" stroke-opacity="0.1" stroke="{@stroke}" filter="url(#shadow)" fill="none" d="m78.1231,-89.4556c19.7353,-0.3443 47.8219,-0.8341 74.0899,-1.2923"/>
  </g>
  <g id="node7" class="node">
   <title>yuml_a2_____</title>
   <ellipse id="svg_94" fill-opacity="0.2" ry="23.1702" rx="72.6644" filter="url(#shadow)" fill="black" cy="-417" cx="512"/>
   <ellipse id="svg_95" stroke="black" ry="23.1702" rx="72.6644" fill="url(#lightgrey)" cy="-417" cx="512"/>
   <text id="svg_96" font-size="13px" font-family="Rufscript" y="-415.3" x="512" text-anchor="middle">启动主控机</text>
  </g>
  <g id="edge8" class="edge">
   <title>yuml_a1______-&gt;yuml_a2_____</title>
   <path id="svg_97" stroke-dasharray="5,2" stroke="black" fill="none" d="m289.605,-467.494c45.393,10.353 106.384,24.263 152.855,34.862"/>
   <path id="svg_98" stroke-opacity="0.1" stroke-dasharray="5,2" stroke="{@stroke}" filter="url(#shadow)" fill="none" d="m289.605,-467.494c45.393,10.353 106.384,24.263 152.855,34.862"/>
   <polygon id="svg_99" fill-opacity="0.2" points="452.444,-430.355 452.21514235921774,-430.47107826591946 443.695,-436.966 443.695,-436.966 445.20967195860203,-434.92284325460326 447.569,-431.467 447.569,-431.467 447.41761419901286,-431.4081900504677 442.694,-432.579 442.694,-432.579 442.7809558311833,-432.51744017550845 442.694,-432.579 442.694,-432.579 442.7332194894202,-432.53134564902626 442.694,-432.579 442.694,-432.579 442.89654466605987,-432.44902668274125 447.569,-431.467 447.569,-431.467 446.6835787786802,-430.6627380306225 441.693,-428.191 441.693,-428.191 446.5164805196523,-428.68581031932524 452.444,-430.355 452.444,-430.355 452.637950088147,-430.14030197624385 452.444,-430.355 " filter="url(#shadow)" fill="black"/>
   <polygon id="svg_100" stroke="black" points="452.444,-430.355 446.5772965481959,-434.6530184262527 443.695,-436.966 443.695,-436.966 445.11573003242523,-434.9974844181776 447.569,-431.467 447.569,-431.467 446.0367768569184,-431.6006307037598 442.694,-432.579 442.694,-432.579 443.02906696810925,-432.36198951722395 442.694,-432.579 442.694,-432.579 442.7213952579407,-432.54421980158776 442.694,-432.579 442.694,-432.579 443.66108607225806,-432.23860238357537 447.569,-431.467 447.569,-431.467 446.94053729106645,-430.8118733913022 441.693,-428.191 441.693,-428.191 444.6461825053295,-428.4237522729507 452.444,-430.355 452.444,-430.355 452.6285050177099,-430.2088098434809 452.444,-430.355 " fill="url(#black)"/>
   <text id="svg_101" font-size="10px" font-family="Rufscript" y="-462.8" x="373" text-anchor="middle">&lt;&lt;include&gt;&gt;</text>
  </g>
  <g id="node8" class="node">
   <title>yuml_a3_____</title>
   <ellipse id="svg_102" fill-opacity="0.2" ry="23.1702" rx="72.6644" filter="url(#shadow)" fill="black" cy="-482" cx="512"/>
   <ellipse id="svg_103" stroke="black" ry="23.1702" rx="72.6644" fill="url(#lightgrey)" cy="-482" cx="512"/>
   <text id="svg_104" font-size="13px" font-family="Rufscript" y="-480.3" x="512" text-anchor="middle">关闭主控机</text>
  </g>
  <g id="edge9" class="edge">
   <title>yuml_a1______-&gt;yuml_a3_____</title>
   <path id="svg_105" stroke-dasharray="5,2" stroke="black" fill="none" d="m308.051,-482c37.728,0 82.396,0 120.208,0"/>
   <path id="svg_106" stroke-opacity="0.1" stroke-dasharray="5,2" stroke="{@stroke}" filter="url(#shadow)" fill="none" d="m308.051,-482c37.728,0 82.396,0 120.208,0"/>
   <polygon id="svg_107" fill-opacity="0.2" points="438.731,-482 434.24048372865775,-483.83572695858555 428.731,-486.5 428.731,-486.5 429.46329545087366,-485.8342086454201 433.731,-482 433.731,-482 433.7156785742519,-481.8911819503916 428.731,-482 428.731,-482 429.0496377390478,-481.66507235916936 428.731,-482 428.731,-482 428.76035648480297,-481.9574799039387 428.731,-482 428.731,-482 429.1507295052934,-481.87253398999553 433.731,-482 433.731,-482 433.10405089826935,-481.0568424665054 428.731,-477.5 428.731,-477.5 429.1930912569712,-477.37855893564387 438.731,-482 438.731,-482 438.9317661237609,-481.86830712869045 438.731,-482 " filter="url(#shadow)" fill="black"/>
   <polygon id="svg_108" stroke="black" points="438.731,-482 437.297088801284,-482.49053281216266 428.731,-486.5 428.731,-486.5 431.03220011597654,-484.41957471992555 433.731,-482 433.731,-482 431.20922506668296,-481.66401278951304 428.731,-482 428.731,-482 428.84912836722503,-481.9006132339952 428.731,-482 428.731,-482 429.0373110268323,-481.68695561575555 428.731,-482 428.731,-482 429.6924396010604,-481.84174802725414 433.731,-482 433.731,-482 431.5412480881146,-479.47912848136593 428.731,-477.5 428.731,-477.5 429.5021916962138,-477.50159226681 438.731,-482 438.731,-482 438.75949546697757,-481.966094808811 438.731,-482 " fill="url(#black)"/>
   <text id="svg_109" font-size="10px" font-family="Rufscript" y="-489.8" x="373" text-anchor="middle">&lt;&lt;include&gt;&gt;</text>
  </g>
  <g id="node11" class="node">
   <title>yuml_b2____</title>
   <ellipse id="svg_110" fill-opacity="0.2" ry="23.1702" rx="62.8651" filter="url(#shadow)" fill="black" cy="-352" cx="512"/>
   <ellipse id="svg_111" stroke="black" ry="23.1702" rx="62.8651" fill="url(#lightgrey)" cy="-352" cx="512"/>
   <text id="svg_112" font-size="13px" font-family="Rufscript" y="-350.3" x="512" text-anchor="middle">导出报表</text>
  </g>
  <g id="edge10" class="edge">
   <title>yuml_b1____-&gt;yuml_b2____</title>
   <path id="svg_113" stroke-dasharray="5,2" stroke="black" fill="none" d="m288.796,-301.322c50.671,-11.556 121.163,-27.634 169.066,-38.559"/>
   <path id="svg_114" stroke-opacity="0.1" stroke-dasharray="5,2" stroke="{@stroke}" filter="url(#shadow)" fill="none" d="m288.796,-301.322c50.671,-11.556 121.163,-27.634 169.066,-38.559"/>
   <polygon id="svg_115" fill-opacity="0.2" points="278.938,-299.074 280.2568266118026,-298.5977491386427 289.689,-296.91 289.689,-296.91 287.4938450565689,-298.0109903361139 283.813,-300.186 283.813,-300.186 284.67633513451466,-300.197785577313 288.688,-301.297 288.688,-301.297 288.82734606985525,-301.1362226312645 288.688,-301.297 288.688,-301.297 288.7660289828718,-301.25046344493376 288.688,-301.297 288.688,-301.297 286.26538842684124,-300.3600198025242 283.813,-300.186 283.813,-300.186 284.3452322859712,-300.52789700122 287.687,-305.685 287.687,-305.685 286.3859654165032,-304.1770386332809 278.938,-299.074 278.938,-299.074 279.10973238164087,-298.9451522403784 278.938,-299.074 " filter="url(#shadow)" fill="black"/>
   <polygon id="svg_116" stroke="black" points="278.938,-299.074 280.25491068098944,-298.61554069606234 289.689,-296.91 289.689,-296.91 289.705100844463,-296.83470703500853 283.813,-300.186 283.813,-300.186 285.2242223733579,-300.2470300785015 288.688,-301.297 288.688,-301.297 288.71418772531854,-301.2480364594438 288.688,-301.297 288.688,-301.297 288.704501371237,-301.2820399617741 288.688,-301.297 288.688,-301.297 287.051488723352,-300.59367948889184 283.813,-300.186 283.813,-300.186 287.3029242428568,-304.11840267171925 287.687,-305.685 287.687,-305.685 282.26242059546695,-300.7407658424471 278.938,-299.074 278.938,-299.074 278.98522615077144,-299.03727313968227 278.938,-299.074 " fill="url(#black)"/>
   <text id="svg_117" font-size="10px" font-family="Rufscript" y="-334.8" x="373" text-anchor="middle">&lt;&lt;extend&gt;&gt;</text>
  </g>
  <g id="node14" class="node">
   <title>yuml_d3______</title>
   <ellipse id="svg_118" fill-opacity="0.2" ry="23.1702" rx="83.3772" filter="url(#shadow)" fill="black" cy="-222" cx="512"/>
   <ellipse id="svg_119" stroke="black" ry="23.1702" rx="83.3772" fill="url(#lightgrey)" cy="-222" cx="512"/>
   <text id="svg_120" font-size="13px" font-family="Rufscript" y="-220.3" x="512" text-anchor="middle">统计能耗费用</text>
  </g>
  <g id="edge11" class="edge">
   <title>yuml_d2____-&gt;yuml_d3______</title>
   <path id="svg_121" stroke-dasharray="5,2" stroke="black" fill="none" d="m278.938,-169.074c44.428,-10.132 108.387,-24.719 157.912,-36.015"/>
   <path id="svg_122" stroke-opacity="0.1" stroke-dasharray="5,2" stroke="{@stroke}" filter="url(#shadow)" fill="none" d="m278.938,-169.074c44.428,-10.132 108.387,-24.719 157.912,-36.015"/>
   <polygon id="svg_123" fill-opacity="0.2" points="446.87,-207.374 443.699565766021,-207.7654164822239 436.119,-209.537 436.119,-209.537 438.11547299458687,-208.33598236985068 441.995,-206.262 441.995,-206.262 440.9062111719546,-205.75236864380818 437.12,-205.15 437.12,-205.15 437.2080502905796,-205.06358248083745 437.12,-205.15 437.12,-205.15 437.19452090729243,-205.02072807773766 437.12,-205.15 437.12,-205.15 437.75872198317484,-205.12609816868496 441.995,-206.262 441.995,-206.262 439.01360140239893,-200.77615655216303 438.121,-200.763 438.121,-200.763 440.67219396656947,-202.1569487828573 446.87,-207.374 446.87,-207.374 447.0361808662061,-207.26678836737682 446.87,-207.374 " filter="url(#shadow)" fill="black"/>
   <polygon id="svg_124" stroke="black" points="446.87,-207.374 446.73455551594566,-207.2129686021263 436.119,-209.537 436.119,-209.537 437.4704371726383,-208.68678743927472 441.995,-206.262 441.995,-206.262 440.87531481036694,-205.7739476994644 437.12,-205.15 437.12,-205.15 437.27475609174184,-205.02460443278554 437.12,-205.15 437.12,-205.15 437.1250614099547,-205.14537995066675 437.12,-205.15 437.12,-205.15 438.3862268562028,-205.2051413481013 441.995,-206.262 441.995,-206.262 439.42277421685225,-201.5342233599546 438.121,-200.763 438.121,-200.763 439.85365272939816,-201.57540060830792 446.87,-207.374 446.87,-207.374 447.0286265808988,-207.23195979420234 446.87,-207.374 " fill="url(#black)"/>
   <text id="svg_125" font-size="10px" font-family="Rufscript" y="-205.8" x="373" text-anchor="middle">&lt;&lt;include&gt;&gt;</text>
  </g>
  <g id="node15" class="node">
   <title>yuml_d4______</title>
   <ellipse id="svg_126" fill-opacity="0.2" ry="23.1702" rx="83.3772" filter="url(#shadow)" fill="black" cy="-287" cx="512"/>
   <ellipse id="svg_127" stroke="black" ry="23.1702" rx="83.3772" fill="url(#lightgrey)" cy="-287" cx="512"/>
   <text id="svg_128" font-size="13px" font-family="Rufscript" y="-285.3" x="512" text-anchor="middle">认证房客身份</text>
  </g>
  <g id="edge12" class="edge">
   <title>yuml_d2____-&gt;yuml_d4______</title>
   <path id="svg_129" stroke-dasharray="5,2" stroke="black" fill="none" d="m287.981,-173.048c10.646,-4.433 21.127,-10 30.019,-16.952c11.362,-8.883 6.809,-17.902 18,-27c34.197,-27.801 51.079,-20.636 92,-37c11.375,-4.549 23.633,-9.432 35.147,-14.011"/>
   <path id="svg_130" stroke-opacity="0.1" stroke-dasharray="5,2" stroke="{@stroke}" filter="url(#shadow)" fill="none" d="m287.981,-173.048c10.646,-4.433 21.127,-10 30.019,-16.952c11.362,-8.883 6.809,-17.902 18,-27c34.197,-27.801 51.079,-20.636 92,-37c11.375,-4.549 23.633,-9.432 35.147,-14.011"/>
   <polygon id="svg_131" fill-opacity="0.2" points="278.619,-169.438 283.2657272193902,-168.8154234982315 289.569,-168.837 289.569,-168.837 288.79098716683444,-169.00367221210684 283.285,-171.237 283.285,-171.237 286.0643409179621,-171.85246579837397 287.95,-173.036 287.95,-173.036 288.16311462844664,-172.8444386832759 287.95,-173.036 287.95,-173.036 288.033316580655,-172.9614854412785 287.95,-173.036 287.95,-173.036 285.11488230666845,-171.33310152313916 283.285,-171.237 283.285,-171.237 283.9667112930633,-172.02008113205804 286.331,-177.235 286.331,-177.235 284.9200421195809,-175.19279853017454 278.619,-169.438 278.619,-169.438 278.68647049652867,-169.38519533397366 278.619,-169.438 " filter="url(#shadow)" fill="black"/>
   <polygon id="svg_132" stroke="black" points="278.619,-169.438 280.47524347862515,-169.0627241518232 289.569,-168.837 289.569,-168.837 287.5722564623257,-169.43734012100148 283.285,-171.237 283.285,-171.237 285.36621738050377,-171.65939408718518 287.95,-173.036 287.95,-173.036 287.9517724390576,-173.0343929316756 287.95,-173.036 287.95,-173.036 288.20133868318925,-172.7224189602089 287.95,-173.036 287.95,-173.036 285.97210303946036,-171.9420520838016 283.285,-171.237 283.285,-171.237 283.91720823932934,-171.87690983975543 286.331,-177.235 286.331,-177.235 280.3588486647033,-170.1193543371311 278.619,-169.438 278.619,-169.438 278.64104003252777,-169.4093532538507 278.619,-169.438 " fill="url(#black)"/>
   <text id="svg_133" font-size="10px" font-family="Rufscript" y="-255.8" x="373" text-anchor="middle">&lt;&lt;extend&gt;&gt;</text>
  </g>
  <g id="node17" class="node">
   <title>yuml_d6____</title>
   <ellipse id="svg_134" fill-opacity="0.2" ry="23.1702" rx="62.8651" filter="url(#shadow)" fill="black" cy="-92" cx="512"/>
   <ellipse id="svg_135" stroke="black" ry="23.1702" rx="62.8651" fill="url(#lightgrey)" cy="-92" cx="512"/>
   <text id="svg_136" font-size="13px" font-family="Rufscript" y="-90.3" x="512" text-anchor="middle">调节温度</text>
  </g>
  <g id="edge13" class="edge">
   <title>yuml_d5_____-&gt;yuml_d6____</title>
   <path id="svg_137" stroke-dasharray="5,2" stroke="black" fill="none" d="m308.198,-92c44.801,0 99.351,0 140.588,0"/>
   <path id="svg_138" stroke-opacity="0.1" stroke-dasharray="5,2" stroke="{@stroke}" filter="url(#shadow)" fill="none" d="m308.198,-92c44.801,0 99.351,0 140.588,0"/>
   <polygon id="svg_139" fill-opacity="0.2" points="297.918,-92 305.36108057115706,-88.35229622258002 307.918,-87.5001 307.918,-87.5001 304.6412253031122,-90.48787281294771 302.918,-92 302.918,-92 305.9479066516331,-91.74412240176424 307.918,-92.0001 307.918,-92.0001 308.00141912923607,-91.93330741010294 307.918,-92.0001 307.918,-92.0001 307.9675546571624,-91.95491987185743 307.918,-92.0001 307.918,-92.0001 307.08200568422893,-91.83818778587211 302.918,-92 302.918,-92 306.090630053272,-94.08958253356724 307.917,-96.5001 307.917,-96.5001 305.70151715283583,-95.02445384934033 297.918,-92 297.918,-92 298.05893666245,-91.89808438297821 297.918,-92 " filter="url(#shadow)" fill="black"/>
   <polygon id="svg_140" stroke="black" points="297.918,-92 303.36959915296774,-89.35202302621575 307.918,-87.5001 307.918,-87.5001 304.7070495075195,-90.2653759006575 302.918,-92 302.918,-92 303.3283253822885,-91.88169099624858 307.918,-92.0001 307.918,-92.0001 308.21342887010513,-91.81413124146033 307.918,-92.0001 307.918,-92.0001 307.9720645862124,-91.91183645768855 307.918,-92.0001 307.918,-92.0001 306.90333824293003,-91.79076317533762 302.918,-92 302.918,-92 304.5233642027744,-92.95126920213784 307.917,-96.5001 307.917,-96.5001 304.24909200887953,-94.28344155254848 297.918,-92 297.918,-92 298.09848365872216,-91.80119927251096 297.918,-92 " fill="url(#black)"/>
   <text id="svg_141" font-size="10px" font-family="Rufscript" y="-99.8" x="373" text-anchor="middle">&lt;&lt;extend&gt;&gt;</text>
  </g>
  <g id="node18" class="node">
   <title>yuml_d7____</title>
   <ellipse id="svg_142" fill-opacity="0.2" ry="23.1702" rx="62.8651" filter="url(#shadow)" fill="black" cy="-157" cx="512"/>
   <ellipse id="svg_143" stroke="black" ry="23.1702" rx="62.8651" fill="url(#lightgrey)" cy="-157" cx="512"/>
   <text id="svg_144" font-size="13px" font-family="Rufscript" y="-155.3" x="512" text-anchor="middle">调节风速</text>
  </g>
  <g id="edge14" class="edge">
   <title>yuml_d5_____-&gt;yuml_d7____</title>
   <path id="svg_145" stroke-dasharray="5,2" stroke="black" fill="none" d="m294.519,-107.627c50.249,-11.46 117.481,-26.794 163.614,-37.316"/>
   <path id="svg_146" stroke-opacity="0.1" stroke-dasharray="5,2" stroke="{@stroke}" filter="url(#shadow)" fill="none" d="m294.519,-107.627c50.249,-11.46 117.481,-26.794 163.614,-37.316"/>
   <polygon id="svg_147" fill-opacity="0.2" points="284.707,-105.389 292.1681094103883,-103.54813731341203 295.457,-103.226 295.457,-103.226 293.62920979719365,-104.10424874570955 289.581,-106.501 289.581,-106.501 290.81933895353217,-106.5479865795099 294.456,-107.613 294.456,-107.613 294.4812696812578,-107.58829486010713 294.456,-107.613 294.456,-107.613 294.5540264200228,-107.4793218020235 294.456,-107.613 294.456,-107.613 294.16016828506,-107.38878519288703 289.581,-106.501 289.581,-106.501 292.19162807246227,-109.2554943098904 293.456,-112 293.456,-112 292.42688404547243,-110.74467845043101 284.707,-105.389 284.707,-105.389 284.8036666922246,-105.22818591065847 284.707,-105.389 " filter="url(#shadow)" fill="black"/>
   <polygon id="svg_148" stroke="black" points="284.707,-105.389 291.2100356216004,-103.76105549307307 295.457,-103.226 295.457,-103.226 293.2880285139203,-104.34821023391416 289.581,-106.501 289.581,-106.501 290.6060181096496,-106.52204414687174 294.456,-107.613 294.456,-107.613 294.4970180415782,-107.58319074362394 294.456,-107.613 294.456,-107.613 294.48492156839126,-107.5817441872971 294.456,-107.613 294.456,-107.613 293.0436485558364,-106.99022248216406 289.581,-106.501 289.581,-106.501 289.8433396377288,-106.52458496710412 293.456,-112 293.456,-112 290.76687664351977,-109.40259919567735 284.707,-105.389 284.707,-105.389 284.74670044993417,-105.35617363969332 284.707,-105.389 " fill="url(#black)"/>
   <text id="svg_149" font-size="10px" font-family="Rufscript" y="-140.8" x="373" text-anchor="middle">&lt;&lt;extend&gt;&gt;</text>
  </g>
  <rect id="svg_150" height="490" width="494" y="-531" x="110" fill-opacity="0" stroke="#000000" fill="#000000"/>
 </g>
</svg>