<?xml version="1.0"?>
<svg width="764" height="331" xmlns="http://www.w3.org/2000/svg" xmlns:svg="http://www.w3.org/2000/svg">
 <defs>
  <filter y="0" x="0" id="shadow" filterRes="100">
   <feGaussianBlur stdDeviation="2 2"/>
  </filter>
  <linearGradient y2="100%" y1="0%" x2="100%" x1="0%" id="lightgrey">
   <stop stop-color="rgb(255,255,255)" offset="0%"/>
   <stop stop-color="rgb(220,220,220)" offset="100%"/>
  </linearGradient>
  <linearGradient y2="100%" y1="0%" x2="100%" x1="0%" id="black">
   <stop stop-color="rgb(150,150,150)" stop-opacity="2" offset="0%"/>
   <stop stop-color="rgb(0,0,0)" stop-opacity="2" offset="100%"/>
  </linearGradient>
 </defs>
 <g transform="scale(1) translate(4,327) " id="graph0" class="graph">
  <title>G</title>
  <g id="clust1" class="cluster">
   <title>clusterActors</title>
   <polygon id="svg_1" points="0,-8 0,-278 106,-278 106,-8 0,-8" fill="none"/>
  </g>
  <g id="clust2" class="cluster">
   <title>clusteryuml_a1_____</title>
   <polygon id="svg_2" points="8,-147 8,-270 98,-270 98,-147 8,-147" fill="none"/>
   <text id="svg_3" font-size="10px" font-family="Verdana" y="-156.8" x="53" text-anchor="middle">a1 最终用户</text>
  </g>
  <g id="clust3" class="cluster">
   <title>clusteryuml_a2___</title>
   <polygon id="svg_4" points="18,-16 18,-139 88,-139 88,-16 18,-16" fill="none"/>
   <text id="svg_5" font-size="10px" font-family="Verdana" y="-25.8" x="53" text-anchor="middle">a2 时钟</text>
  </g>
  <g id="clust4" class="cluster">
   <title>clusterSystem</title>
   <polygon id="svg_6" points="126,-58 126,-315 748,-315 748,-58 126,-58" fill="none"/>
  </g>
  <g id="node1" class="node">
   <title>yuml_a1_____</title>
   <g id="svg_7" transform="translate(32.75,-251.5) scale(0.75) " fill-rule="evenodd" fill="none">
    <g id="svg_8" stroke="#000000">
     <path id="svg_9" d="m32.5,29c8.008129,0 14.5,-6.491871 14.5,-14.5c0,-8.008129 -6.491871,-14.5 -14.5,-14.5c-8.008129,0 -14.5,6.491871 -14.5,14.5c0,8.008129 6.491871,14.5 14.5,14.5z"/>
     <path id="svg_10" fill="none" stroke="black" stroke-opacity="0.3" filter="url(#shadow)" d="m32.5,29c8.008129,0 14.5,-6.491871 14.5,-14.5c0,-8.008129 -6.491871,-14.5 -14.5,-14.5c-8.008129,0 -14.5,6.491871 -14.5,14.5c0,8.008129 6.491871,14.5 14.5,14.5z"/>
     <path id="svg_11" stroke-linecap="square" d="m-0.5,38.5l65.030762,0"/>
     <path id="svg_12" fill="none" stroke="black" stroke-opacity="0.3" stroke-linecap="square" filter="url(#shadow)" d="m-0.5,38.5l65.030762,0"/>
     <path id="svg_13" stroke-linecap="square" d="m32.5,69l25.5,42"/>
     <path id="svg_14" fill="none" stroke="black" stroke-opacity="0.3" stroke-linecap="square" filter="url(#shadow)" d="m32.5,69l25.5,42"/>
     <path id="svg_15" stroke-linecap="square" d="m32.5,69l-25.5,42"/>
     <path id="svg_16" fill="none" stroke="black" stroke-opacity="0.3" stroke-linecap="square" filter="url(#shadow)" d="m32.5,69l-25.5,42"/>
     <path id="svg_17" stroke-linecap="square" d="m32.5,29.5l0,40.5"/>
     <path id="svg_18" fill="none" stroke="black" stroke-opacity="0.3" stroke-linecap="square" filter="url(#shadow)" d="m32.5,29.5l0,40.5"/>
    </g>
   </g>
  </g>
  <g id="node3" class="node">
   <title>yuml_c1_____</title>
   <ellipse id="svg_19" fill-opacity="0.2" ry="23.1702" rx="65.1077" filter="url(#shadow)" fill="black" cy="-219" cx="298"/>
   <ellipse id="svg_20" stroke="black" ry="23.1702" rx="65.1077" fill="url(#lightgrey)" cy="-219" cx="298"/>
   <text id="svg_21" font-size="10px" font-family="Verdana" y="-217.3" x="298" text-anchor="middle">c1 控制空调</text>
  </g>
  <g id="edge1" class="edge">
   <title>yuml_a1_____-&gt;yuml_c1_____</title>
   <path id="svg_22" stroke="black" fill="none" d="m80.0053,-219.893c36.1797,0.149 102.8787,0.423 152.8167,0.629"/>
   <path id="svg_23" stroke-opacity="0.1" stroke="{@stroke}" filter="url(#shadow)" fill="none" d="m80.0053,-219.893c36.1797,0.149 102.8787,0.423 152.8167,0.629"/>
  </g>
  <g id="node2" class="node">
   <title>yuml_a2___</title>
   <g id="svg_24" transform="translate(32.75,-120.5) scale(0.75) " fill-rule="evenodd" fill="none">
    <g id="svg_25" stroke="#000000">
     <path id="svg_26" d="m32.5,29c8.008129,0 14.5,-6.491871 14.5,-14.5c0,-8.008129 -6.491871,-14.5 -14.5,-14.5c-8.008129,0 -14.5,6.491871 -14.5,14.5c0,8.008129 6.491871,14.5 14.5,14.5z"/>
     <path id="svg_27" fill="none" stroke="black" stroke-opacity="0.3" filter="url(#shadow)" d="m32.5,29c8.008129,0 14.5,-6.491871 14.5,-14.5c0,-8.008129 -6.491871,-14.5 -14.5,-14.5c-8.008129,0 -14.5,6.491871 -14.5,14.5c0,8.008129 6.491871,14.5 14.5,14.5z"/>
     <path id="svg_28" stroke-linecap="square" d="m-0.5,38.5l65.030762,0"/>
     <path id="svg_29" fill="none" stroke="black" stroke-opacity="0.3" stroke-linecap="square" filter="url(#shadow)" d="m-0.5,38.5l65.030762,0"/>
     <path id="svg_30" stroke-linecap="square" d="m32.5,69l25.5,42"/>
     <path id="svg_31" fill="none" stroke="black" stroke-opacity="0.3" stroke-linecap="square" filter="url(#shadow)" d="m32.5,69l25.5,42"/>
     <path id="svg_32" stroke-linecap="square" d="m32.5,69l-25.5,42"/>
     <path id="svg_33" fill="none" stroke="black" stroke-opacity="0.3" stroke-linecap="square" filter="url(#shadow)" d="m32.5,69l-25.5,42"/>
     <path id="svg_34" stroke-linecap="square" d="m32.5,29.5l0,40.5"/>
     <path id="svg_35" fill="none" stroke="black" stroke-opacity="0.3" stroke-linecap="square" filter="url(#shadow)" d="m32.5,29.5l0,40.5"/>
    </g>
   </g>
  </g>
  <g id="node8" class="node">
   <title>yuml________________</title>
   <ellipse id="svg_36" fill-opacity="0.2" ry="23.1702" rx="164.098" filter="url(#shadow)" fill="black" cy="-89" cx="298"/>
   <ellipse id="svg_37" stroke="black" ry="23.1702" rx="164.098" fill="url(#lightgrey)" cy="-89" cx="298"/>
   <text id="svg_38" font-size="10px" font-family="Verdana" y="-87.3" x="298" text-anchor="middle">触发从控机子系统的自动更新功能</text>
  </g>
  <g id="edge2" class="edge">
   <title>yuml_a2___-&gt;yuml________________</title>
   <path id="svg_39" stroke="black" fill="none" d="m80.0053,-89c14.2026,0 33.1077,0 53.8567,0"/>
   <path id="svg_40" stroke-opacity="0.1" stroke="{@stroke}" filter="url(#shadow)" fill="none" d="m80.0053,-89c14.2026,0 33.1077,0 53.8567,0"/>
  </g>
  <g id="node4" class="node">
   <title>yuml_i1______</title>
   <ellipse id="svg_41" fill-opacity="0.2" ry="23.1702" rx="73.5782" filter="url(#shadow)" fill="black" cy="-89" cx="656"/>
   <ellipse id="svg_42" stroke="black" ry="23.1702" rx="73.5782" fill="url(#lightgrey)" cy="-89" cx="656"/>
   <text id="svg_43" font-size="10px" font-family="Verdana" y="-87.3" x="656" text-anchor="middle">i1 启动从控机</text>
  </g>
  <g id="edge3" class="edge">
   <title>yuml_c1_____-&gt;yuml_i1______</title>
   <path id="svg_44" stroke-dasharray="5,2" stroke="black" fill="none" d="m344.088,-202.535c64.419,23.523 182.798,66.752 253.433,92.545"/>
   <path id="svg_45" stroke-opacity="0.1" stroke-dasharray="5,2" stroke="{@stroke}" filter="url(#shadow)" fill="none" d="m344.088,-202.535c64.419,23.523 182.798,66.752 253.433,92.545"/>
   <polygon id="svg_46" fill-opacity="0.2" points="607.16,-106.47 599.31,-114.127 602.463,-108.185 597.767,-109.9 597.767,-109.9 597.767,-109.9 602.463,-108.185 596.223,-105.673 607.16,-106.47 607.16,-106.47" filter="url(#shadow)" fill="black"/>
   <polygon id="svg_47" stroke="black" points="607.16,-106.47 599.31,-114.127 602.463,-108.185 597.767,-109.9 597.767,-109.9 597.767,-109.9 602.463,-108.185 596.223,-105.673 607.16,-106.47 607.16,-106.47" fill="url(#black)"/>
   <text id="svg_48" font-size="8px" font-family="Verdana" y="-158.8" x="517" text-anchor="middle">&lt;&lt;include&gt;&gt;</text>
  </g>
  <g id="node5" class="node">
   <title>yuml_i2_______</title>
   <ellipse id="svg_49" fill-opacity="0.2" ry="23.1702" rx="83.3772" filter="url(#shadow)" fill="black" cy="-154" cx="656"/>
   <ellipse id="svg_50" stroke="black" ry="23.1702" rx="83.3772" fill="url(#lightgrey)" cy="-154" cx="656"/>
   <text id="svg_51" font-size="10px" font-family="Verdana" y="-152.3" x="656" text-anchor="middle">i2 用户登录系统</text>
  </g>
  <g id="edge4" class="edge">
   <title>yuml_c1_____-&gt;yuml_i2_______</title>
   <path id="svg_52" stroke-dasharray="5,2" stroke="black" fill="none" d="m356.198,-208.557c59.45,10.855 152.942,27.925 219.505,40.079"/>
   <path id="svg_53" stroke-opacity="0.1" stroke-dasharray="5,2" stroke="{@stroke}" filter="url(#shadow)" fill="none" d="m356.198,-208.557c59.45,10.855 152.942,27.925 219.505,40.079"/>
   <polygon id="svg_54" fill-opacity="0.2" points="585.733,-166.647 576.704,-172.87 580.814,-167.545 575.895,-168.443 575.895,-168.443 575.895,-168.443 580.814,-167.545 575.087,-164.017 585.733,-166.647 585.733,-166.647" filter="url(#shadow)" fill="black"/>
   <polygon id="svg_55" stroke="black" points="585.733,-166.647 576.704,-172.87 580.814,-167.545 575.895,-168.443 575.895,-168.443 575.895,-168.443 580.814,-167.545 575.087,-164.017 585.733,-166.647 585.733,-166.647" fill="url(#black)"/>
   <text id="svg_56" font-size="8px" font-family="Verdana" y="-191.8" x="517" text-anchor="middle">&lt;&lt;include&gt;&gt;</text>
  </g>
  <g id="node6" class="node">
   <title>yuml_x1_____</title>
   <ellipse id="svg_57" fill-opacity="0.2" ry="23.1702" rx="65.5227" filter="url(#shadow)" fill="black" cy="-219" cx="656"/>
   <ellipse id="svg_58" stroke="black" ry="23.1702" rx="65.5227" fill="url(#lightgrey)" cy="-219" cx="656"/>
   <text id="svg_59" font-size="10px" font-family="Verdana" y="-217.3" x="656" text-anchor="middle">x1 改变温度</text>
  </g>
  <g id="edge5" class="edge">
   <title>yuml_c1_____-&gt;yuml_x1_____</title>
   <path id="svg_60" stroke-dasharray="5,2" stroke="black" fill="none" d="m373.086,-219c64.02,0 155.638,0 216.868,0"/>
   <path id="svg_61" stroke-opacity="0.1" stroke-dasharray="5,2" stroke="{@stroke}" filter="url(#shadow)" fill="none" d="m373.086,-219c64.02,0 155.638,0 216.868,0"/>
   <polygon id="svg_62" fill-opacity="0.2" points="363.057,-219 373.057,-214.5 368.057,-219 373.057,-219 373.057,-219 373.057,-219 368.057,-219 373.057,-223.5 363.057,-219 363.057,-219" filter="url(#shadow)" fill="black"/>
   <polygon id="svg_63" stroke="black" points="363.057,-219 373.057,-214.5 368.057,-219 373.057,-219 373.057,-219 373.057,-219 368.057,-219 373.057,-223.5 363.057,-219 363.057,-219" fill="url(#black)"/>
   <text id="svg_64" font-size="8px" font-family="Verdana" y="-226.8" x="517" text-anchor="middle">&lt;&lt;extend&gt;&gt;</text>
  </g>
  <g id="node7" class="node">
   <title>yuml_x2_____</title>
   <ellipse id="svg_65" fill-opacity="0.2" ry="23.1702" rx="65.5227" filter="url(#shadow)" fill="black" cy="-284" cx="656"/>
   <ellipse id="svg_66" stroke="black" ry="23.1702" rx="65.5227" fill="url(#lightgrey)" cy="-284" cx="656"/>
   <text id="svg_67" font-size="10px" font-family="Verdana" y="-282.3" x="656" text-anchor="middle">x2 调节风速</text>
  </g>
  <g id="edge6" class="edge">
   <title>yuml_c1_____-&gt;yuml_x2_____</title>
   <path id="svg_68" stroke-dasharray="5,2" stroke="black" fill="none" d="m366.193,-231.268c66.736,-12.185 167.978,-30.67 231.161,-42.207"/>
   <path id="svg_69" stroke-opacity="0.1" stroke-dasharray="5,2" stroke="{@stroke}" filter="url(#shadow)" fill="none" d="m366.193,-231.268c66.736,-12.185 167.978,-30.67 231.161,-42.207"/>
   <polygon id="svg_70" fill-opacity="0.2" points="356.198,-229.443 366.843,-226.813 361.116,-230.341 366.035,-231.24 366.035,-231.24 366.035,-231.24 361.116,-230.341 365.227,-235.666 356.198,-229.443 356.198,-229.443" filter="url(#shadow)" fill="black"/>
   <polygon id="svg_71" stroke="black" points="356.198,-229.443 366.843,-226.813 361.116,-230.341 366.035,-231.24 366.035,-231.24 366.035,-231.24 361.116,-230.341 365.227,-235.666 356.198,-229.443 356.198,-229.443" fill="url(#black)"/>
   <text id="svg_72" font-size="8px" font-family="Verdana" y="-271.8" x="517" text-anchor="middle">&lt;&lt;extend&gt;&gt;</text>
  </g>
  <rect id="svg_73" height="279.999992" width="633.999981" y="-310.000001" x="109.999997" fill-opacity="0" stroke="#000000" fill="#000000"/>
 </g>
</svg>