<?xml version="1.0"?>
<svg width="626" height="294" xmlns="http://www.w3.org/2000/svg" xmlns:svg="http://www.w3.org/2000/svg">
 <defs>
  <filter y="0" x="0" id="shadow" filterRes="100">
   <feGaussianBlur stdDeviation="2 2"/>
  </filter>
  <linearGradient y2="100%" y1="0%" x2="100%" x1="0%" id="lightgrey">
   <stop stop-color="rgb(255,255,255)" offset="0%"/>
   <stop stop-color="rgb(220,220,220)" offset="100%"/>
  </linearGradient>
  <linearGradient y2="100%" y1="0%" x2="100%" x1="0%" id="black">
   <stop stop-color="rgb(150,150,150)" stop-opacity="2" offset="0%"/>
   <stop stop-color="rgb(0,0,0)" stop-opacity="2" offset="100%"/>
  </linearGradient>
 </defs>
 <g transform="scale(1) translate(4,290) " id="graph0" class="graph">
  <title>G</title>
  <g id="clust1" class="cluster">
   <title>clusterActors</title>
   <polygon id="svg_1" points="8,-8 13.441771916774766,-13.836645612411603 8,-278 8,-278 62.65551685473343,-276.28 94,-278 94,-278 99.4,-61.90686052942982 94,-8 94,-8 57.78192665339779,-6.28 8,-8 " fill="none"/>
  </g>
  <g id="clust2" class="cluster">
   <title>clusteryuml_e__</title>
   <polygon id="svg_2" points="16,-147 18.46,-212.9302903290816 16,-270 16,-270 43.54429515852571,-268.6 86,-270 86,-270 88.46,-226.04185431990183 86,-147 86,-147 49.736219169018575,-145.6 16,-147 " fill="none"/>
   <text id="svg_3" font-size="13px" font-family="Rufscript" y="-156.8" x="51" text-anchor="middle">用户</text>
  </g>
  <g id="clust3" class="cluster">
   <title>clusteryuml_f__</title>
   <polygon id="svg_4" points="16,-16 18.46,-52.64279182887298 16,-139 16,-139 71.3386394777271,-137.6 86,-139 86,-139 88.46,-136.27729163676742 86,-16 86,-16 49.0959097371405,-14.6 16,-16 " fill="none"/>
   <text id="svg_5" font-size="13px" font-family="Rufscript" y="-25.8" x="51" text-anchor="middle">时钟</text>
  </g>
  <g id="clust4" class="cluster">
   <title>clusterSystem</title>
   <polygon id="svg_6" points="114,-79 117.84,-100.71266057697541 114,-271 114,-271 348.3084027259943,-260.62760402676207 610,-271 610,-271 613.84,-238.5325541772233 610,-79 610,-79 595.8038688435624,-69.08 114,-79 " fill="none"/>
  </g>
  <g id="node1" class="node">
   <title>yuml_e__</title>
   <g id="svg_7" transform="translate(30.75,-251.5) scale(0.75) " fill-rule="evenodd" fill="none">
    <g id="svg_8" stroke="#000000">
     <path id="svg_9" d="m32.5,29c8.008129,0 14.5,-6.491871 14.5,-14.5c0,-8.008129 -6.491871,-14.5 -14.5,-14.5c-8.008129,0 -14.5,6.491871 -14.5,14.5c0,8.008129 6.491871,14.5 14.5,14.5z"/>
     <path id="svg_10" fill="none" stroke="black" stroke-opacity="0.3" filter="url(#shadow)" d="m32.5,29c8.008129,0 14.5,-6.491871 14.5,-14.5c0,-8.008129 -6.491871,-14.5 -14.5,-14.5c-8.008129,0 -14.5,6.491871 -14.5,14.5c0,8.008129 6.491871,14.5 14.5,14.5z"/>
     <path id="svg_11" stroke-linecap="square" d="m-0.5,38.5l65.030762,0"/>
     <path id="svg_12" fill="none" stroke="black" stroke-opacity="0.3" stroke-linecap="square" filter="url(#shadow)" d="m-0.5,38.5l65.030762,0"/>
     <path id="svg_13" stroke-linecap="square" d="m32.5,69l25.5,42"/>
     <path id="svg_14" fill="none" stroke="black" stroke-opacity="0.3" stroke-linecap="square" filter="url(#shadow)" d="m32.5,69l25.5,42"/>
     <path id="svg_15" stroke-linecap="square" d="m32.5,69l-25.5,42"/>
     <path id="svg_16" fill="none" stroke="black" stroke-opacity="0.3" stroke-linecap="square" filter="url(#shadow)" d="m32.5,69l-25.5,42"/>
     <path id="svg_17" stroke-linecap="square" d="m32.5,29.5l0,40.5"/>
     <path id="svg_18" fill="none" stroke="black" stroke-opacity="0.3" stroke-linecap="square" filter="url(#shadow)" d="m32.5,29.5l0,40.5"/>
    </g>
   </g>
  </g>
  <g id="node3" class="node">
   <title>yuml_e1____</title>
   <ellipse id="svg_19" fill-opacity="0.2" ry="23.1702" rx="62.4516" filter="url(#shadow)" fill="black" cy="-194" cx="234"/>
   <ellipse id="svg_20" stroke="black" ry="23.1702" rx="62.4516" fill="url(#lightgrey)" cy="-194" cx="234"/>
   <text id="svg_21" font-size="13px" font-family="Rufscript" y="-192.3" x="234" text-anchor="middle">控制空调</text>
  </g>
  <g id="edge1" class="edge">
   <title>yuml_e__-&gt;yuml_e1____</title>
   <path id="svg_22" stroke="black" fill="none" d="m78.319,-216.219c25.394,3.647 64.678,9.29 97.302,13.977"/>
   <path id="svg_23" stroke-opacity="0.1" stroke="{@stroke}" filter="url(#shadow)" fill="none" d="m78.319,-216.219c25.394,3.647 64.678,9.29 97.302,13.977"/>
  </g>
  <g id="node2" class="node">
   <title>yuml_f__</title>
   <g id="svg_24" transform="translate(30.75,-120.5) scale(0.75) " fill-rule="evenodd" fill="none">
    <g id="svg_25" stroke="#000000">
     <path id="svg_26" d="m32.5,29c8.008129,0 14.5,-6.491871 14.5,-14.5c0,-8.008129 -6.491871,-14.5 -14.5,-14.5c-8.008129,0 -14.5,6.491871 -14.5,14.5c0,8.008129 6.491871,14.5 14.5,14.5z"/>
     <path id="svg_27" fill="none" stroke="black" stroke-opacity="0.3" filter="url(#shadow)" d="m32.5,29c8.008129,0 14.5,-6.491871 14.5,-14.5c0,-8.008129 -6.491871,-14.5 -14.5,-14.5c-8.008129,0 -14.5,6.491871 -14.5,14.5c0,8.008129 6.491871,14.5 14.5,14.5z"/>
     <path id="svg_28" stroke-linecap="square" d="m-0.5,38.5l65.030762,0"/>
     <path id="svg_29" fill="none" stroke="black" stroke-opacity="0.3" stroke-linecap="square" filter="url(#shadow)" d="m-0.5,38.5l65.030762,0"/>
     <path id="svg_30" stroke-linecap="square" d="m32.5,69l25.5,42"/>
     <path id="svg_31" fill="none" stroke="black" stroke-opacity="0.3" stroke-linecap="square" filter="url(#shadow)" d="m32.5,69l25.5,42"/>
     <path id="svg_32" stroke-linecap="square" d="m32.5,69l-25.5,42"/>
     <path id="svg_33" fill="none" stroke="black" stroke-opacity="0.3" stroke-linecap="square" filter="url(#shadow)" d="m32.5,69l-25.5,42"/>
     <path id="svg_34" stroke-linecap="square" d="m32.5,29.5l0,40.5"/>
     <path id="svg_35" fill="none" stroke="black" stroke-opacity="0.3" stroke-linecap="square" filter="url(#shadow)" d="m32.5,29.5l0,40.5"/>
    </g>
   </g>
  </g>
  <g id="node7" class="node">
   <title>yuml_f1_________</title>
   <ellipse id="svg_36" fill-opacity="0.2" ry="23.1702" rx="111.946" filter="url(#shadow)" fill="black" cy="-110" cx="234"/>
   <ellipse id="svg_37" stroke="black" ry="23.1702" rx="111.946" fill="url(#lightgrey)" cy="-110" cx="234"/>
   <text id="svg_38" font-size="13px" font-family="Rufscript" y="-108.3" x="234" text-anchor="middle">触发从控机自动更新</text>
  </g>
  <g id="edge2" class="edge">
   <title>yuml_f__-&gt;yuml_f1_________</title>
   <path id="svg_39" stroke="black" fill="none" d="m78.319,-92.0536c15.5894,-1.8087 36.414,-4.2248 57.718,-6.6966"/>
   <path id="svg_40" stroke-opacity="0.1" stroke="{@stroke}" filter="url(#shadow)" fill="none" d="m78.319,-92.0536c15.5894,-1.8087 36.414,-4.2248 57.718,-6.6966"/>
  </g>
  <g id="node4" class="node">
   <title>yuml_e2_____</title>
   <ellipse id="svg_41" fill-opacity="0.2" ry="23.1702" rx="72.6644" filter="url(#shadow)" fill="black" cy="-110" cx="529"/>
   <ellipse id="svg_42" stroke="black" ry="23.1702" rx="72.6644" fill="url(#lightgrey)" cy="-110" cx="529"/>
   <text id="svg_43" font-size="13px" font-family="Rufscript" y="-108.3" x="529" text-anchor="middle">开启从控机</text>
  </g>
  <g id="edge3" class="edge">
   <title>yuml_e1____-&gt;yuml_e2_____</title>
   <path id="svg_44" stroke-dasharray="5,2" stroke="black" fill="none" d="m283.712,-180.035c49.557,14.208 126.59,36.292 180.879,51.856"/>
   <path id="svg_45" stroke-opacity="0.1" stroke-dasharray="5,2" stroke="{@stroke}" filter="url(#shadow)" fill="none" d="m283.712,-180.035c49.557,14.208 126.59,36.292 180.879,51.856"/>
   <polygon id="svg_46" fill-opacity="0.2" points="474.451,-125.352 469.91521304238006,-129.14111017868066 466.079,-132.434 466.079,-132.434 466.37188160170234,-132.05366698542846 469.645,-126.73 469.645,-126.73 469.24921259951776,-126.73576434268315 464.839,-128.108 464.839,-128.108 464.93340173124386,-128.01445791536 464.839,-128.108 464.839,-128.108 464.88513990594885,-128.05010953317182 464.839,-128.108 464.839,-128.108 465.27712599615865,-127.89154579473961 469.645,-126.73 469.645,-126.73 466.3894634312168,-124.66814099616016 463.598,-123.782 463.598,-123.782 471.33459757440477,-124.33011121474199 474.451,-125.352 474.451,-125.352 474.52857209967215,-125.27848642511339 474.451,-125.352 " filter="url(#shadow)" fill="black"/>
   <polygon id="svg_47" stroke="black" points="474.451,-125.352 473.04164825216236,-126.47275715391581 466.079,-132.434 466.079,-132.434 467.9333378324692,-129.63133960308403 469.645,-126.73 469.645,-126.73 469.3966326498638,-126.71421363292126 464.839,-128.108 464.839,-128.108 464.84787273926713,-128.0952719795587 464.839,-128.108 464.839,-128.108 464.90667101785533,-128.03222139212428 464.839,-128.108 464.839,-128.108 469.3403445318128,-126.61347124393713 469.645,-126.73 469.645,-126.73 467.49006246149474,-125.2498386251667 463.598,-123.782 463.598,-123.782 464.6017374970549,-123.64672354208948 474.451,-125.352 474.451,-125.352 474.4779653794487,-125.3217021263543 474.451,-125.352 " fill="url(#black)"/>
   <text id="svg_48" font-size="10px" font-family="Rufscript" y="-161.8" x="401" text-anchor="middle">&lt;&lt;include&gt;&gt;</text>
  </g>
  <g id="node5" class="node">
   <title>yuml_e3____</title>
   <ellipse id="svg_49" fill-opacity="0.2" ry="23.1702" rx="62.4516" filter="url(#shadow)" fill="black" cy="-175" cx="529"/>
   <ellipse id="svg_50" stroke="black" ry="23.1702" rx="62.4516" fill="url(#lightgrey)" cy="-175" cx="529"/>
   <text id="svg_51" font-size="13px" font-family="Rufscript" y="-173.3" x="529" text-anchor="middle">调节温度</text>
  </g>
  <g id="edge4" class="edge">
   <title>yuml_e1____-&gt;yuml_e3____</title>
   <path id="svg_52" stroke-dasharray="5,2" stroke="black" fill="none" d="m305.339,-189.439c49.471,3.208 114.992,7.457 162.133,10.514"/>
   <path id="svg_53" stroke-opacity="0.1" stroke-dasharray="5,2" stroke="{@stroke}" filter="url(#shadow)" fill="none" d="m305.339,-189.439c49.471,3.208 114.992,7.457 162.133,10.514"/>
   <polygon id="svg_54" fill-opacity="0.2" points="295.355,-190.086 299.1898871150904,-187.87300481892956 305.042,-184.948 305.042,-184.948 304.3749095001009,-185.6689933701889 300.344,-189.763 300.344,-189.763 301.37108692301393,-189.52358685944432 305.334,-189.439 305.334,-189.439 305.5827969208141,-189.27581299987693 305.334,-189.439 305.334,-189.439 305.51667808224437,-189.24152756417118 305.334,-189.439 305.334,-189.439 303.24859820434045,-189.35950340309628 300.344,-189.763 300.344,-189.763 304.0172321215583,-192.022121082833 305.625,-193.93 305.625,-193.93 304.662657445853,-193.21445472480985 295.355,-190.086 295.355,-190.086 295.5725103639978,-189.87261502976224 295.355,-190.086 " filter="url(#shadow)" fill="black"/>
   <polygon id="svg_55" stroke="black" points="295.355,-190.086 296.87307631111725,-189.1660819391738 305.042,-184.948 305.042,-184.948 303.43251950336844,-186.6677257130071 300.344,-189.763 300.344,-189.763 302.87861946904246,-189.30949346862184 305.334,-189.439 305.334,-189.439 305.40766282436437,-189.38048858032016 305.334,-189.439 305.334,-189.439 305.44404149538667,-189.2566203644372 305.334,-189.439 305.334,-189.439 304.98782327711365,-189.34609426904106 300.344,-189.763 300.344,-189.763 301.33803504317245,-190.21742526640563 305.625,-193.93 305.625,-193.93 300.8809319059048,-191.5638484678024 295.355,-190.086 295.355,-190.086 295.6263083595582,-189.85429667921554 295.355,-190.086 " fill="url(#black)"/>
   <text id="svg_56" font-size="10px" font-family="Rufscript" y="-192.8" x="401" text-anchor="middle">&lt;&lt;extend&gt;&gt;</text>
  </g>
  <g id="node6" class="node">
   <title>yuml_e4____</title>
   <ellipse id="svg_57" fill-opacity="0.2" ry="23.1702" rx="62.4516" filter="url(#shadow)" fill="black" cy="-240" cx="529"/>
   <ellipse id="svg_58" stroke="black" ry="23.1702" rx="62.4516" fill="url(#lightgrey)" cy="-240" cx="529"/>
   <text id="svg_59" font-size="13px" font-family="Rufscript" y="-238.3" x="529" text-anchor="middle">调节风速</text>
  </g>
  <g id="edge5" class="edge">
   <title>yuml_e1____-&gt;yuml_e4____</title>
   <path id="svg_60" stroke-dasharray="5,2" stroke="black" fill="none" d="m301.481,-204.437c51.256,-8.047 121.364,-19.054 169.95,-26.682"/>
   <path id="svg_61" stroke-opacity="0.1" stroke-dasharray="5,2" stroke="{@stroke}" filter="url(#shadow)" fill="none" d="m301.481,-204.437c51.256,-8.047 121.364,-19.054 169.95,-26.682"/>
   <polygon id="svg_62" fill-opacity="0.2" points="291.493,-202.869 293.756598386024,-202.05943247559148 302.07,-199.975 302.07,-199.975 301.31304458088573,-200.41385173297138 296.433,-203.645 296.433,-203.645 299.01297228218607,-203.73708710909506 301.372,-204.42 301.372,-204.42 301.3903093487037,-204.4060918541723 301.372,-204.42 301.372,-204.42 301.4079278652237,-204.38619393106129 301.372,-204.42 301.372,-204.42 299.16309215320035,-203.775563796739 296.433,-203.645 296.433,-203.645 297.8034200274691,-204.80571037845314 300.674,-208.866 300.674,-208.866 297.65312830364064,-206.30457904112427 291.493,-202.869 291.493,-202.869 291.54491755005887,-202.80322625103665 291.493,-202.869 " filter="url(#shadow)" fill="black"/>
   <polygon id="svg_63" stroke="black" points="291.493,-202.869 296.5596388999283,-201.23060023322316 302.07,-199.975 302.07,-199.975 299.48162211536436,-201.55333714394584 296.433,-203.645 296.433,-203.645 297.3598790266839,-203.6044244515787 301.372,-204.42 301.372,-204.42 301.5121979694821,-204.23340491987722 301.372,-204.42 301.372,-204.42 301.56285962769425,-204.3052909233768 301.372,-204.42 301.372,-204.42 298.67998766868396,-203.69602508150138 296.433,-203.645 296.433,-203.645 297.41385665630844,-204.39315657821763 300.674,-208.866 300.674,-208.866 298.7668797344374,-207.1256950334776 291.493,-202.869 291.493,-202.869 291.5762751927621,-202.79975022891298 291.493,-202.869 " fill="url(#black)"/>
   <text id="svg_64" font-size="10px" font-family="Rufscript" y="-232.8" x="401" text-anchor="middle">&lt;&lt;extend&gt;&gt;</text>
  </g>
  <rect id="svg_65" height="217" width="508" y="-273" x="107" fill-opacity="0" stroke="#000000" fill="#000000"/>
 </g>
</svg>