<svg xmlns:xlink="http://www.w3.org/1999/xlink" viewBox="0 0 758 362" xmlns="http://www.w3.org/2000/svg" width="758" height="362">
    <style type="text/css"><![CDATA[
.st2 {fill:#1f6391;font-family:宋体;font-size:10pt}
.st1 {fill:#344961;font-family:宋体;font-size:10pt}
]]></style>
    <defs/>
    <g transform="translate(-112,-270.5)">
        <g id="shape1" transform="translate(492,271.5)">
            <path d="M0,0L100,0L100,43L0,43L0,0z" stroke="#8d9cb1" fill="#ffffff"/>
            <text class="st1">
                <tspan y="26" x="31">主模块</tspan>
            </text>
        </g>
        <g id="shape2" transform="translate(492,426)">
            <path d="M0,0L100,0L100,43L0,43L0,0z" stroke="#8d9cb1" fill="#ffffff"/>
            <text class="st1">
                <tspan y="26" x="11">房客登录认证</tspan>
            </text>
        </g>
        <g id="shape3" transform="translate(542,314.5)">
            <path d="M0,0L0,111.5" stroke="#000000" fill="none"/>
            <path stroke-width="1" stroke-linecap="round" d="M4,103.5L0,111.5L-4,103.5" stroke="#000000" stroke-linejoin="round" fill="none"/>
        </g>
        <g id="shape4" transform="translate(375,380)">
            <path d="M3.4,-2.1L85,-52" stroke="#000000" fill="none"/>
            <path stroke-width="1" stroke-linecap="round" d="M-3.4,2.1C-4.6,.2,-4,-2.3,-2.1,-3.4C-0.2,-4.6,2.3,-4,3.4,-2.1C4.6,-0.2,4,2.3,2.1,3.4C.2,4.6,-2.3,4,-3.4,2.1" stroke="#000000" stroke-linejoin="round" fill="none"/>
            <path stroke-width="1" stroke-linecap="round" d="M71.6,-50.9L85,-52L77.9,-40.6" stroke="#000000" stroke-linejoin="round" fill="none"/>
            <text class="st2">
                <tspan y="-17.3" x="3.5">身份认证信息</tspan>
            </text>
        </g>
        <g id="shape5" transform="translate(567,408)">
            <path d="M0,-4L.7,-66" stroke="#000000" fill="none"/>
            <path stroke-width="1" stroke-linecap="round" d="M-0,4C-2.3,4,-4,2.2,-4,-0C-4,-2.3,-2.2,-4,0,-4C2.3,-4,4,-2.2,4,0C4,2.3,2.2,4,-0,4" stroke="#000000" stroke-linejoin="round" fill="none"/>
            <path stroke-width="1" stroke-linecap="round" d="M-5.4,-54.1L.7,-66L6.6,-53.9" stroke="#000000" stroke-linejoin="round" fill="none"/>
            <text class="st2">
                <tspan y="-34.3" x="-46.1">从控机开机信息</tspan>
                <tspan y="-19.3" x="-46.1">使用授权</tspan>
            </text>
        </g>
        <g id="shape6" transform="translate(301,418.5)">
            <path d="M0,0L100,0L100,58L0,58L0,0z" stroke="#8d9cb1" fill="#ffffff"/>
            <text class="st1">
                <tspan y="26" x="5">获取身份认证信</tspan>
                <tspan y="41" x="44">息</tspan>
            </text>
        </g>
        <g id="shape7" transform="translate(637,426)">
            <path d="M0,0L100,0L100,43L0,43L0,0z" stroke="#8d9cb1" fill="#ffffff"/>
            <text class="st1">
                <tspan y="26" x="24">给出结果</tspan>
            </text>
        </g>
        <g id="shape8" transform="translate(517,314.5)">
            <path d="M0,0L-166,104" stroke="#000000" fill="none"/>
            <path stroke-width="1" stroke-linecap="round" d="M-157.1,103.1L-166,104L-161.3,96.4" stroke="#000000" stroke-linejoin="round" fill="none"/>
        </g>
        <g id="shape9" transform="translate(521,340)">
            <path d="M0,4L0,62" stroke="#000000" fill="none"/>
            <path stroke-width="1" stroke-linecap="round" d="M0,-4C2.2,-4,4,-2.2,4,0C4,2.2,2.2,4,0,4C-2.2,4,-4,2.2,-4,0C-4,-2.2,-2.2,-4,0,-4" stroke="#000000" stroke-linejoin="round" fill="none"/>
            <path stroke-width="1" stroke-linecap="round" d="M6,50L0,62L-6,50" stroke="#000000" stroke-linejoin="round" fill="none"/>
            <text class="st2">
                <tspan y="5.7" x="-40">目标房客信息</tspan>
                <tspan y="20.7" x="-40">身份认证信息</tspan>
            </text>
        </g>
        <g id="shape10" transform="translate(567,314.5)">
            <path d="M0,0L120,111.5" stroke="#000000" fill="none"/>
            <path stroke-width="1" stroke-linecap="round" d="M116.9,103.1L120,111.5L111.4,109" stroke="#000000" stroke-linejoin="round" fill="none"/>
        </g>
        <g id="shape11" transform="translate(609,332)">
            <path d="M2.9,2.7L74,68" stroke="#000000" fill="none"/>
            <path stroke-width="1" stroke-linecap="round" d="M-2.9,-2.7C-1.5,-4.3,1.1,-4.4,2.7,-2.9C4.3,-1.5,4.4,1.1,2.9,2.7C1.5,4.3,-1.1,4.4,-2.7,2.9C-4.3,1.5,-4.4,-1.1,-2.9,-2.7" stroke="#000000" stroke-linejoin="round" fill="none"/>
            <path stroke-width="1" stroke-linecap="round" d="M69.2,55.5L74,68L61.1,64.3" stroke="#000000" stroke-linejoin="round" fill="none"/>
            <text class="st2">
                <tspan y="6.7" x="-9.5">从控机开机信息</tspan>
            </text>
        </g>
        <g id="shape12" transform="translate(203,539)">
            <path d="M3.4,-2.1L62,-38" stroke="#000000" fill="none"/>
            <path stroke-width="1" stroke-linecap="round" d="M-3.4,2.1C-4.6,.2,-4,-2.3,-2.1,-3.4C-0.2,-4.6,2.3,-4,3.4,-2.1C4.6,-0.2,4,2.3,2.1,3.4C.2,4.6,-2.3,4,-3.4,2.1" stroke="#000000" stroke-linejoin="round" fill="none"/>
            <path stroke-width="1" stroke-linecap="round" d="M48.6,-36.8L62,-38L54.9,-26.6" stroke="#000000" stroke-linejoin="round" fill="none"/>
            <text class="st2">
                <tspan y="-17.3" x="5">登录信息</tspan>
            </text>
        </g>
        <g id="shape13" transform="translate(113,581)">
            <path d="M0,0L100,0L100,43L0,43L0,0z" stroke="#8d9cb1" fill="#ffffff"/>
            <text class="st1">
                <tspan y="26" x="11">获取登录信息</tspan>
            </text>
        </g>
        <g id="shape14" transform="translate(326,476.5)">
            <path d="M0,0L-163,104.5" stroke="#000000" fill="none"/>
            <path stroke-width="1" stroke-linecap="round" d="M-154.1,103.5L-163,104.5L-158.4,96.8" stroke="#000000" stroke-linejoin="round" fill="none"/>
        </g>
        <g id="shape15" transform="translate(340,557)">
            <path d="M0,-4L0,-56" stroke="#000000" fill="none"/>
            <path stroke-width="1" stroke-linecap="round" d="M0,4C-2.2,4,-4,2.2,-4,0C-4,-2.2,-2.2,-4,0,-4C2.2,-4,4,-2.2,4,0C4,2.2,2.2,4,0,4" stroke="#000000" stroke-linejoin="round" fill="none"/>
            <path stroke-width="1" stroke-linecap="round" d="M-6,-44L0,-56L6,-44" stroke="#000000" stroke-linejoin="round" fill="none"/>
            <text class="st2">
                <tspan y="-26.8" x="-45.5">从控机配置信息</tspan>
            </text>
        </g>
        <g id="shape16" transform="translate(301,573.5)">
            <path d="M0,0L100,0L100,58L0,58L0,0z" stroke="#8d9cb1" fill="#ffffff"/>
            <text class="st1">
                <tspan y="26" x="5">获取从控机配置</tspan>
                <tspan y="41" x="37">信息</tspan>
            </text>
        </g>
        <g id="shape17" transform="translate(351,476.5)">
            <path d="M0,0L0,97" stroke="#000000" fill="none"/>
            <path stroke-width="1" stroke-linecap="round" d="M4,89L0,97L-4,89" stroke="#000000" stroke-linejoin="round" fill="none"/>
        </g>
        <g id="shape18" transform="translate(420,529)">
            <path d="M3.3,2.2L43,29" stroke="#000000" fill="none"/>
            <path stroke-width="1" stroke-linecap="round" d="M-3.3,-2.2C-2.1,-4.1,.4,-4.6,2.2,-3.3C4.1,-2.1,4.6,.4,3.3,2.2C2.1,4.1,-0.4,4.6,-2.2,3.3C-4.1,2.1,-4.6,-0.4,-3.3,-2.2" stroke="#000000" stroke-linejoin="round" fill="none"/>
            <path stroke-width="1" stroke-linecap="round" d="M36.4,17.3L43,29L29.7,27.3" stroke="#000000" stroke-linejoin="round" fill="none"/>
            <text class="st2">
                <tspan y="-3.2" x="-24">从控机配置信息</tspan>
                <tspan y="11.8" x="-4">登录信息</tspan>
            </text>
        </g>
        <g id="shape19" transform="translate(481,573.5)">
            <path d="M0,0L100,0L100,58L0,58L0,0z" stroke="#8d9cb1" fill="#ffffff"/>
            <text class="st1">
                <tspan y="26" x="5">获取从控机配置</tspan>
                <tspan y="41" x="37">信息</tspan>
            </text>
        </g>
        <g id="shape20" transform="translate(376,476.5)">
            <path d="M0,0L155,97" stroke="#000000" fill="none"/>
            <path stroke-width="1" stroke-linecap="round" d="M150.3,89.4L155,97L146.1,96.1" stroke="#000000" stroke-linejoin="round" fill="none"/>
        </g>
        <g id="shape21" transform="translate(491,524)">
            <path d="M-3.5,-2L-66,-38" stroke="#000000" fill="none"/>
            <path stroke-width="1" stroke-linecap="round" d="M3.5,2C2.4,3.9,-0.1,4.6,-2,3.5C-3.9,2.4,-4.6,-0.1,-3.5,-2C-2.4,-3.9,.1,-4.6,2,-3.5C3.9,-2.4,4.6,.1,3.5,2" stroke="#000000" stroke-linejoin="round" fill="none"/>
            <path stroke-width="1" stroke-linecap="round" d="M-58.6,-26.8L-66,-38L-52.6,-37.2" stroke="#000000" stroke-linejoin="round" fill="none"/>
            <text class="st2">
                <tspan y="-16.8" x="-72">身份认证信息</tspan>
            </text>
        </g>
        <g id="shape22" transform="translate(769,426)">
            <path d="M0,0L100,0L100,43L0,43L0,0z" stroke="#8d9cb1" fill="#ffffff"/>
            <text class="st1">
                <tspan y="26" x="24">给出结果</tspan>
            </text>
        </g>
        <g id="shape23" transform="translate(592,303.75)">
            <path d="M0,0L227,122.3" stroke="#000000" fill="none"/>
            <path stroke-width="1" stroke-linecap="round" d="M221.9,114.9L227,122.3L218.1,122" stroke="#000000" stroke-linejoin="round" fill="none"/>
        </g>
        <g id="shape24" transform="translate(709,340)">
            <path d="M3.5,2L106,60" stroke="#000000" fill="none"/>
            <path stroke-width="1" stroke-linecap="round" d="M-3.5,-2C-2.4,-3.9,0,-4.6,2,-3.5C3.9,-2.4,4.6,0,3.5,2C2.4,3.9,-0,4.6,-2,3.5C-3.9,2.4,-4.6,-0,-3.5,-2" stroke="#000000" stroke-linejoin="round" fill="none"/>
            <path stroke-width="1" stroke-linecap="round" d="M98.5,48.9L106,60L92.6,59.3" stroke="#000000" stroke-linejoin="round" fill="none"/>
            <text class="st2">
                <tspan y="3" x="26">使用授权</tspan>
            </text>
        </g>
        <g id="shape25" transform="translate(283,378)">
            <path d="M3.6,-1.6L104,-47" stroke="#000000" fill="none"/>
            <path stroke-width="1" stroke-linecap="round" d="M-3.6,1.6C-4.6,-0.4,-3.7,-2.7,-1.6,-3.6C.4,-4.6,2.7,-3.7,3.6,-1.6C4.6,.4,3.7,2.7,1.6,3.6C-0.4,4.6,-2.7,3.7,-3.6,1.6" stroke="#000000" stroke-linejoin="round" fill="none"/>
            <path stroke-width="1" stroke-linecap="round" d="M90.6,-47.5L104,-47L95.5,-36.6" stroke="#000000" stroke-linejoin="round" fill="none"/>
            <text class="st2">
                <tspan y="-15.1" x="13">目标房客信息</tspan>
            </text>
        </g>
        <g id="shape26" transform="translate(162,426)">
            <path d="M0,0L100,0L100,43L0,43L0,0z" stroke="#8d9cb1" fill="#ffffff"/>
            <text class="st1">
                <tspan y="26" x="24">取得数据</tspan>
            </text>
        </g>
        <g id="shape27" transform="translate(492,303.75)">
            <path d="M0,0L-280,122.3" stroke="#000000" fill="none"/>
            <path stroke-width="1" stroke-linecap="round" d="M-271.1,122.7L-280,122.3L-274.3,115.4" stroke="#000000" stroke-linejoin="round" fill="none"/>
        </g>
    </g>
</svg>
