<svg xmlns="http://www.w3.org/2000/svg" xmlns:xlink="http://www.w3.org/1999/xlink" width="398" height="61" viewBox="0 0 398 61">
    <style type="text/css"><![CDATA[
.st1 {fill:#000000;font-family:宋体;font-size:10pt}
]]></style>
    <defs>
        <linearGradient x2="0%" x1="0%" id="lg1" y2="100%" y1="0%">
            <stop stop-color="#fcfcfc" offset="0"/>
            <stop stop-color="#f5f5f5" offset="0.5"/>
            <stop stop-color="#eeeeee" offset="1"/>
        </linearGradient>
    </defs>
    <g transform="translate(-249,-305.89)">
        <g transform="translate(417.34,306.88)" id="shape1">
            <path fill-opacity="0.5" d="M2,30.1C2,14.6,14.6,2,30.1,2C45.6,2,58.2,14.6,58.2,30.1C58.2,45.6,45.6,58.2,30.1,58.2C14.6,58.2,2,45.6,2,30.1z" fill="#bebebe"/>
            <path d="M0,28.1C0,12.6,12.6,0,28.1,0C43.6,0,56.2,12.6,56.2,28.1C56.2,43.6,43.6,56.2,28.1,56.2C12.6,56.2,-0,43.6,0,28.1z" stroke="#545454" fill="url(#lg1)"/>
            <text class="st1">
                <tspan y="25.1" x="9.1">查看实</tspan>
                <tspan y="40.1" x="9.1">时信息</tspan>
            </text>
        </g>
        <g transform="matrix(-1,0,0,-1,417.3,335)" id="shape2">
            <path d="M0,-0L151.9,-0" stroke="#545454" fill="none"/>
            <path d="M162.3,-0L151.9,-2.6L151.9,2.6L162.3,-0" stroke-linecap="round" stroke="#545454" fill="#545454" stroke-width="1"/>
            <text transform="matrix(-1,-0,0,-1,162.3,0)" class="st1">
                <tspan y="4.5" x="16.2">全部从控机及房间信息</tspan>
            </text>
        </g>
        <g transform="matrix(-1,0,0,-1,642,335)" id="shape3">
            <path d="M0,-0L158,-0" stroke="#545454" fill="none"/>
            <path d="M168.4,-0L158,-2.6L158,2.6L168.4,-0" stroke-linecap="round" stroke="#545454" fill="#545454" stroke-width="1"/>
            <text transform="matrix(-1,-0,0,-1,168.4,0)" class="st1">
                <tspan y="4.5" x="32.2">从控机及房间信息</tspan>
            </text>
        </g>
    </g>
</svg>
