<svg xmlns="http://www.w3.org/2000/svg" viewBox="0 0 498 200" width="498" xmlns:xlink="http://www.w3.org/1999/xlink" height="200">
    <style type="text/css"><![CDATA[
.st2 {fill:#1f6391;font-family:宋体;font-size:10pt}
.st1 {fill:#344961;font-family:宋体;font-size:10pt}
]]></style>
    <defs/>
    <g transform="translate(-290,-260.5)">
        <g id="shape1" transform="translate(482,261.5)">
            <path stroke="#8d9cb1" fill="#ffffff" d="M0,0L100,0L100,43L0,43L0,0z"/>
            <text class="st1">
                <tspan y="26" x="31">主模块</tspan>
            </text>
        </g>
        <g id="shape2" transform="translate(482,416)">
            <path stroke="#8d9cb1" fill="#ffffff" d="M0,0L100,0L100,43L0,43L0,0z"/>
            <text class="st1">
                <tspan y="26" x="11">管理房客信息</tspan>
            </text>
        </g>
        <g id="shape3" transform="translate(532,304.5)">
            <path stroke="#000000" d="M0,0L0,111.5" fill="none"/>
            <path stroke-linejoin="round" stroke="#000000" fill="none" d="M4,103.5L0,111.5L-4,103.5" stroke-linecap="round" stroke-width="1"/>
        </g>
        <g id="shape4" transform="translate(365,370)">
            <path stroke="#000000" d="M3.4,-2.1L85,-52" fill="none"/>
            <path stroke-linejoin="round" stroke="#000000" fill="none" d="M-3.4,2.1C-4.6,.2,-4,-2.3,-2.1,-3.4C-0.2,-4.6,2.3,-4,3.4,-2.1C4.6,-0.2,4,2.3,2.1,3.4C.2,4.6,-2.3,4,-3.4,2.1" stroke-linecap="round" stroke-width="1"/>
            <path stroke-linejoin="round" stroke="#000000" fill="none" d="M71.6,-50.9L85,-52L77.9,-40.6" stroke-linecap="round" stroke-width="1"/>
            <text class="st2">
                <tspan y="-17.3" x="16.5">房客信息</tspan>
            </text>
        </g>
        <g id="shape5" transform="translate(553.29,398)">
            <path stroke="#000000" d="M0,-4L.7,-66" fill="none"/>
            <path stroke-linejoin="round" stroke="#000000" fill="none" d="M-0,4C-2.3,4,-4,2.2,-4,-0C-4,-2.3,-2.2,-4,0,-4C2.3,-4,4,-2.2,4,0C4,2.3,2.2,4,-0,4" stroke-linecap="round" stroke-width="1"/>
            <path stroke-linejoin="round" stroke="#000000" fill="none" d="M-5.4,-54.1L.7,-66L6.6,-53.9" stroke-linecap="round" stroke-width="1"/>
            <text class="st2">
                <tspan y="-26.8" x="-39.6">全部房客信息</tspan>
            </text>
        </g>
        <g id="shape6" transform="translate(291,416)">
            <path stroke="#8d9cb1" fill="#ffffff" d="M0,0L100,0L100,43L0,43L0,0z"/>
            <text class="st1">
                <tspan y="26" x="24">取得数据</tspan>
            </text>
        </g>
        <g id="shape7" transform="translate(687,416)">
            <path stroke="#8d9cb1" fill="#ffffff" d="M0,0L100,0L100,43L0,43L0,0z"/>
            <text class="st1">
                <tspan y="26" x="24">给出结果</tspan>
            </text>
        </g>
        <g id="shape8" transform="translate(507,304.5)">
            <path stroke="#000000" d="M0,0L-166,111.5" fill="none"/>
            <path stroke-linejoin="round" stroke="#000000" fill="none" d="M-157.1,110.4L-166,111.5L-161.6,103.7" stroke-linecap="round" stroke-width="1"/>
        </g>
        <g id="shape9" transform="translate(511,337)">
            <path stroke="#000000" d="M0,4L0,62" fill="none"/>
            <path stroke-linejoin="round" stroke="#000000" fill="none" d="M0,-4C2.2,-4,4,-2.2,4,0C4,2.2,2.2,4,0,4C-2.2,4,-4,2.2,-4,0C-4,-2.2,-2.2,-4,0,-4" stroke-linecap="round" stroke-width="1"/>
            <path stroke-linejoin="round" stroke="#000000" fill="none" d="M6,50L0,62L-6,50" stroke-linecap="round" stroke-width="1"/>
            <text class="st2">
                <tspan y="13.2" x="-27">房客信息</tspan>
            </text>
        </g>
        <g id="shape10" transform="translate(557,304.5)">
            <path stroke="#000000" d="M0,0L180,111.5" fill="none"/>
            <path stroke-linejoin="round" stroke="#000000" fill="none" d="M175.3,103.9L180,111.5L171.1,110.7" stroke-linecap="round" stroke-width="1"/>
        </g>
        <g id="shape11" transform="translate(615,314)">
            <path stroke="#000000" d="M3.4,2.1L89,55" fill="none"/>
            <path stroke-linejoin="round" stroke="#000000" fill="none" d="M-3.4,-2.1C-2.2,-4,.2,-4.6,2.1,-3.4C4,-2.2,4.6,.2,3.4,2.1C2.2,4,-0.2,4.6,-2.1,3.4C-4,2.2,-4.6,-0.2,-3.4,-2.1" stroke-linecap="round" stroke-width="1"/>
            <path stroke-linejoin="round" stroke="#000000" fill="none" d="M81.9,43.6L89,55L75.6,53.8" stroke-linecap="round" stroke-width="1"/>
            <text class="st2">
                <tspan y="3.7" x="4.5">全部房客信息</tspan>
            </text>
        </g>
    </g>
</svg>
