<svg xmlns="http://www.w3.org/2000/svg" xmlns:xlink="http://www.w3.org/1999/xlink" width="264" height="61" viewBox="0 0 264 61">
    <style type="text/css"><![CDATA[
.st1 {fill:#000000;font-family:宋体;font-size:10pt}
]]></style>
    <defs>
        <linearGradient x2="0%" x1="0%" id="lg1" y2="100%" y1="0%">
            <stop stop-color="#fcfcfc" offset="0"/>
            <stop stop-color="#f5f5f5" offset="0.5"/>
            <stop stop-color="#eeeeee" offset="1"/>
        </linearGradient>
    </defs>
    <g transform="translate(-355,-201.79)">
        <g transform="matrix(1,0.01,-0.01,1,361.1,230.2)" id="shape1">
            <path d="M0,-0L80.3,-0" stroke="#545454" fill="none"/>
            <path d="M90.7,-0L80.3,-2.6L80.3,2.6L90.7,-0" stroke-linecap="round" stroke="#545454" fill="#545454" stroke-width="1"/>
            <text transform="matrix(1,-0.01,0.01,1,0,0.2)" class="st1">
                <tspan y="4.5" x="19.4">房客信息</tspan>
            </text>
        </g>
        <g transform="translate(451.78,202.79)" id="shape2">
            <path fill-opacity="0.5" d="M2,29.9C2,14.5,14.5,2,29.9,2C45.3,2,57.8,14.5,57.7,29.9C57.7,45.3,45.3,57.7,29.9,57.7C14.5,57.7,2,45.3,2,29.9z" fill="#bebebe"/>
            <path d="M0,27.9C-0,12.5,12.5,-0,27.9,-0C43.3,-0,55.8,12.5,55.7,27.9C55.7,43.3,43.3,55.7,27.9,55.7C12.5,55.7,0,43.3,0,27.9z" stroke="#545454" fill="url(#lg1)"/>
            <text class="st1">
                <tspan y="24.9" x="8.4">管理房</tspan>
                <tspan y="39.9" x="8.4">客信息</tspan>
            </text>
        </g>
        <g transform="translate(507.53,230.67)" id="shape3">
            <path d="M0,-0L96.1,-0" stroke="#545454" fill="none"/>
            <path d="M106.5,-0L96.1,-2.6L96.1,2.6L106.5,-0" stroke-linecap="round" stroke="#545454" fill="#545454" stroke-width="1"/>
            <text class="st1">
                <tspan y="4.5" x="14.2">房客信息文件</tspan>
            </text>
        </g>
    </g>
</svg>
