<svg xmlns="http://www.w3.org/2000/svg" xmlns:xlink="http://www.w3.org/1999/xlink" width="465" height="136" viewBox="0 0 465 136">
    <style type="text/css"><![CDATA[
.st1 {fill:#000000;font-family:宋体;font-size:10pt}
]]></style>
    <defs>
        <linearGradient x2="0%" x1="0%" id="lg1" y2="100%" y1="0%">
            <stop stop-color="#fcfcfc" offset="0"/>
            <stop stop-color="#f5f5f5" offset="0.5"/>
            <stop stop-color="#eeeeee" offset="1"/>
        </linearGradient>
    </defs>
    <g transform="translate(-226.28,-326.78)">
        <g transform="matrix(-1,0,0,-1,686.1,355.7)" id="shape1">
            <path d="M0,-0L107.9,-0" stroke="#545454" fill="none"/>
            <path d="M118.3,-0L107.9,-2.6L107.9,2.6L118.3,-0" stroke-linecap="round" stroke="#545454" fill="#545454" stroke-width="1"/>
            <text transform="matrix(-1,-0,0,-1,118.3,0)" class="st1">
                <tspan y="4.5" x="33.2">房间温度</tspan>
            </text>
        </g>
        <g transform="translate(344.29,327.79)" id="shape2">
            <path fill-opacity="0.5" d="M2,29.9C2,14.5,14.5,2,29.9,2C45.3,2,57.8,14.5,57.7,29.9C57.7,45.3,45.3,57.7,29.9,57.7C14.5,57.7,2,45.3,2,29.9z" fill="#bebebe"/>
            <path d="M0,27.9C-0,12.5,12.5,-0,27.9,-0C43.3,-0,55.8,12.5,55.7,27.9C55.7,43.3,43.3,55.7,27.9,55.7C12.5,55.7,0,43.3,0,27.9z" stroke="#545454" fill="url(#lg1)"/>
            <text class="st1">
                <tspan y="24.9" x="8.4">房间信</tspan>
                <tspan y="39.9" x="8.4">息更新</tspan>
            </text>
        </g>
        <g transform="translate(512.01,327.79)" id="shape3">
            <path fill-opacity="0.5" d="M2,29.9C2,14.5,14.5,2,29.9,2C45.3,2,57.8,14.5,57.7,29.9C57.7,45.3,45.3,57.7,29.9,57.7C14.5,57.7,2,45.3,2,29.9z" fill="#bebebe"/>
            <path d="M0,27.9C-0,12.5,12.5,-0,27.9,-0C43.3,-0,55.8,12.5,55.7,27.9C55.7,43.3,43.3,55.7,27.9,55.7C12.5,55.7,0,43.3,0,27.9z" stroke="#545454" fill="url(#lg1)"/>
            <text class="st1">
                <tspan y="24.9" x="8.4">发送房</tspan>
                <tspan y="39.9" x="8.4">间信息</tspan>
            </text>
        </g>
        <g transform="matrix(-1,0,0,-1,512,355.7)" id="shape4">
            <path d="M0,-0L101.6,-0" stroke="#545454" fill="none"/>
            <path d="M112,-0L101.6,-2.6L101.6,2.6L112,-0" stroke-linecap="round" stroke="#545454" fill="#545454" stroke-width="1"/>
            <text transform="matrix(-1,-0,0,-1,112,0)" class="st1">
                <tspan y="4.5" x="30">房间信息</tspan>
            </text>
        </g>
        <g transform="matrix(0,-1,1,0,539.9,453.4)" id="shape5">
            <path d="M0,-0L59.4,-0" stroke="#545454" fill="none"/>
            <path d="M69.8,-0L59.4,-2.6L59.4,2.6L69.8,-0" stroke-linecap="round" stroke="#545454" fill="#545454" stroke-width="1"/>
            <text transform="matrix(0,1,-1,0,34.9,-34.9)" class="st1">
                <tspan y="4.5" x="-10.6">从控机配置信息</tspan>
            </text>
        </g>
        <g transform="matrix(-1,0,0,-1,344.3,355.7)" id="shape6">
            <path d="M0,-0L101.6,-0" stroke="#545454" fill="none"/>
            <path d="M112,-0L101.6,-2.6L101.6,2.6L112,-0" stroke-linecap="round" stroke="#545454" fill="#545454" stroke-width="1"/>
            <text transform="matrix(-1,-0,0,-1,112,0)" class="st1">
                <tspan y="4.5" x="17">目标房间信息</tspan>
            </text>
        </g>
    </g>
</svg>
