<svg xmlns="http://www.w3.org/2000/svg" viewBox="0 0 507 207" width="507" xmlns:xlink="http://www.w3.org/1999/xlink" height="207">
    <style type="text/css"><![CDATA[
.st2 {fill:#1f6391;font-family:宋体;font-size:10pt}
.st1 {fill:#344961;font-family:宋体;font-size:10pt}
]]></style>
    <defs/>
    <g transform="translate(-280,-250.5)">
        <g id="shape1" transform="translate(472,251.5)">
            <path stroke="#8d9cb1" fill="#ffffff" d="M0,0L100,0L100,43L0,43L0,0z"/>
            <text class="st1">
                <tspan y="26" x="31">主模块</tspan>
            </text>
        </g>
        <g id="shape2" transform="translate(472,406)">
            <path stroke="#8d9cb1" fill="#ffffff" d="M0,0L100,0L100,43L0,43L0,0z"/>
            <text class="st1">
                <tspan y="26" x="11">费用能耗计算</tspan>
            </text>
        </g>
        <g id="shape3" transform="translate(522,294.5)">
            <path stroke="#000000" d="M0,0L0,111.5" fill="none"/>
            <path stroke-linejoin="round" stroke="#000000" fill="none" d="M4,103.5L0,111.5L-4,103.5" stroke-linecap="round" stroke-width="1"/>
        </g>
        <g id="shape4" transform="translate(355,360)">
            <path stroke="#000000" d="M3.4,-2.1L85,-52" fill="none"/>
            <path stroke-linejoin="round" stroke="#000000" fill="none" d="M-3.4,2.1C-4.6,.2,-4,-2.3,-2.1,-3.4C-0.2,-4.6,2.3,-4,3.4,-2.1C4.6,-0.2,4,2.3,2.1,3.4C.2,4.6,-2.3,4,-3.4,2.1" stroke-linecap="round" stroke-width="1"/>
            <path stroke-linejoin="round" stroke="#000000" fill="none" d="M71.6,-50.9L85,-52L77.9,-40.6" stroke-linecap="round" stroke-width="1"/>
            <text class="st2">
                <tspan y="-17.3" x="3.5">空调运行状态</tspan>
            </text>
        </g>
        <g id="shape5" transform="translate(543.29,388)">
            <path stroke="#000000" d="M0,-4L.7,-66" fill="none"/>
            <path stroke-linejoin="round" stroke="#000000" fill="none" d="M-0,4C-2.3,4,-4,2.2,-4,-0C-4,-2.3,-2.2,-4,0,-4C2.3,-4,4,-2.2,4,0C4,2.3,2.2,4,-0,4" stroke-linecap="round" stroke-width="1"/>
            <path stroke-linejoin="round" stroke="#000000" fill="none" d="M-5.4,-54.1L.7,-66L6.6,-53.9" stroke-linecap="round" stroke-width="1"/>
            <text class="st2">
                <tspan y="-26.8" x="-25.6">费用能耗</tspan>
            </text>
        </g>
        <g id="shape6" transform="translate(281,398.5)">
            <path stroke="#8d9cb1" fill="#ffffff" d="M0,0L100,0L100,58L0,58L0,0z"/>
            <text class="st1">
                <tspan y="26" x="5">取得空调运行状</tspan>
                <tspan y="41" x="44">态</tspan>
            </text>
        </g>
        <g id="shape7" transform="translate(686,406)">
            <path stroke="#8d9cb1" fill="#ffffff" d="M0,0L100,0L100,43L0,43L0,0z"/>
            <text class="st1">
                <tspan y="26" x="24">给出结果</tspan>
            </text>
        </g>
        <g id="shape8" transform="translate(497,294.5)">
            <path stroke="#000000" d="M0,0L-166,104" fill="none"/>
            <path stroke-linejoin="round" stroke="#000000" fill="none" d="M-157.1,103.1L-166,104L-161.3,96.4" stroke-linecap="round" stroke-width="1"/>
        </g>
        <g id="shape9" transform="translate(501,327)">
            <path stroke="#000000" d="M0,4L0,62" fill="none"/>
            <path stroke-linejoin="round" stroke="#000000" fill="none" d="M0,-4C2.2,-4,4,-2.2,4,0C4,2.2,2.2,4,0,4C-2.2,4,-4,2.2,-4,0C-4,-2.2,-2.2,-4,0,-4" stroke-linecap="round" stroke-width="1"/>
            <path stroke-linejoin="round" stroke="#000000" fill="none" d="M6,50L0,62L-6,50" stroke-linecap="round" stroke-width="1"/>
            <text class="st2">
                <tspan y="13.2" x="-40">空调运行状态</tspan>
            </text>
        </g>
        <g id="shape10" transform="translate(547,294.5)">
            <path stroke="#000000" d="M0,0L189,111.5" fill="none"/>
            <path stroke-linejoin="round" stroke="#000000" fill="none" d="M184.1,104L189,111.5L180.1,110.9" stroke-linecap="round" stroke-width="1"/>
        </g>
        <g id="shape11" transform="translate(605,304)">
            <path stroke="#000000" d="M3.5,2L90,52" fill="none"/>
            <path stroke-linejoin="round" stroke="#000000" fill="none" d="M-3.5,-2C-2.4,-3.9,.1,-4.6,2,-3.5C3.9,-2.4,4.6,.1,3.5,2C2.4,3.9,-0.1,4.6,-2,3.5C-3.9,2.4,-4.6,-0.1,-3.5,-2" stroke-linecap="round" stroke-width="1"/>
            <path stroke-linejoin="round" stroke="#000000" fill="none" d="M82.6,40.8L90,52L76.6,51.2" stroke-linecap="round" stroke-width="1"/>
            <text class="st2">
                <tspan y="3.2" x="18">费用能耗</tspan>
            </text>
        </g>
    </g>
</svg>
