<svg xmlns:xlink="http://www.w3.org/1999/xlink" viewBox="0 0 695 532" xmlns="http://www.w3.org/2000/svg" width="695" height="532">
    <style type="text/css"><![CDATA[
.st2 {fill:#1f6391;font-family:宋体;font-size:10pt}
.st1 {fill:#344961;font-family:宋体;font-size:10pt}
]]></style>
    <defs/>
    <g transform="translate(-235,-46.35)">
        <g id="shape1" transform="translate(466,201.85)">
            <path d="M0,0L100,0L100,58L0,58L0,0z" stroke="#8d9cb1" fill="#ffffff"/>
            <text class="st1">
                <tspan y="26" x="5">获取调节请求记</tspan>
                <tspan y="41" x="44">录</tspan>
            </text>
        </g>
        <g id="shape2" transform="translate(609,363.85)">
            <path d="M0,0L100,0L100,58L0,58L0,0z" stroke="#8d9cb1" fill="#ffffff"/>
            <text class="st1">
                <tspan y="26" x="5">接收温度调节信</tspan>
                <tspan y="41" x="44">息</tspan>
            </text>
        </g>
        <g id="shape3" transform="translate(541,259.85)">
            <path d="M0,0L118,104" stroke="#000000" fill="none"/>
            <path stroke-width="1" stroke-linecap="round" d="M114.6,95.7L118,104L109.4,101.7" stroke="#000000" stroke-linejoin="round" fill="none"/>
        </g>
        <g id="shape4" transform="translate(501,340)">
            <path d="M0,-4L0,-57" stroke="#000000" fill="none"/>
            <path stroke-width="1" stroke-linecap="round" d="M0,4C-2.2,4,-4,2.2,-4,0C-4,-2.2,-2.2,-4,0,-4C2.2,-4,4,-2.2,4,0C4,2.2,2.2,4,0,4" stroke="#000000" stroke-linejoin="round" fill="none"/>
            <path stroke-width="1" stroke-linecap="round" d="M-6,-45L0,-57L6,-45" stroke="#000000" stroke-linejoin="round" fill="none"/>
            <text class="st2">
                <tspan y="-26.8" x="-26">调节请求</tspan>
            </text>
        </g>
        <g id="shape5" transform="translate(652,340)">
            <path d="M-2.9,-2.8L-61,-58" stroke="#000000" fill="none"/>
            <path stroke-width="1" stroke-linecap="round" d="M2.9,2.8C1.4,4.4,-1.2,4.4,-2.8,2.9C-4.4,1.4,-4.4,-1.2,-2.9,-2.8C-1.4,-4.4,1.2,-4.4,2.8,-2.9C4.4,-1.4,4.4,1.2,2.9,2.8" stroke="#000000" stroke-linejoin="round" fill="none"/>
            <path stroke-width="1" stroke-linecap="round" d="M-56.4,-45.4L-61,-58L-48.2,-54.1" stroke="#000000" stroke-linejoin="round" fill="none"/>
            <text class="st2">
                <tspan y="-20.6" x="-70.5">调节请求记录</tspan>
            </text>
        </g>
        <g id="shape6" transform="translate(466,371.35)">
            <path d="M0,0L100,0L100,43L0,43L0,0z" stroke="#8d9cb1" fill="#ffffff"/>
            <text class="st1">
                <tspan y="26" x="11">获取调节请求</tspan>
            </text>
        </g>
        <g id="shape7" transform="translate(593,209.35)">
            <path d="M0,0L100,0L100,43L0,43L0,0z" stroke="#8d9cb1" fill="#ffffff"/>
            <text class="st1">
                <tspan y="26" x="24">负载均衡</tspan>
            </text>
        </g>
        <g id="shape8" transform="translate(516,259.85)">
            <path d="M0,0L0,111.5" stroke="#000000" fill="none"/>
            <path stroke-width="1" stroke-linecap="round" d="M4,103.5L0,111.5L-4,103.5" stroke="#000000" stroke-linejoin="round" fill="none"/>
        </g>
        <g id="shape9" transform="translate(551,284)">
            <path d="M3,2.7L57,52" stroke="#000000" fill="none"/>
            <path stroke-width="1" stroke-linecap="round" d="M-3,-2.7C-1.5,-4.3,1.1,-4.4,2.7,-3C4.3,-1.5,4.4,1.1,3,2.7C1.5,4.3,-1.1,4.4,-2.7,3C-4.3,1.5,-4.4,-1.1,-3,-2.7" stroke="#000000" stroke-linejoin="round" fill="none"/>
            <path stroke-width="1" stroke-linecap="round" d="M52.2,39.5L57,52L44.1,48.3" stroke="#000000" stroke-linejoin="round" fill="none"/>
            <text class="st2">
                <tspan y="-0.9" x="1.5">使用授权</tspan>
                <tspan y="14.1" x="1.5">调节请求</tspan>
            </text>
        </g>
        <g id="shape10" transform="translate(516,201.85)">
            <path d="M0,0L102,-111.5" stroke="#000000" fill="none"/>
            <path stroke-width="1" stroke-linecap="round" d="M93.6,-108.3L102,-111.5L99.6,-102.9" stroke="#000000" stroke-linejoin="round" fill="none"/>
        </g>
        <g id="shape11" transform="translate(520,175)">
            <path d="M2.8,-2.8L52,-52" stroke="#000000" fill="none"/>
            <path stroke-width="1" stroke-linecap="round" d="M-2.8,2.8C-4.4,1.3,-4.4,-1.3,-2.8,-2.8C-1.3,-4.4,1.3,-4.4,2.8,-2.8C4.4,-1.3,4.4,1.3,2.8,2.8C1.3,4.4,-1.3,4.4,-2.8,2.8" stroke="#000000" stroke-linejoin="round" fill="none"/>
            <path stroke-width="1" stroke-linecap="round" d="M39.3,-47.8L52,-52L47.8,-39.3" stroke="#000000" stroke-linejoin="round" fill="none"/>
            <text class="st2">
                <tspan y="-21" x="-14">调节请求记录</tspan>
            </text>
        </g>
        <g id="shape12" transform="translate(397,487)">
            <path d="M3,-2.7L47,-43" stroke="#000000" fill="none"/>
            <path stroke-width="1" stroke-linecap="round" d="M-3,2.7C-4.4,1.1,-4.3,-1.5,-2.7,-3C-1.1,-4.4,1.5,-4.3,3,-2.7C4.4,-1.1,4.3,1.5,2.7,3C1.1,4.4,-1.5,4.3,-3,2.7" stroke="#000000" stroke-linejoin="round" fill="none"/>
            <path stroke-width="1" stroke-linecap="round" d="M34.1,-39.3L47,-43L42.2,-30.5" stroke="#000000" stroke-linejoin="round" fill="none"/>
            <text class="st2">
                <tspan y="-20.3" x="-15.5">目标温度风速</tspan>
            </text>
        </g>
        <g id="shape13" transform="translate(337,518.85)">
            <path d="M0,0L100,0L100,58L0,58L0,0z" stroke="#8d9cb1" fill="#ffffff"/>
            <text class="st1">
                <tspan y="26" x="5">获取目标温度风</tspan>
                <tspan y="41" x="44">速</tspan>
            </text>
        </g>
        <g id="shape14" transform="translate(491,414.35)">
            <path d="M0,0L-104,104.5" stroke="#000000" fill="none"/>
            <path stroke-width="1" stroke-linecap="round" d="M-95.5,101.7L-104,104.5L-101.2,96" stroke="#000000" stroke-linejoin="round" fill="none"/>
        </g>
        <g id="shape15" transform="translate(505,502.35)">
            <path d="M0,-4L0,-56" stroke="#000000" fill="none"/>
            <path stroke-width="1" stroke-linecap="round" d="M0,4C-2.2,4,-4,2.2,-4,0C-4,-2.2,-2.2,-4,0,-4C2.2,-4,4,-2.2,4,0C4,2.2,2.2,4,0,4" stroke="#000000" stroke-linejoin="round" fill="none"/>
            <path stroke-width="1" stroke-linecap="round" d="M-6,-44L0,-56L6,-44" stroke="#000000" stroke-linejoin="round" fill="none"/>
            <text class="st2">
                <tspan y="-26.8" x="-45.5">从控机配置信息</tspan>
            </text>
        </g>
        <g id="shape16" transform="translate(466,518.85)">
            <path d="M0,0L100,0L100,58L0,58L0,0z" stroke="#8d9cb1" fill="#ffffff"/>
            <text class="st1">
                <tspan y="26" x="5">获取从控机配置</tspan>
                <tspan y="41" x="37">信息</tspan>
            </text>
        </g>
        <g id="shape17" transform="translate(516,414.35)">
            <path d="M0,0L0,104.5" stroke="#000000" fill="none"/>
            <path stroke-width="1" stroke-linecap="round" d="M4,96.5L0,104.5L-4,96.5" stroke="#000000" stroke-linejoin="round" fill="none"/>
        </g>
        <g id="shape18" transform="translate(581,476)">
            <path d="M3,2.7L38,34" stroke="#000000" fill="none"/>
            <path stroke-width="1" stroke-linecap="round" d="M-3,-2.7C-1.5,-4.3,1,-4.5,2.7,-3C4.3,-1.5,4.5,1,3,2.7C1.5,4.3,-1,4.5,-2.7,3C-4.3,1.5,-4.5,-1,-3,-2.7" stroke="#000000" stroke-linejoin="round" fill="none"/>
            <path stroke-width="1" stroke-linecap="round" d="M33.1,21.5L38,34L25.1,30.5" stroke="#000000" stroke-linejoin="round" fill="none"/>
            <text class="st2">
                <tspan y="-1" x="-26.5">从控机配置信息</tspan>
                <tspan y="14" x="-19.5">目标温度风速</tspan>
            </text>
        </g>
        <g id="shape19" transform="translate(609,526.35)">
            <path d="M0,0L100,0L100,43L0,43L0,0z" stroke="#8d9cb1" fill="#ffffff"/>
            <text class="st1">
                <tspan y="26" x="24">界面调节</tspan>
            </text>
        </g>
        <g id="shape20" transform="translate(541,414.35)">
            <path d="M0,0L118,112" stroke="#000000" fill="none"/>
            <path stroke-width="1" stroke-linecap="round" d="M115,103.6L118,112L109.4,109.4" stroke="#000000" stroke-linejoin="round" fill="none"/>
        </g>
        <g id="shape21" transform="translate(619,468)">
            <path d="M-3.1,-2.5L-57,-45.6" stroke="#000000" fill="none"/>
            <path stroke-width="1" stroke-linecap="round" d="M3.1,2.5C1.7,4.2,-0.8,4.5,-2.5,3.1C-4.2,1.7,-4.5,-0.8,-3.1,-2.5C-1.7,-4.2,.8,-4.5,2.5,-3.1C4.2,-1.7,4.5,.8,3.1,2.5" stroke="#000000" stroke-linejoin="round" fill="none"/>
            <path stroke-width="1" stroke-linecap="round" d="M-51.4,-33.5L-57,-45.6L-43.9,-42.8" stroke="#000000" stroke-linejoin="round" fill="none"/>
            <text class="st2">
                <tspan y="-19.3" x="-54.5">调节请求</tspan>
            </text>
        </g>
        <g id="shape22" transform="translate(392,340)">
            <path d="M2.8,-2.8L52,-52" stroke="#000000" fill="none"/>
            <path stroke-width="1" stroke-linecap="round" d="M-2.8,2.8C-4.4,1.3,-4.4,-1.3,-2.8,-2.8C-1.3,-4.4,1.3,-4.4,2.8,-2.8C4.4,-1.3,4.4,1.3,2.8,2.8C1.3,4.4,-1.3,4.4,-2.8,2.8" stroke="#000000" stroke-linejoin="round" fill="none"/>
            <path stroke-width="1" stroke-linecap="round" d="M39.3,-47.8L52,-52L47.8,-39.3" stroke="#000000" stroke-linejoin="round" fill="none"/>
            <text class="st2">
                <tspan y="-21" x="0">使用授权</tspan>
            </text>
        </g>
        <g id="shape23" transform="translate(337,371.35)">
            <path d="M0,0L100,0L100,43L0,43L0,0z" stroke="#8d9cb1" fill="#ffffff"/>
            <text class="st1">
                <tspan y="26" x="11">获取使用授权</tspan>
            </text>
        </g>
        <g id="shape24" transform="translate(491,259.85)">
            <path d="M0,0L-104,111.5" stroke="#000000" fill="none"/>
            <path stroke-width="1" stroke-linecap="round" d="M-95.6,108.4L-104,111.5L-101.5,102.9" stroke="#000000" stroke-linejoin="round" fill="none"/>
        </g>
        <g id="shape25" transform="translate(593,47.35)">
            <path d="M0,0L100,0L100,43L0,43L0,0z" stroke="#8d9cb1" fill="#ffffff"/>
            <text class="st1">
                <tspan y="26" x="31">主模块</tspan>
            </text>
        </g>
        <g id="shape26" transform="translate(643,209.35)">
            <path d="M0,0L0,-119" stroke="#000000" fill="none"/>
            <path stroke-width="1" stroke-linecap="round" d="M-4,-111L0,-119L4,-111" stroke="#000000" stroke-linejoin="round" fill="none"/>
        </g>
        <g id="shape27" transform="translate(349,201.85)">
            <path d="M0,0L100,0L100,58L0,58L0,0z" stroke="#8d9cb1" fill="#ffffff"/>
            <text class="st1">
                <tspan y="26" x="5">获取主控机配置</tspan>
                <tspan y="41" x="37">信息</tspan>
            </text>
        </g>
        <g id="shape28" transform="translate(399,201.85)">
            <path d="M0,0L194,-122.2" stroke="#000000" fill="none"/>
            <path stroke-width="1" stroke-linecap="round" d="M185.1,-121.4L194,-122.2L189.4,-114.6" stroke="#000000" stroke-linejoin="round" fill="none"/>
        </g>
        <g id="shape29" transform="translate(439,161)">
            <path d="M3.4,-2.1L85,-52" stroke="#000000" fill="none"/>
            <path stroke-width="1" stroke-linecap="round" d="M-3.4,2.1C-4.6,.2,-4,-2.3,-2.1,-3.4C-0.2,-4.6,2.3,-4,3.4,-2.1C4.6,-0.2,4,2.3,2.1,3.4C.2,4.6,-2.3,4,-3.4,2.1" stroke="#000000" stroke-linejoin="round" fill="none"/>
            <path stroke-width="1" stroke-linecap="round" d="M71.6,-50.9L85,-52L77.9,-40.6" stroke="#000000" stroke-linejoin="round" fill="none"/>
            <text class="st2">
                <tspan y="-17.3" x="-4">主控机配置信息</tspan>
            </text>
        </g>
        <g id="shape30" transform="translate(236,209.35)">
            <path d="M0,0L100,0L100,43L0,43L0,0z" stroke="#8d9cb1" fill="#ffffff"/>
            <text class="st1">
                <tspan y="26" x="11">获取房间信息</tspan>
            </text>
        </g>
        <g id="shape31" transform="translate(286,209.35)">
            <path d="M0,0L307,-140.5" stroke="#000000" fill="none"/>
            <path stroke-width="1" stroke-linecap="round" d="M298.1,-140.8L307,-140.5L301.4,-133.5" stroke="#000000" stroke-linejoin="round" fill="none"/>
        </g>
        <g id="shape32" transform="translate(402,133)">
            <path d="M3.7,-1.5L70,-29" stroke="#000000" fill="none"/>
            <path stroke-width="1" stroke-linecap="round" d="M-3.7,1.5C-4.5,-0.5,-3.6,-2.8,-1.5,-3.7C.5,-4.5,2.8,-3.6,3.7,-1.5C4.5,.5,3.6,2.8,1.5,3.7C-0.5,4.5,-2.8,3.6,-3.7,1.5" stroke="#000000" stroke-linejoin="round" fill="none"/>
            <path stroke-width="1" stroke-linecap="round" d="M56.6,-30L70,-29L61.2,-18.9" stroke="#000000" stroke-linejoin="round" fill="none"/>
            <text class="st2">
                <tspan y="-14.5" x="8">房间信息</tspan>
            </text>
        </g>
        <g id="shape33" transform="translate(624,110)">
            <path d="M0,4L0,62" stroke="#000000" fill="none"/>
            <path stroke-width="1" stroke-linecap="round" d="M0,-4C2.2,-4,4,-2.2,4,0C4,2.2,2.2,4,0,4C-2.2,4,-4,2.2,-4,0C-4,-2.2,-2.2,-4,0,-4" stroke="#000000" stroke-linejoin="round" fill="none"/>
            <path stroke-width="1" stroke-linecap="round" d="M6,50L0,62L-6,50" stroke="#000000" stroke-linejoin="round" fill="none"/>
            <text class="st2">
                <tspan y="-1.8" x="-25.5">房间信息</tspan>
                <tspan y="13.2" x="-45.5">主控机配置信息</tspan>
                <tspan y="28.2" x="-38.5">调解请求记录</tspan>
            </text>
        </g>
        <g id="shape34" transform="translate(660.29,194)">
            <path d="M0,-4L.7,-66" stroke="#000000" fill="none"/>
            <path stroke-width="1" stroke-linecap="round" d="M-0,4C-2.3,4,-4,2.2,-4,-0C-4,-2.3,-2.2,-4,0,-4C2.3,-4,4,-2.2,4,0C4,2.3,2.2,4,-0,4" stroke="#000000" stroke-linejoin="round" fill="none"/>
            <path stroke-width="1" stroke-linecap="round" d="M-5.4,-54.1L.7,-66L6.6,-53.9" stroke="#000000" stroke-linejoin="round" fill="none"/>
            <text class="st2">
                <tspan y="-34.3" x="-38.6">空调运行状态</tspan>
                <tspan y="-19.3" x="-51.6">从控机及房间信息</tspan>
            </text>
        </g>
        <g id="shape35" transform="translate(711,209.35)">
            <path d="M0,0L100,0L100,43L0,43L0,0z" stroke="#8d9cb1" fill="#ffffff"/>
            <text class="st1">
                <tspan y="26" x="24">给出结果</tspan>
            </text>
        </g>
        <g id="shape36" transform="translate(668,90.35)">
            <path d="M0,0L93,119" stroke="#000000" fill="none"/>
            <path stroke-width="1" stroke-linecap="round" d="M91.2,110.2L93,119L84.9,115.2" stroke="#000000" stroke-linejoin="round" fill="none"/>
        </g>
        <g id="shape37" transform="translate(704,113)">
            <path d="M2.4,3.2L47,62" stroke="#000000" fill="none"/>
            <path stroke-width="1" stroke-linecap="round" d="M-2.4,-3.2C-0.7,-4.5,1.9,-4.2,3.2,-2.4C4.5,-0.7,4.2,1.9,2.4,3.2C.7,4.5,-1.9,4.2,-3.2,2.4C-4.5,.7,-4.2,-1.9,-2.4,-3.2" stroke="#000000" stroke-linejoin="round" fill="none"/>
            <path stroke-width="1" stroke-linecap="round" d="M44.5,48.8L47,62L35,56.1" stroke="#000000" stroke-linejoin="round" fill="none"/>
            <text class="st2">
                <tspan y="9.1" x="-16.5">空调运行状态</tspan>
            </text>
        </g>
        <g id="shape38" transform="translate(829,209.35)">
            <path d="M0,0L100,0L100,43L0,43L0,0z" stroke="#8d9cb1" fill="#ffffff"/>
            <text class="st1">
                <tspan y="26" x="24">给出结果</tspan>
            </text>
        </g>
        <g id="shape39" transform="translate(693,79.6)">
            <path d="M0,0L186,129.7" stroke="#000000" fill="none"/>
            <path stroke-width="1" stroke-linecap="round" d="M181.7,121.9L186,129.7L177.2,128.5" stroke="#000000" stroke-linejoin="round" fill="none"/>
        </g>
        <g id="shape40" transform="translate(795,132)">
            <path d="M3.4,2.2L51,33" stroke="#000000" fill="none"/>
            <path stroke-width="1" stroke-linecap="round" d="M-3.4,-2.2C-2.2,-4,.3,-4.6,2.2,-3.4C4,-2.2,4.6,.3,3.4,2.2C2.2,4,-0.3,4.6,-2.2,3.4C-4,2.2,-4.6,-0.3,-3.4,-2.2" stroke="#000000" stroke-linejoin="round" fill="none"/>
            <path stroke-width="1" stroke-linecap="round" d="M44.2,21.4L51,33L37.7,31.5" stroke="#000000" stroke-linejoin="round" fill="none"/>
            <text class="st2">
                <tspan y="4" x="-27.5">从控机及房间信息</tspan>
            </text>
        </g>
    </g>
</svg>
