<svg xmlns="http://www.w3.org/2000/svg" xmlns:xlink="http://www.w3.org/1999/xlink" width="318" height="61" viewBox="0 0 318 61">
    <style type="text/css"><![CDATA[
.st1 {fill:#000000;font-family:宋体;font-size:10pt}
]]></style>
    <defs>
        <linearGradient x2="0%" x1="0%" id="lg1" y2="100%" y1="0%">
            <stop stop-color="#fcfcfc" offset="0"/>
            <stop stop-color="#f5f5f5" offset="0.5"/>
            <stop stop-color="#eeeeee" offset="1"/>
        </linearGradient>
    </defs>
    <g transform="translate(-347.56,-360.58)">
        <g transform="translate(354,389.68)" id="shape1">
            <path d="M0,-0L104.6,-0" stroke="#545454" fill="none"/>
            <path d="M115,-0L104.6,-2.6L104.6,2.6L115,-0" stroke-linecap="round" stroke="#545454" fill="#545454" stroke-width="1"/>
            <text class="st1">
                <tspan y="4.5" x="31.5">配置信息</tspan>
            </text>
        </g>
        <g transform="translate(469.04,361.57)" id="shape2">
            <path fill-opacity="0.5" d="M2,30.1C2,14.6,14.6,2,30.1,2C45.6,2,58.2,14.6,58.2,30.1C58.2,45.6,45.6,58.2,30.1,58.2C14.6,58.2,2,45.6,2,30.1z" fill="#bebebe"/>
            <path d="M0,28.1C0,12.6,12.6,0,28.1,0C43.6,0,56.2,12.6,56.2,28.1C56.2,43.6,43.6,56.2,28.1,56.2C12.6,56.2,-0,43.6,0,28.1z" stroke="#545454" fill="url(#lg1)"/>
            <text class="st1">
                <tspan y="25.1" x="9.1">配置空</tspan>
                <tspan y="40.1" x="9.1">调参数</tspan>
            </text>
        </g>
        <g transform="translate(525.26,389.68)" id="shape3">
            <path d="M0,-0L125.3,-0" stroke="#545454" fill="none"/>
            <path d="M135.7,-0L125.3,-2.6L125.3,2.6L135.7,-0" stroke-linecap="round" stroke="#545454" fill="#545454" stroke-width="1"/>
            <text class="st1">
                <tspan y="4.5" x="22.4">主控机配置信息</tspan>
            </text>
        </g>
    </g>
</svg>
